<?xml version="1.0" encoding="UTF-8"?>
<svg width="166px" height="87px" viewBox="0 0 166 87" version="1.1" xmlns="http://www.w3.org/2000/svg"
     xmlns:xlink="http://www.w3.org/1999/xlink">
    <!-- Generator: Sketch 46.2 (44496) - http://www.bohemiancoding.com/sketch -->
    <title>Group</title>
    <desc>Created with Sketch.</desc>
    <defs></defs>
    <g id="Page-1" stroke="none" stroke-width="1" fill="none" fill-rule="evenodd">
        <g id="Edenred---Rebrand---Home-image" transform="translate(-562.000000, -4554.000000)" fill-rule="nonzero"
           fill="#0085CA">
            <g id="Stats" transform="translate(188.000000, 4310.000000)">
                <g id="1" transform="translate(0.000000, 219.000000)">
                    <g id="Group" transform="translate(374.000000, 25.000000)">
                        <path d="M119.419021,68.0235296 C119.419021,68.0235296 98.7722966,62.7452032 95.8602058,57.0019129 C94.535528,54.3732656 95.8449982,51.0062415 97.1699995,48.6901586 C97.7766851,47.8812445 98.3678396,47.0225013 98.9392565,46.111664 L98.9392565,46.1016334 C102.387172,40.6324033 105.016143,33.4130066 105.284055,24.4952138 C105.688189,11.0879476 95.2480196,0.198345742 82.8625737,0.167930571 L82.8625737,0.167930571 C82.8528668,0.167930571 82.8421891,0.167930571 82.8321586,0.167930571 C82.8269815,0.167930571 82.816951,0.167930571 82.8069204,0.167930571 L82.8069204,0.167930571 C70.4214746,0.198345742 59.981629,11.0879476 60.386086,24.4952138 C60.6539984,33.4136537 63.2829693,40.6324033 66.7257078,46.1016334 L66.7257078,46.1016334 L66.7312084,46.111664 C67.3026253,47.0218541 67.8941033,47.8812445 68.5004654,48.6901586 C69.8251431,51.0055944 71.1394668,54.3729421 69.8047585,57.0019129 C66.9030217,62.7448796 46.2459437,68.0235296 46.2459437,68.0235296 C42.2725575,69.3381768 39.4057659,73.0785957 39.4057659,77.4774707 L39.4057659,86.5470158 L126.258551,86.5470158 L126.258551,77.4774707 C126.259198,73.0785957 123.397907,69.3381768 119.419021,68.0235296 Z"
                              id="Shape"></path>
                        <path d="M160.686907,73.0785957 L160.686907,73.0692123 C160.45944,72.9977043 145.656959,69.2369008 143.538898,65.0612861 C142.578232,63.1503074 143.523691,60.7028568 144.494388,59.0251689 C144.93379,58.4285139 145.364132,57.8017672 145.778296,57.1442818 L145.778296,57.1442818 C148.280753,53.1508346 150.196908,47.9132775 150.394931,41.4312869 C150.687434,31.6744883 143.094319,23.7571605 134.074927,23.7367759 L134.074927,23.7367759 C134.06975,23.7367759 134.059719,23.7367759 134.059719,23.7367759 C134.049688,23.7367759 134.039334,23.7367759 134.034481,23.7367759 L134.034481,23.7367759 C125.020913,23.7571605 117.418091,31.6738412 117.720624,41.4312869 C117.912822,47.9123068 119.828655,53.1501875 122.331111,57.1442818 L122.331111,57.1442818 L122.331111,57.1442818 C122.750776,57.8014437 123.180471,58.4288374 123.625374,59.0251689 C123.691058,59.1364755 123.756742,59.2578126 123.822425,59.3791498 C131.132744,62.4025472 135.95549,69.5002832 135.95549,77.4787649 L135.95549,86.5479865 L165.661405,86.5479865 L165.661405,79.9553364 C165.661405,76.749448 163.58379,74.0395857 160.686907,73.0785957 Z"
                              id="Shape"></path>
                        <path d="M42.0450909,59.0248454 C42.484493,58.4281903 42.9196888,57.8017672 43.3393535,57.1439583 L43.3393535,57.1439583 L43.3393535,57.1439583 C45.8414866,53.150511 47.7576424,47.9132775 47.950164,41.4312869 C48.2536685,31.6744883 40.6495523,23.7571605 31.6363076,23.7367759 L31.6363076,23.7367759 C31.630807,23.7367759 31.6211,23.7367759 31.6110695,23.7367759 C31.6055689,23.7367759 31.6055689,23.7367759 31.5958619,23.7367759 L31.5958619,23.7367759 C22.576793,23.7571605 14.9833544,31.6738412 15.2765049,41.4312869 C15.4735564,47.9123068 17.3848587,53.150511 19.8924924,57.1439583 L19.8924924,57.1439583 C20.3066565,57.8011201 20.7363516,58.4288374 21.1812544,59.0248454 C22.1467743,60.7031804 23.0922331,63.1499838 22.1267132,65.0609625 C20.0083289,69.2369008 5.21134831,72.9977043 4.98388166,73.0688887 L4.98388166,73.0785957 C2.08699842,74.0395857 0.00388278777,76.749448 0.00388278777,79.9543657 L0.00388278777,86.5470158 L29.7149748,86.5470158 L29.7149748,77.4774707 C29.7149748,69.4999596 34.5380443,62.4015765 41.848363,59.3778555 C41.9137232,59.2578126 41.9794071,59.1364755 42.0450909,59.0248454 Z"
                              id="Shape"></path>
                    </g>
                </g>
            </g>
        </g>
    </g>
</svg>