<?xml version="1.0" encoding="UTF-8"?>
<svg width="97px" height="97px" viewBox="0 0 97 97" version="1.1" xmlns="http://www.w3.org/2000/svg"
     xmlns:xlink="http://www.w3.org/1999/xlink">
    <!-- Generator: Sketch 46.2 (44496) - http://www.bohemiancoding.com/sketch -->
    <title>Shape</title>
    <desc>Created with Sketch.</desc>
    <defs></defs>
    <g id="Page-1" stroke="none" stroke-width="1" fill="none" fill-rule="evenodd">
        <g id="Edenred---Rebrand---Home-image" transform="translate(-1217.000000, -4546.000000)" fill-rule="nonzero"
           fill="#0085CA">
            <g id="Stats" transform="translate(188.000000, 4310.000000)">
                <g id="1-copy-3" transform="translate(975.000000, 236.000000)">
                    <path d="M102.050781,0.19921875 C75.5552637,0.19921875 54,21.7544824 54,48.25 C54,74.7455176 75.5552637,96.3007812 102.050781,96.3007812 C128.546299,96.3007812 150.101562,74.7455176 150.101562,48.25 C150.101562,21.7544824 128.546299,0.19921875 102.050781,0.19921875 Z M102.050781,88.9083534 C79.6316596,88.9083534 61.3924279,70.6691217 61.3924279,48.25 C61.3924279,25.8308783 79.6316596,7.59164663 102.050781,7.59164663 C124.469903,7.59164663 142.709135,25.8308783 142.709135,48.25 C142.709135,70.6691217 124.469903,88.9083534 102.050781,88.9083534 Z M102.050781,11.640585 C100.009415,11.640585 98.3545673,13.2954328 98.3545673,15.3367989 L98.3545673,39.4424502 L85.4537246,26.7792212 C83.9974163,25.3493145 81.6571848,25.3725478 80.226222,26.8278001 C78.7963152,28.2851644 78.8184925,30.6253959 80.2748008,32.0553026 L99.4613194,50.8880407 C100.166768,51.5797607 101.101382,51.9462139 102.051837,51.9462139 C102.533401,51.9462139 103.019189,51.8522245 103.481744,51.6589653 C104.853567,51.0823559 105.746995,49.7390462 105.746995,48.25 L105.746995,15.3367989 C105.746995,13.2954328 104.092147,11.640585 102.050781,11.640585 Z"
                          id="Shape"></path>
                </g>
            </g>
        </g>
    </g>
</svg>