<?xml version="1.0" encoding="UTF-8"?>
<svg width="100px" height="94px" viewBox="0 0 100 94" version="1.1" xmlns="http://www.w3.org/2000/svg"
     xmlns:xlink="http://www.w3.org/1999/xlink">
    <!-- Generator: Sketch 46.2 (44496) - http://www.bohemiancoding.com/sketch -->
    <title>Shape</title>
    <desc>Created with Sketch.</desc>
    <defs></defs>
    <g id="Page-1" stroke="none" stroke-width="1" fill="none" fill-rule="evenodd">
        <g id="Edenred---Rebrand---Home-image" transform="translate(-284.000000, -4548.000000)" fill-rule="nonzero"
           fill="#0085CA">
            <g id="Stats" transform="translate(188.000000, 4310.000000)">
                <g id="1" transform="translate(0.000000, 219.000000)">
                    <path d="M181.763,19 L110.237,19 L96,43.74 L96,52.32 C96,56.581 98.435,60.28 101.986,62.118 L101.986,112.273 L155.739,112.273 L155.739,57.496 C157.6,60.978 161.268,63.351 165.478,63.351 C169.697,63.351 173.365,60.978 175.226,57.496 C177.079,60.978 180.747,63.351 184.965,63.351 L184.965,63.351 L184.965,112.273 L190.013,112.273 L190.013,62.118 C193.565,60.28 195.999,56.581 195.999,52.32 L195.999,43.74 L181.763,19 Z M118.798,44.919 L125.847,23.466 L137.052,23.466 L134.718,44.795 L134.718,50.928 C134.718,55.317 131.151,58.884 126.762,58.884 C122.373,58.884 118.806,55.317 118.806,50.928 L118.806,44.919 L118.798,44.919 Z M150.987,80.682 L107.035,80.682 L107.035,63.351 C111.254,63.351 114.921,60.978 116.775,57.496 C118.636,60.978 122.304,63.351 126.522,63.351 C130.732,63.351 134.4,60.978 136.262,57.496 C138.115,60.978 141.791,63.351 146.001,63.351 C147.8,63.351 149.49,62.901 150.987,62.133 L150.987,80.682 L150.987,80.682 Z M173.195,50.928 C173.195,55.317 169.629,58.884 165.239,58.884 C160.85,58.884 157.283,55.317 157.283,50.928 L157.283,44.795 L154.949,23.466 L166.154,23.466 L173.203,44.919 L173.203,50.928 L173.195,50.928 Z"
                          id="Shape"></path>
                </g>
            </g>
        </g>
    </g>
</svg>