<?xml version="1.0" encoding="UTF-8"?>
<svg width="108px" height="109px" viewBox="0 0 108 109" version="1.1" xmlns="http://www.w3.org/2000/svg"
     xmlns:xlink="http://www.w3.org/1999/xlink">
    <!-- Generator: Sketch 46.2 (44496) - http://www.bohemiancoding.com/sketch -->
    <title>Group</title>
    <desc>Created with Sketch.</desc>
    <defs></defs>
    <g id="Page-1" stroke="none" stroke-width="1" fill="none" fill-rule="evenodd">
        <g id="Edenred---Rebrand---Home-image" transform="translate(-906.000000, -4529.000000)" fill-rule="nonzero"
           fill="#0085CA">
            <g id="Stats" transform="translate(188.000000, 4310.000000)">
                <g id="1" transform="translate(0.000000, 219.000000)">
                    <g id="Group" transform="translate(718.001000, 0.000000)">
                        <path d="M103.725932,29.7482359 L18.7309728,1.062437 C16.1507686,0.151776714 13.4187878,1.51776714 12.5081275,4.09797127 L11.1421371,7.7406124 C10.8385837,8.8030494 11.4456905,9.86548639 12.5081275,10.1690398 L80.2005418,33.0873236 C80.8076487,33.2391003 81.2629788,33.390877 81.8700857,33.390877 L94.9228831,33.390877 C99.6279612,33.390877 103.422379,36.4264113 104.940146,40.5243826 C105.2437,40.2208291 105.547253,39.9172757 105.547253,39.6137223 L106.761467,35.9710811 C107.672127,33.390877 106.306137,30.6588962 103.725932,29.7482359 Z"
                              id="Shape"></path>
                        <path d="M94.9228831,39.0066154 L5.22284526,39.0066154 C2.49086442,39.0066154 0.21421371,41.2832661 0.21421371,44.015247 L0.21421371,103.663495 C0.21421371,106.395476 2.49086442,108.672127 5.22284526,108.672127 L94.9228831,108.672127 C97.6548639,108.672127 99.9315146,106.395476 99.9315146,103.663495 L99.9315146,43.8634703 C99.9315146,41.1314894 97.6548639,39.0066154 94.9228831,39.0066154 Z M49.0863155,74.3705897 L12.3563508,74.3705897 C10.8385837,74.3705897 9.62436996,73.156376 9.62436996,71.6386089 C9.62436996,70.1208417 10.8385837,68.906628 12.3563508,68.906628 L49.0863155,68.906628 C50.6040827,68.906628 51.8182964,70.1208417 51.8182964,71.6386089 C51.8182964,73.156376 50.6040827,74.3705897 49.0863155,74.3705897 Z M49.0863155,56.7644909 L12.3563508,56.7644909 C10.8385837,56.7644909 9.62436996,55.5502772 9.62436996,54.0325101 C9.62436996,52.5147429 10.8385837,51.3005292 12.3563508,51.3005292 L49.0863155,51.3005292 C50.6040827,51.3005292 51.8182964,52.5147429 51.8182964,54.0325101 C51.8182964,55.5502772 50.6040827,56.7644909 49.0863155,56.7644909 Z M63.65688,100.172631 C59.4071321,100.172631 55.7644909,96.6817666 55.7644909,92.2802419 C55.7644909,87.8787172 59.2553553,84.3878528 63.65688,84.3878528 C67.906628,84.3878528 71.5492692,87.8787172 71.5492692,92.2802419 C71.5492692,96.6817666 67.906628,100.172631 63.65688,100.172631 Z M83.2360761,100.172631 C78.9863281,100.172631 75.343687,96.6817666 75.343687,92.2802419 C75.343687,87.8787172 78.8345514,84.3878528 83.2360761,84.3878528 C87.4858241,84.3878528 91.1284652,87.8787172 91.1284652,92.2802419 C91.1284652,96.6817666 87.4858241,100.172631 83.2360761,100.172631 Z"
                              id="Shape"></path>
                        <path d="M5.22284526,33.390877 L32.8462072,33.390877 C33.6050907,33.390877 33.7568674,32.32844 32.9979839,32.0248866 L7.95482611,23.5253906 C6.89238911,23.2218372 5.82995212,23.6771673 5.37462198,24.7396043 L3.24974798,30.9624496 C2.94619456,32.1766633 3.85685484,33.390877 5.22284526,33.390877 C5.07106855,33.390877 5.22284526,33.390877 5.22284526,33.390877 Z"
                              id="Shape"></path>
                    </g>
                </g>
            </g>
        </g>
    </g>
</svg>