<?xml version="1.0" encoding="UTF-8"?>
<svg width="23px" height="31px" viewBox="0 0 23 31" version="1.1" xmlns="http://www.w3.org/2000/svg"
     xmlns:xlink="http://www.w3.org/1999/xlink">
    <!-- Generator: Sketch 46.2 (44496) - http://www.bohemiancoding.com/sketch -->
    <title>Shape</title>
    <desc>Created with Sketch.</desc>
    <defs></defs>
    <g id="Page-1" stroke="none" stroke-width="1" fill="none" fill-rule="evenodd">
        <g id="Edenred---Rebrand---Home-image" transform="translate(-1554.000000, -1182.000000)" fill-rule="nonzero"
           fill="#FFFFFF">
            <g id="Group-24" transform="translate(1530.000000, 1047.000000)">
                <path d="M26.875,166 L44.125,166 C45.70625,166 47,164.72748 47,163.172178 L47,146.912201 C47,145.356899 45.70625,144.084379 44.125,144.084379 L42.328125,144.084379 L42.328125,141.786773 C42.328125,138.039909 39.2734375,135 35.5,135 C31.7265625,135 28.671875,138.039909 28.671875,141.786773 L28.671875,144.084379 L26.875,144.084379 C25.29375,144.084379 24,145.356899 24,146.912201 L24,163.172178 C24,164.72748 25.29375,166 26.875,166 Z M31.546875,141.751425 C31.546875,139.559863 33.3078125,137.792474 35.5,137.792474 C37.6921875,137.792474 39.453125,139.559863 39.453125,141.751425 L39.453125,144.049031 L31.546875,144.049031 L31.546875,141.751425 Z M26.875,146.912201 L28.671875,146.912201 L28.671875,154.052452 L31.546875,154.052452 L31.546875,146.912201 L39.453125,146.912201 L39.453125,154.052452 L42.328125,154.052452 L42.328125,146.912201 L44.125,146.912201 L44.125,163.172178 L26.875,163.172178 L26.875,146.912201 Z"
                      id="Shape"></path>
            </g>
        </g>
    </g>
</svg>