<?xml version="1.0" encoding="UTF-8"?>
<svg width="27px" height="27px" viewBox="0 0 27 27" version="1.1" xmlns="http://www.w3.org/2000/svg"
     xmlns:xlink="http://www.w3.org/1999/xlink">
    <!-- Generator: Sketch 46.2 (44496) - http://www.bohemiancoding.com/sketch -->
    <title>Shape</title>
    <desc>Created with Sketch.</desc>
    <defs></defs>
    <g id="Page-1" stroke="none" stroke-width="1" fill="none" fill-rule="evenodd">
        <g id="Edenred---Rebrand---Home-image" transform="translate(-1552.000000, -1127.000000)" fill-rule="nonzero"
           fill="#FFFFFF">
            <path d="M1565.5,1127 C1558.05614,1127 1552,1133.05614 1552,1140.5 C1552,1147.94386 1558.05614,1154 1565.5,1154 C1572.94386,1154 1579,1147.94386 1579,1140.5 C1579,1133.05614 1572.94386,1127 1565.5,1127 Z M1565.5,1151.41096 C1559.48344,1151.41096 1554.58904,1146.51656 1554.58904,1140.5 C1554.58904,1134.48344 1559.48344,1129.58904 1565.5,1129.58904 C1571.51656,1129.58904 1576.41096,1134.48344 1576.41096,1140.5 C1576.41096,1146.51656 1571.51656,1151.41096 1565.5,1151.41096 Z M1565.40236,1131.63882 C1562.59732,1131.63882 1561.36678,1133.29063 1560.883,1134.27484 C1560.48059,1135.09297 1560.4939,1135.79941 1560.50093,1135.93256 L1563.08627,1135.80163 L1563.08775,1135.84047 C1563.08775,1135.83862 1563.09256,1135.64814 1563.20648,1135.4166 C1563.59964,1134.61659 1564.31792,1134.22749 1565.40236,1134.22749 C1566.14615,1134.22749 1566.7113,1134.4324 1567.13036,1134.85293 C1567.7839,1135.50944 1567.91299,1136.49697 1567.91188,1136.72555 C1567.9104,1137.0281 1567.80536,1138.58855 1565.87837,1139.59014 C1564.27095,1140.42529 1563.34925,1142.06341 1563.34925,1144.08397 L1563.34999,1144.85514 L1565.93903,1144.84996 L1565.93829,1144.08397 C1565.93829,1143.35053 1566.13468,1142.3741 1567.07155,1141.88736 C1570.31968,1140.19967 1570.49796,1137.30179 1570.50055,1136.73812 C1570.50462,1135.93663 1570.18542,1134.25301 1568.96525,1133.02655 C1568.06167,1132.1189 1566.82966,1131.63882 1565.40236,1131.63882 Z M1563.35036,1148.06666 L1565.9394,1148.06666 L1565.9394,1146.03241 L1563.35036,1146.03241 L1563.35036,1148.06666 Z"
                  id="Shape"></path>
        </g>
    </g>
</svg>