<?xml version="1.0" encoding="UTF-8"?>
<svg width="23px" height="31px" viewBox="0 0 23 31" version="1.1" xmlns="http://www.w3.org/2000/svg"
     xmlns:xlink="http://www.w3.org/1999/xlink">
    <!-- Generator: Sketch 46.2 (44496) - http://www.bohemiancoding.com/sketch -->
    <title>Shape</title>
    <desc>Created with Sketch.</desc>
    <defs></defs>
    <g id="Page-1" stroke="none" stroke-width="1" fill="none" fill-rule="evenodd">
        <g id="Edenred---Rebrand---Home-image" transform="translate(-1554.000000, -1182.000000)" fill-rule="nonzero"
           fill="#FFFFFF">
            <path d="M1556.875,1213 L1574.125,1213 C1575.70625,1213 1577,1211.72748 1577,1210.17218 L1577,1193.9122 C1577,1192.3569 1575.70625,1191.08438 1574.125,1191.08438 L1572.32812,1191.08438 L1572.32812,1188.78677 C1572.32812,1185.03991 1569.27344,1182 1565.5,1182 C1561.72656,1182 1558.67188,1185.03991 1558.67188,1188.78677 L1558.67188,1191.08438 L1556.875,1191.08438 C1555.29375,1191.08438 1554,1192.3569 1554,1193.9122 L1554,1210.17218 C1554,1211.72748 1555.29375,1213 1556.875,1213 Z M1561.54688,1188.75143 C1561.54688,1186.55986 1563.30781,1184.79247 1565.5,1184.79247 C1567.69219,1184.79247 1569.45312,1186.55986 1569.45312,1188.75143 L1569.45312,1191.04903 L1561.54688,1191.04903 L1561.54688,1188.75143 Z M1556.875,1193.9122 L1558.67188,1193.9122 L1558.67188,1201.05245 L1561.54688,1201.05245 L1561.54688,1193.9122 L1569.45312,1193.9122 L1569.45312,1201.05245 L1572.32812,1201.05245 L1572.32812,1193.9122 L1574.125,1193.9122 L1574.125,1210.17218 L1556.875,1210.17218 L1556.875,1193.9122 Z"
                  id="Shape"></path>
        </g>
    </g>
</svg>