<?xml version="1.0" standalone="no"?>
<!DOCTYPE svg PUBLIC "-//W3C//DTD SVG 1.1//EN" "http://www.w3.org/Graphics/SVG/1.1/DTD/svg11.dtd" >
<svg>
    <metadata>
        Created by FontForge 20090622 at Tue Aug 22 13:16:35 2017
        By deploy user
        Copyright (c) Joseph Churchward and BluHead Studio, LLC., 2014. All rights reserved.
    </metadata>
    <defs>
        <font id="ChurchwardLorina-Regular" horiz-adv-x="608">
            <font-face
                    font-family="Churchward Lorina"
                    font-weight="500"
                    font-stretch="normal"
                    units-per-em="1000"
                    panose-1="2 11 6 3 4 5 2 2 2 7"
                    ascent="800"
                    descent="-200"
                    x-height="525"
                    cap-height="706"
                    bbox="-133 -308 1293 1027"
                    underline-thickness="50"
                    underline-position="-50"
                    unicode-range="U+0020-U+FB04"
            />
            <missing-glyph horiz-adv-x="250"
            />
            <glyph glyph-name="ff" unicode="ff" horiz-adv-x="600"
                   d="M179 0h-111v533q0 86 48.5 132t136.5 46q43 0 91 -13l-19 -84q-25 9 -58 9q-85 0 -85 -76v-27h131l-15 -88h-119v-432zM479 0h-111v533q0 86 48.5 132t136.5 46q43 0 91 -13l-19 -84q-25 9 -58 9q-85 0 -85 -76v-27h131l-15 -88h-119v-432z"/>
            <glyph glyph-name="fi" unicode="fi" horiz-adv-x="548"
                   d="M179 0h-111v533q0 86 48.5 132t136.5 46q43 0 91 -13l-19 -84q-25 9 -58 9q-85 0 -85 -76v-27h131l-15 -88h-119v-432zM368 525h112v-525h-112v525zM368 706h112v-96h-112v96z"/>
            <glyph glyph-name="fl" unicode="fl" horiz-adv-x="548"
                   d="M179 0h-111v533q0 86 48.5 132t136.5 46q43 0 91 -13l-19 -84q-25 9 -58 9q-85 0 -85 -76v-27h131l-15 -88h-119v-432zM368 706h112v-706h-112v706z"/>
            <glyph glyph-name="ffi" unicode="ffi" horiz-adv-x="848"
                   d="M179 0h-111v533q0 86 48.5 132t136.5 46q43 0 91 -13l-19 -84q-25 9 -58 9q-85 0 -85 -76v-27h131l-15 -88h-119v-432zM479 0h-111v533q0 86 48.5 132t136.5 46q43 0 91 -13l-19 -84q-25 9 -58 9q-85 0 -85 -76v-27h131l-15 -88h-119v-432zM668 525h112v-525h-112v525z
M668 706h112v-96h-112v96z"/>
            <glyph glyph-name="ffl" unicode="ffl" horiz-adv-x="848"
                   d="M179 0h-111v533q0 86 48.5 132t136.5 46q43 0 91 -13l-19 -84q-25 9 -58 9q-85 0 -85 -76v-27h131l-15 -88h-119v-432zM479 0h-111v533q0 86 48.5 132t136.5 46q43 0 91 -13l-19 -84q-25 9 -58 9q-85 0 -85 -76v-27h131l-15 -88h-119v-432zM668 706h112v-706h-112v706z
"/>
            <glyph glyph-name=".notdef" horiz-adv-x="250"
            />
            <glyph glyph-name=".null" horiz-adv-x="0"
            />
            <glyph glyph-name="nonmarkingreturn" horiz-adv-x="333"
            />
            <glyph glyph-name="space" unicode=" " horiz-adv-x="317"
            />
            <glyph glyph-name="exclam" unicode="!" horiz-adv-x="255"
                   d="M175 232l-97 1l-13 472h123zM60 0v141h70h64v-141h-134z"/>
            <glyph glyph-name="quotedbl" unicode="&#x22;" horiz-adv-x="492"
                   d="M85 404v302h112v-302h-112zM295 404v302h112v-302h-52h-60z"/>
            <glyph glyph-name="numbersign" unicode="#" horiz-adv-x="761"
                   d="M420 284l48 136h-122l-48 -136h122zM348 698h95l-71 -204h120l72 204h94l-70 -204h126l-24 -74h-128l-48 -135h136l-25 -74h-137l-72 -205h-96l73 205h-121l-73 -205h-95l72 205h-130l27 74h130l48 135h-140l25 74h141z"/>
            <glyph glyph-name="dollar" unicode="$" horiz-adv-x="587"
                   d="M262 -84v84q-94 6 -201 50l37 94q19 -12 66.5 -29t97.5 -21v236l-63 27q-70 29 -109 69t-39 103q0 84 60 127.5t151 51.5v66h62v-64q108 -3 191 -47l-41 -92q-74 40 -150 43v-195l53 -22q83 -35 121 -82.5t38 -121.5q0 -88 -60 -136.5t-152 -56.5v-84h-62zM416 193
q0 39 -22.5 64t-69.5 47v-205q44 6 68 34t24 60zM170 532q1 -30 24 -48t68 -38v164q-40 -6 -66.5 -23.5t-25.5 -54.5z"/>
            <glyph glyph-name="percent" unicode="%" horiz-adv-x="915"
                   d="M46 528q0 86 52 137.5t131 51.5q80 0 132.5 -51.5t52.5 -137.5q0 -87 -52.5 -138.5t-132.5 -51.5q-79 0 -131.5 52t-51.5 138zM135 528q0 -53 23 -87.5t71 -34.5q49 0 72.5 34.5t23.5 87.5q0 52 -23.5 86t-72.5 34q-48 0 -71 -34t-23 -86zM587 717l72 -30l-329 -699
l-70 35zM502 173q0 87 52 138.5t131 51.5q80 0 132.5 -51.5t52.5 -138.5t-52.5 -138.5t-132.5 -51.5q-79 0 -131.5 52t-51.5 138zM591 173q0 -53 23 -87.5t71 -34.5q49 0 72.5 34.5t23.5 87.5q0 52 -23.5 86.5t-72.5 34.5q-48 0 -71 -34.5t-23 -86.5z"/>
            <glyph glyph-name="ampersand" unicode="&#x26;" horiz-adv-x="759"
                   d="M43 225q0 73 41 129.5t122 71.5q-56 4 -87.5 41t-31.5 90q0 73 47 111t129 38h241l-12 -86h-184q-99 0 -99 -72q0 -35 23 -54.5t66 -19.5h130v-88h-44q-58 0 -104.5 -13.5t-79 -50t-32.5 -92.5q0 -69 46.5 -107t121.5 -38q81 0 133 53t54 130q1 27 -3 48h232l-10 -83
h-112q-10 -112 -94.5 -179t-205.5 -67q-131 0 -209 63t-78 175z"/>
            <glyph glyph-name="quotesingle" unicode="'" horiz-adv-x="283"
                   d="M86 404v302h112v-302h-112z"/>
            <glyph glyph-name="parenleft" unicode="(" horiz-adv-x="327"
                   d="M302 -184h-108q-60 117 -93 220t-32 225t33 225t91 220h108q-109 -212 -109 -445q0 -231 110 -445z"/>
            <glyph glyph-name="parenright" unicode=")" horiz-adv-x="327"
                   d="M132 -184h-107q110 218 110 445q0 229 -109 445h107q59 -116 91.5 -219.5t33.5 -225.5q0 -122 -33 -225t-93 -220z"/>
            <glyph glyph-name="asterisk" unicode="*" horiz-adv-x="500"
                   d="M329 320l-80 129l-77 -128l-83 56l103 116l-143 27l31 95l131 -51l-8 142h94l-8 -142l129 51l33 -95l-143 -27l103 -116z"/>
            <glyph glyph-name="plus" unicode="+" horiz-adv-x="833"
                   d="M696 301h-225v-227h-109v227h-224v105h224v225h109v-225h225v-105z"/>
            <glyph glyph-name="comma" unicode="," horiz-adv-x="237"
                   d="M100 -136l-73 60q35 36 35 91v118h122v-102q0 -54 -16.5 -88t-67.5 -79z"/>
            <glyph glyph-name="hyphen" unicode="-" horiz-adv-x="410"
                   d="M41 334h329v-118h-329v118z"/>
            <glyph glyph-name="period" unicode="." horiz-adv-x="252"
                   d="M59 0v135h134v-135h-134z"/>
            <glyph glyph-name="slash" unicode="/" horiz-adv-x="355"
                   d="M118 -10l-100 34l239 697l101 -33z"/>
            <glyph glyph-name="zero" unicode="0" horiz-adv-x="757"
                   d="M50 349q0 168 93 266.5t235 98.5t235.5 -98.5t93.5 -266.5t-93.5 -266.5t-235.5 -98.5t-235 98.5t-93 266.5zM180 349q0 -115 52 -187t146 -72t146 72t52 187q0 114 -52.5 186.5t-145.5 72.5q-94 0 -146 -72t-52 -187z"/>
            <glyph glyph-name="one" unicode="1" horiz-adv-x="423"
                   d="M191 0v553q-14 -26 -39.5 -57t-47.5 -48l-55 72q91 86 140 186h119v-706h-117z"/>
            <glyph glyph-name="two" unicode="2" horiz-adv-x="613"
                   d="M531 0h-491q0 101 27.5 176t102.5 128q21 16 94.5 55t114 76t40.5 82q0 51 -41 75t-98 24q-103 0 -186 -52l-42 93q100 61 234 61q72 0 128.5 -17.5t96 -64t39.5 -119.5q0 -47 -19 -84.5t-54 -65t-69 -47l-80.5 -44t-72.5 -42.5q-74 -54 -87 -130h380z"/>
            <glyph glyph-name="three" unicode="3" horiz-adv-x="552"
                   d="M289 0h-224q51 20 97.5 43t95.5 55t78 70t29 77q0 92 -137 92h-106v92h85q55 0 85 26.5t30 68.5q0 48 -38 70t-86 23q-69 1 -145 -30l-33 90q89 38 194 38q43 0 82 -9t74.5 -28t56.5 -55t21 -84q0 -50 -32.5 -90t-83.5 -51q70 -3 117.5 -43.5t47.5 -108.5
q0 -130 -208 -246z"/>
            <glyph glyph-name="four" unicode="4" horiz-adv-x="641"
                   d="M378 211h-296l-43 95l297 399h159v-396h86l-6 -98h-80v-211h-117v211zM378 608l-223 -299h223v299z"/>
            <glyph glyph-name="five" unicode="5" horiz-adv-x="593"
                   d="M323 0h-210q54 25 100.5 52.5t93.5 63.5t74.5 78.5t27.5 84.5q0 49 -33.5 77.5t-83.5 28.5q-44 0 -79.5 -21t-48.5 -42h-106l16 384h407l10 -101h-320l-7 -190q66 61 168 63q96 0 152.5 -52.5t56.5 -141.5q0 -86 -63.5 -160t-154.5 -124z"/>
            <glyph glyph-name="six" unicode="6" horiz-adv-x="669"
                   d="M50 299q0 118 69 226t191 181h197q-148 -71 -238.5 -169t-98.5 -209q21 67 78 105.5t128 38.5q111 0 180.5 -65.5t69.5 -172.5q0 -112 -78 -179t-196 -67q-139 0 -220.5 85.5t-81.5 225.5zM205 233q0 -67 39.5 -105.5t106.5 -38.5q68 0 108 39t40 105q0 64 -39.5 102
t-103.5 38q-67 0 -109 -38t-42 -102z"/>
            <glyph glyph-name="seven" unicode="7" horiz-adv-x="543"
                   d="M220 0h-149q40 38 76 89t59.5 93.5t51 110t40 103t36.5 110t32 96.5h-336l6 104h480q-5 -14 -41 -134.5t-64 -202.5t-81.5 -193t-109.5 -176z"/>
            <glyph glyph-name="eight" unicode="8" horiz-adv-x="671"
                   d="M335 -12q-122 0 -205.5 55.5t-83.5 163.5q0 70 43 119.5t114 60.5q-52 14 -85.5 56.5t-33.5 96.5q0 91 72.5 134.5t179.5 43.5q111 0 181 -42.5t70 -135.5q0 -53 -34 -95.5t-86 -57.5q71 -12 114.5 -61.5t43.5 -118.5q0 -74 -42 -124.5t-105.5 -72.5t-142.5 -22zM176 215
q0 -61 45.5 -95t113.5 -34t114 34t46 95t-47.5 94.5t-112.5 33.5q-67 0 -113 -32.5t-46 -95.5zM209 528q0 -53 37.5 -78t89.5 -25q56 0 91.5 24.5t35.5 78.5q0 52 -36.5 76.5t-90.5 24.5q-55 0 -91 -24.5t-36 -76.5z"/>
            <glyph glyph-name="nine" unicode="9" horiz-adv-x="668"
                   d="M368 0h-190q149 78 233 179t84 190q0 29 -6 52q-12 -81 -70.5 -128.5t-136.5 -47.5q-110 0 -177.5 64t-67.5 172q0 109 77.5 173t193.5 64q138 0 224 -87.5t86 -227.5q0 -227 -250 -403zM452 481q0 64 -40.5 100t-99.5 36q-65 0 -105.5 -36.5t-40.5 -99.5
q0 -64 39.5 -101t104.5 -37q59 0 100.5 39.5t41.5 98.5z"/>
            <glyph glyph-name="colon" unicode=":" horiz-adv-x="252"
                   d="M59 0v135h69h65v-135h-134zM59 384v135h134v-135h-134z"/>
            <glyph glyph-name="semicolon" unicode=";" horiz-adv-x="252"
                   d="M59 384v135h134v-135h-134zM106 -143l-75 60q35 38 35 91v125h124v-109q0 -53 -17.5 -88t-66.5 -79z"/>
            <glyph glyph-name="less" unicode="&#x3c;" horiz-adv-x="833"
                   d="M651 93l-475 210v101l475 206v-115l-352 -140l352 -147v-115z"/>
            <glyph glyph-name="equal" unicode="=" horiz-adv-x="833"
                   d="M696 421h-558v50v56h558v-106zM696 180h-558v106h558v-106z"/>
            <glyph glyph-name="greater" unicode="&#x3e;" horiz-adv-x="833"
                   d="M657 303l-474 -210v115l352 147l-352 140v115l474 -206v-101z"/>
            <glyph glyph-name="question" unicode="?" horiz-adv-x="540"
                   d="M140 176v156q25 -5 66 -5q72 0 123.5 37t51.5 106q0 65 -45.5 104.5t-111.5 39.5q-98 0 -172 -60l-49 83q97 81 235 81q118 0 194.5 -65t76.5 -179q0 -105 -71.5 -166t-179.5 -67v-65h-118zM133 119h134v-119h-134v119z"/>
            <glyph glyph-name="at" unicode="@" horiz-adv-x="866"
                   d="M576 153v63q-20 -31 -60 -50.5t-85 -19.5q-89 0 -147 57t-58 149t58.5 148.5t151.5 56.5q94 0 152.5 -55t58.5 -163v-106q88 4 88 143q0 122 -77.5 198t-218.5 76q-139 0 -223 -91.5t-84 -206.5q0 -138 84 -217.5t214 -79.5q99 0 170 49l38 -68l-27.5 -16t-73.5 -26
t-112 -16q-160 0 -267.5 101t-107.5 273q0 71 26.5 137.5t74.5 120t123.5 86t165.5 32.5q171 0 273.5 -96.5t102.5 -258.5q0 -220 -240 -220zM564 352q0 60 -35.5 94t-91.5 34q-60 0 -94 -36.5t-34 -91.5q0 -57 33.5 -93t93.5 -36q57 0 92.5 34.5t35.5 94.5z"/>
            <glyph glyph-name="A" unicode="A" horiz-adv-x="655"
                   d="M648 0h-128l-59 179h-276l-64 -179h-113l256 706h143zM217 276h213l-102 321z"/>
            <glyph glyph-name="B" unicode="B" horiz-adv-x="687"
                   d="M82 706h310q209 0 209 -182q0 -58 -25 -98.5t-75 -48.5q72 -10 107 -57t35 -120q0 -200 -230 -200h-162q-94 0 -131.5 43t-37.5 137v526zM202 364v-196q0 -37 19.5 -52.5t59.5 -15.5h113q118 0 118 111q0 58 -28 82t-86 24h-118q-33 0 -50 11.5t-28 35.5zM202 606v-132
q0 -31 18 -50t53 -19h82q117 0 117 102q0 59 -29 79t-84 20h-157z"/>
            <glyph glyph-name="C" unicode="C" horiz-adv-x="643"
                   d="M51 354q1 168 104.5 266t267.5 98q110 0 196 -46l-49 -94q-63 34 -136 34q-115 0 -182.5 -71.5t-67.5 -186.5q0 -118 71 -189.5t189 -71.5q75 0 147 38l-11 -112q-70 -31 -157 -31q-165 0 -269 98.5t-103 267.5z"/>
            <glyph glyph-name="D" unicode="D" horiz-adv-x="814"
                   d="M78 253v453h367q151 0 236.5 -102t85.5 -254q0 -162 -110 -261.5t-269 -99.5q-138 0 -224 65t-86 199zM198 606v-353q0 -73 55.5 -115.5t134.5 -41.5q112 0 179.5 73t66.5 182q0 105 -59 180t-163 75h-214z"/>
            <glyph glyph-name="E" unicode="E" horiz-adv-x="592"
                   d="M543 0h-306q-76 0 -115.5 43t-39.5 116v547h485l-18 -100h-347v-205h311l-17 -96h-294v-126q0 -44 17 -61.5t49 -17.5h293z"/>
            <glyph glyph-name="F" unicode="F" horiz-adv-x="554"
                   d="M82 0v540q0 79 40.5 122.5t121.5 43.5h294l-17 -100h-217q-62 0 -82 -18.5t-20 -73.5v-116h300q-6 -68 -10 -97l-290 -1v-300h-120z"/>
            <glyph glyph-name="G" unicode="G" horiz-adv-x="806"
                   d="M625 75q-34 -42 -93.5 -64.5t-121.5 -22.5q-157 0 -258.5 100t-101.5 261q0 169 104.5 269t275.5 100q166 0 269 -92l-60 -85q-80 75 -203 75q-117 0 -184 -72.5t-67 -191.5q0 -112 66.5 -185t180.5 -73q68 0 126.5 33.5t59.5 97.5v87h-274l14 99h378v-304q0 -70 33 -107
h-125q-18 28 -19 75z"/>
            <glyph glyph-name="H" unicode="H" horiz-adv-x="740"
                   d="M83 0v706h121v-300h333v300h120v-706h-120v307h-334v-307h-120z"/>
            <glyph glyph-name="I" unicode="I" horiz-adv-x="287"
                   d="M203 706v-706h-120v706h120z"/>
            <glyph glyph-name="J" unicode="J" horiz-adv-x="292"
                   d="M97 706h120v-340q0 -184 -97 -366h-131q36 63 54.5 101.5t36 112t17.5 158.5v334z"/>
            <glyph glyph-name="K" unicode="K" horiz-adv-x="660"
                   d="M82 706h120v-304h27l246 304h133l-262 -315h30q65 0 98 -28.5t62 -102.5l44 -109q15 -36 34.5 -72t33 -56t17.5 -23h-142q-9 9 -27 43t-31 68l-37 93q-23 62 -36 75q-20 22 -77 22h-113v-301h-120v706z"/>
            <glyph glyph-name="L" unicode="L" horiz-adv-x="567"
                   d="M539 0h-295q-76 0 -119 46t-43 120v540h120v-519q0 -44 20.5 -64.5t52.5 -20.5h282z"/>
            <glyph glyph-name="M" unicode="M" horiz-adv-x="894"
                   d="M193 0h-110v706h196l163 -512h2l173 512h194v-706h-120l1 614h-2l-206 -614h-96l-194 614h-2z"/>
            <glyph glyph-name="N" unicode="N" horiz-adv-x="757"
                   d="M83 706h145l337 -542v542h109v-706h-139l-343 548v-548h-109v706z"/>
            <glyph glyph-name="O" unicode="O" horiz-adv-x="866"
                   d="M54 353q1 173 105.5 269t274.5 96t274.5 -96.5t104.5 -268.5t-104.5 -268.5t-274.5 -96.5q-171 0 -276 96.5t-104 268.5zM187 353q0 -114 65.5 -185.5t181.5 -71.5q115 0 180.5 71.5t65.5 185.5t-65.5 185.5t-180.5 71.5q-116 0 -181.5 -71.5t-65.5 -185.5z"/>
            <glyph glyph-name="P" unicode="P" horiz-adv-x="697"
                   d="M83 706h369q105 0 160 -63t55 -157q0 -96 -58 -157.5t-170 -61.5l-151 1q-25 0 -43 8.5t-24.5 16t-17.5 22.5v-315h-120v706zM203 607v-171q0 -68 83 -68h127q61 0 92.5 32t31.5 87q0 120 -118 120h-216z"/>
            <glyph glyph-name="Q" unicode="Q" horiz-adv-x="860"
                   d="M810 353q0 -159 -89.5 -254.5t-240.5 -107.5v-27q0 -57 29 -94h-108q-26 40 -26 92v29q-149 15 -237 110.5t-87 251.5q1 173 105.5 269t273.5 96q170 0 275 -96t105 -269zM184 353q0 -98 49 -165t141 -84v96h105v-96q95 14 146.5 81.5t51.5 167.5q0 114 -65.5 185.5
t-181.5 71.5t-181 -71.5t-65 -185.5z"/>
            <glyph glyph-name="R" unicode="R" horiz-adv-x="725"
                   d="M83 706h372q108 0 164.5 -63t56.5 -150q0 -85 -52.5 -142.5t-126.5 -59.5q26 -5 46.5 -17t33 -24.5t24.5 -34t18 -36.5l16 -41.5t16 -40.5q31 -68 54 -97h-142q-19 19 -40 74q-5 12 -13.5 37.5t-13 37t-13.5 31.5t-16.5 29t-20 22t-26 19t-32 10.5t-41.5 4.5h-63
q-15 0 -27.5 2.5t-19 4.5t-13 8.5t-8.5 9t-7 11.5t-6 11v-312h-120v706zM203 607v-177q0 -68 83 -68h136q60 0 92 33t32 88q0 124 -128 124h-215z"/>
            <glyph glyph-name="S" unicode="S" horiz-adv-x="586"
                   d="M518 668l-42 -99q-76 50 -173 50q-127 0 -127 -81q0 -44 64 -78q8 -4 50 -23l82 -39q85 -40 125.5 -86.5t40.5 -122.5q0 -98 -72.5 -149.5t-183.5 -51.5q-126 0 -238 53l44 101q99 -54 193 -54q126 0 126 99q0 42 -30 69.5t-86 53.5l-83 39q-80 37 -121 79t-41 108
q0 90 72 136t179 46q115 0 221 -50z"/>
            <glyph glyph-name="T" unicode="T" horiz-adv-x="593"
                   d="M236 0v604h-227v102h575l-14 -102h-214v-604h-120z"/>
            <glyph glyph-name="U" unicode="U" horiz-adv-x="746"
                   d="M78 238v468h120v-453q0 -81 51 -120t128 -39q78 0 128 39t50 120v453h113v-468q0 -123 -82.5 -186.5t-208.5 -63.5q-58 0 -109 13.5t-95 41.5t-69.5 78t-25.5 117z"/>
            <glyph glyph-name="V" unicode="V" horiz-adv-x="654"
                   d="M265 0l-266 706h130l204 -571l202 571h121l-263 -706h-128z"/>
            <glyph glyph-name="W" unicode="W" horiz-adv-x="996"
                   d="M18 706h128l155 -543l145 543h116l149 -543l147 543h115l-208 -706h-121l-144 525l-146 -525h-119z"/>
            <glyph glyph-name="X" unicode="X" horiz-adv-x="631"
                   d="M314 312q-20 0 -35.5 -6t-24.5 -12.5t-19 -25.5t-14 -30l-15 -41l-67 -197h-129l95 262q24 65 45 92.5t59 32.5l-164 319h130l143 -299l144 299h124l-167 -319q37 -5 57 -33.5t44 -91.5l102 -262h-132l-68 197q-27 71 -41 87q-22 28 -67 28z"/>
            <glyph glyph-name="Y" unicode="Y" horiz-adv-x="610"
                   d="M57 467v239h116v-222q0 -60 35.5 -90.5t99.5 -30.5t98 30.5t34 89.5v223h111v-245q0 -85 -47.5 -134.5t-134.5 -59.5v-267h-120v266q-93 9 -142.5 59.5t-49.5 141.5z"/>
            <glyph glyph-name="Z" unicode="Z" horiz-adv-x="622"
                   d="M568 0h-543q0 125 45.5 208t166.5 182l34 27.5t36.5 30l31 27t33.5 31.5l26 29t26 34.5t18 34.5h-383v102h539q-3 -115 -63.5 -196t-186.5 -175q-79 -61 -123.5 -112t-55.5 -120h399v-103z"/>
            <glyph glyph-name="bracketleft" unicode="[" horiz-adv-x="351"
                   d="M92 -184v890h246v-84h-133v-722h133v-84h-246z"/>
            <glyph glyph-name="backslash" unicode="\" horiz-adv-x="355"
                   d="M340 25l-103 -35l-242 697l103 34z"/>
            <glyph glyph-name="bracketright" unicode="]" horiz-adv-x="346"
                   d="M262 706v-890h-246v85h133v720h-133v85h246z"/>
            <glyph glyph-name="asciicircum" unicode="^" horiz-adv-x="800"
                   d="M439 706l243 -228h-143l-139 133l-139 -133h-143l244 228h77z"/>
            <glyph glyph-name="underscore" unicode="_" horiz-adv-x="500"
                   d="M0 -125h500v-80h-500v80z"/>
            <glyph glyph-name="grave" unicode="`" horiz-adv-x="500"
                   d="M268 602l-134 151h138l92 -151h-96z"/>
            <glyph glyph-name="a" unicode="a" horiz-adv-x="683"
                   d="M615 255v-255h-109v84q-71 -92 -199 -92q-115 0 -191 74t-76 194t81 197t206 77q132 0 210 -76t78 -203zM497 262q0 78 -47 126.5t-124 48.5q-76 0 -123 -50.5t-47 -124.5q0 -76 46.5 -125t123.5 -49t124 48t47 126z"/>
            <glyph glyph-name="b" unicode="b" horiz-adv-x="676"
                   d="M66 278v428h111v-258q29 38 79.5 62t114.5 24q117 0 191 -75t74 -197q0 -117 -80.5 -194t-201.5 -77q-132 0 -210 77t-78 210zM179 263q0 -78 47 -126.5t124 -48.5q76 0 123 50.5t47 124.5q0 76 -46.5 125t-123.5 49t-124 -48t-47 -126z"/>
            <glyph glyph-name="c" unicode="c" horiz-adv-x="480"
                   d="M40 263q0 122 75 196.5t197 74.5q81 0 149 -35l-37 -88q-47 29 -99 29q-74 0 -121 -48t-47 -129q0 -79 46 -129t129 -49q58 1 102 28l-8 -99q-51 -23 -116 -23q-122 0 -196 74.5t-74 197.5z"/>
            <glyph glyph-name="d" unicode="d" horiz-adv-x="683"
                   d="M610 706v-426q0 -133 -78 -211t-210 -78q-122 0 -202 77t-80 195q0 122 76 196.5t194 74.5q62 0 111.5 -23t77.5 -61v256h111zM497 263q0 78 -47 126t-124 48t-123.5 -49t-46.5 -125q0 -74 47 -124.5t123 -50.5q77 0 124 48.5t47 126.5z"/>
            <glyph glyph-name="e" unicode="e" horiz-adv-x="616"
                   d="M40 267q0 117 77 192t197 75q128 0 198 -80.5t69 -214.5h-421q6 -79 59 -119t127 -40q66 0 117 29l-7 -94q-52 -24 -131 -24q-127 0 -206 76t-79 200zM316 449q-61 0 -102 -34.5t-54 -93.5h301q-8 61 -46.5 94.5t-98.5 33.5z"/>
            <glyph glyph-name="f" unicode="f" horiz-adv-x="300"
                   d="M179 0h-111v533q0 86 48.5 132t136.5 46q43 0 91 -13l-19 -84q-25 9 -58 9q-85 0 -85 -76v-27h131l-15 -88h-119v-432z"/>
            <glyph glyph-name="g" unicode="g" horiz-adv-x="683"
                   d="M323 534q134 0 213 -76t79 -207v-132q0 -97 -21 -160.5t-94 -142.5h-137q65 53 101.5 115t42.5 155q-30 -45 -83.5 -69.5t-116.5 -24.5q-116 0 -191.5 74.5t-75.5 194.5q0 121 82 197t201 76zM497 262q0 78 -47 126.5t-124 48.5q-76 0 -123 -50.5t-47 -124.5
q0 -76 46.5 -125t123.5 -49t124 48t47 126z"/>
            <glyph glyph-name="h" unicode="h"
                   d="M68 0v706h111v-239q51 67 153 67q100 0 154 -54.5t54 -159.5v-320h-111v306q0 135 -118 135q-59 0 -95.5 -33.5t-36.5 -96.5v-311h-111z"/>
            <glyph glyph-name="i" unicode="i" horiz-adv-x="248"
                   d="M68 525h112v-525h-112v525zM68 706h112v-96h-112v96z"/>
            <glyph glyph-name="j" unicode="j" horiz-adv-x="250"
                   d="M70 525h112v-329q0 -68 -10.5 -132t-26 -107t-30.5 -76.5t-25 -48.5l-11 -16h-123q5 6 12.5 18t27 50t34.5 79.5t27.5 104t12.5 125.5v332zM70 706h112v-96h-112v96z"/>
            <glyph glyph-name="k" unicode="k" horiz-adv-x="520"
                   d="M68 706h112v-399h19l175 218h124l-184 -222h16q48 0 69.5 -20t39.5 -70l28 -88q31 -87 58 -125h-125q-19 42 -33 83l-27 83q-12 35 -25.5 48.5t-44.5 13.5h-90v-228h-112v706z"/>
            <glyph glyph-name="l" unicode="l" horiz-adv-x="248"
                   d="M68 706h112v-706h-112v706z"/>
            <glyph glyph-name="m" unicode="m" horiz-adv-x="919"
                   d="M457 428h4q20 52 69.5 79t111.5 27q98 0 154 -53.5t56 -152.5v-328h-111v308q0 61 -28.5 95t-84.5 34q-114 0 -114 -130v-307h-109v307q0 130 -114 130q-56 0 -84 -34.5t-28 -94.5v-308h-111v328q0 99 56 152.5t153 53.5q62 0 110.5 -27t69.5 -79z"/>
            <glyph glyph-name="n" unicode="n"
                   d="M304 437q-62 0 -93.5 -35t-31.5 -100v-302h-111v320q0 104 64 158.5t172 54.5t172 -54.5t64 -158.5v-320h-111v302q0 65 -31.5 100t-93.5 35z"/>
            <glyph glyph-name="o" unicode="o" horiz-adv-x="655"
                   d="M40 262q0 125 83.5 199t203.5 73q125 -1 205.5 -73.5t81.5 -198.5q0 -126 -80.5 -198.5t-206.5 -72.5q-125 0 -206 72.5t-81 198.5zM157 262q0 -79 47.5 -126.5t122.5 -47.5t123 47.5t47 126.5t-48.5 127t-121.5 48q-71 1 -120.5 -47.5t-49.5 -127.5z"/>
            <glyph glyph-name="p" unicode="p" horiz-adv-x="678"
                   d="M68 -181v444q0 120 77 195.5t207 75.5q124 0 204.5 -76.5t80.5 -196.5q0 -119 -74 -194.5t-189 -75.5q-130 0 -195 88v-260h-111zM180 262q0 -77 47.5 -125.5t124.5 -48.5t123.5 49t46.5 125q0 74 -47 124.5t-123 50.5q-77 0 -124.5 -48.5t-47.5 -126.5z"/>
            <glyph glyph-name="q" unicode="q" horiz-adv-x="678"
                   d="M610 262v-443h-111v260q-65 -88 -195 -88q-115 0 -189.5 75.5t-74.5 194.5q0 120 80.5 196.5t204.5 76.5q130 0 207.5 -76t77.5 -196zM497 262q0 78 -47 126.5t-124 48.5q-76 0 -123 -50.5t-47 -124.5q0 -76 46.5 -125t123.5 -49t124 48t47 126z"/>
            <glyph glyph-name="r" unicode="r" horiz-adv-x="365"
                   d="M364 519l-24 -95q-36 12 -60 12q-57 0 -79 -33t-22 -101v-302h-111v322q0 212 209 212q27 0 87 -15z"/>
            <glyph glyph-name="s" unicode="s" horiz-adv-x="453"
                   d="M33 31l36 90q78 -42 148 -42q83 0 83 64q0 29 -22 47t-69 40l-43 20q-31 14 -51 25.5t-40.5 29t-30.5 40t-10 51.5q0 70 54 104t137 34q94 0 178 -40l-38 -88q-64 41 -134 41q-82 0 -82 -50q0 -6 1.5 -11t5 -9.5l6.5 -8.5t9.5 -8l11 -7t13 -7t13 -6.5t14.5 -7t15 -6.5
l43 -20q67 -32 101 -67t34 -95q0 -75 -56 -114t-141 -39q-97 0 -186 40z"/>
            <glyph glyph-name="t" unicode="t" horiz-adv-x="293"
                   d="M60 268v393l112 44v-185h107l-16 -88h-91v-166q0 -21 2 -41.5t7.5 -40l10 -35t13 -33.5l14 -29t16 -27.5t14 -22.5t14 -21t11.5 -16h-124q-1 1 -12.5 19t-16.5 27l-16.5 30t-17.5 39t-13 43t-10.5 52.5t-3.5 57.5z"/>
            <glyph glyph-name="u" unicode="u"
                   d="M304 88q62 0 93.5 35t31.5 100v302h111v-320q0 -104 -64 -159t-172 -55t-172 55t-64 159v320h111v-302q0 -65 31.5 -100t93.5 -35z"/>
            <glyph glyph-name="v" unicode="v" horiz-adv-x="494"
                   d="M190 0l-174 485q-14 39 -14 40h120l130 -411l130 411h110l-189 -525h-113z"/>
            <glyph glyph-name="w" unicode="w" horiz-adv-x="919"
                   d="M462 97h-3q-21 -52 -70.5 -79t-111.5 -27q-97 0 -153 53.5t-56 152.5v328h111v-307q0 -62 28 -96t84 -34q114 0 114 130v307h109v-307q0 -130 115 -130q56 0 84 34.5t28 95.5v307h111v-328q0 -99 -56 -152.5t-154 -53.5q-61 0 -110 27t-70 79z"/>
            <glyph glyph-name="x" unicode="x" horiz-adv-x="532"
                   d="M407 0l-65 166q-22 55 -75 55q-56 0 -77 -55l-66 -166h-117l79 199q16 43 33.5 63t45.5 26l-126 237h123l105 -225l105 225h117l-127 -237q28 -6 45.5 -26t34.5 -63l83 -199h-118z"/>
            <glyph glyph-name="y" unicode="y"
                   d="M445 -184h-133q5 4 12.5 11.5t27 33t35 52.5t29 68t14.5 82q-52 -72 -155 -72q-98 0 -152.5 52t-54.5 160v322h111v-297q0 -140 117 -140q71 0 102 39.5t31 98.5v299h111v-453q0 -68 -24 -132t-48 -94z"/>
            <glyph glyph-name="z" unicode="z" horiz-adv-x="478"
                   d="M318 437h-279v88h414q0 -85 -37.5 -143.5t-114.5 -119.5q-63 -50 -97.5 -90t-42.5 -84h276v-88h-416q1 56 14 101t39.5 82.5t53.5 63.5t70 61q52 41 80 69.5t40 59.5z"/>
            <glyph glyph-name="braceleft" unicode="{" horiz-adv-x="362"
                   d="M120 -30v170q0 33 -19.5 56t-57.5 23v86q38 0 57.5 23t19.5 56v172q0 78 37.5 114t127.5 36h77v-85h-53q-77 0 -77 -85v-174q0 -42 -18 -65.5t-61 -34.5q44 -12 61.5 -35.5t17.5 -65.5v-169q0 -50 23 -70.5t55 -20.5h52v-85h-76q-89 0 -127.5 38t-38.5 116z"/>
            <glyph glyph-name="bar" unicode="|" horiz-adv-x="500"
                   d="M204 764h92v-1000h-92v1000z"/>
            <glyph glyph-name="braceright" unicode="}" horiz-adv-x="362"
                   d="M242 140v-170q0 -78 -38.5 -116t-127.5 -38h-76v85h52q32 0 55 20.5t23 70.5v169q0 42 17.5 65.5t61.5 35.5q-43 11 -61 34.5t-18 65.5v174q0 85 -77 85h-53v85h77q90 0 127.5 -36t37.5 -114v-172q0 -33 19.5 -56t57.5 -23v-86q-38 0 -57.5 -23t-19.5 -56z"/>
            <glyph glyph-name="asciitilde" unicode="~" horiz-adv-x="821"
                   d="M670 430l36 -95q-87 -63 -170 -63q-14 0 -26.5 1.5t-29 6.5t-22 6.5t-26.5 9.5l-22 8q-80 28 -124 28q-35 0 -64 -11.5t-72 -42.5l-35 94q89 65 174 65q47 0 128 -29q85 -31 120 -31t63.5 11.5t69.5 41.5z"/>
            <glyph glyph-name="nbspace" unicode="&#xa0;" horiz-adv-x="317"
            />
            <glyph glyph-name="exclamdown" unicode="&#xa1;" horiz-adv-x="255"
                   d="M78 291l97 1l13 -473h-123zM60 385v140h134v-140h-62h-72z"/>
            <glyph glyph-name="cent" unicode="&#xa2;" horiz-adv-x="513"
                   d="M450 190l-9 -102q-43 -19 -97 -21v-92h-72v94q-103 16 -163 88t-60 179q0 111 59.5 182.5t163.5 85.5v77h72v-75q76 -3 130 -32l-36 -89q-40 26 -94 28v-354q63 0 106 31zM272 175v326q-52 -15 -79 -59.5t-27 -105.5q0 -58 27.5 -100.5t78.5 -60.5z"/>
            <glyph glyph-name="sterling" unicode="&#xa3;" horiz-adv-x="602"
                   d="M53 0v101q43 0 73 1.5t61.5 8t51 17.5t32 31t12.5 48q0 52 -73 121h-157v64h98q-64 62 -64 145q0 47 22.5 83.5t58.5 56.5t76 30t81 10q120 0 201 -50l-43 -88q-77 41 -147 41q-51 0 -86 -23.5t-35 -66.5q0 -26 18 -55.5t29.5 -41.5t41.5 -41h217l-9 -64h-156
q43 -55 44 -97q1 -86 -86 -129h243l-16 -102h-488z"/>
            <glyph glyph-name="currency" unicode="&#xa4;" horiz-adv-x="611"
                   d="M166 352q0 -57 41.5 -98.5t99.5 -41.5q57 0 97.5 41.5t40.5 98.5q0 58 -40.5 99.5t-97.5 41.5q-58 0 -99.5 -41.5t-41.5 -99.5zM73 352q0 71 38 126l-67 71l67 60l63 -67q59 43 133 43q70 0 131 -43l63 67l66 -60l-66 -71q38 -59 38 -126t-38 -126l66 -71l-66 -62l-63 69
q-60 -42 -131 -42q-75 0 -133 42l-63 -68l-67 61l67 71q-38 55 -38 126z"/>
            <glyph glyph-name="yen" unicode="&#xa5;" horiz-adv-x="604"
                   d="M112 131h134v40h-134v60h134v35q-88 3 -139.5 56t-51.5 145v239h116v-222q0 -60 35 -90.5t99 -30.5q65 0 99 31t34 89v223h111v-245q1 -88 -48.5 -139t-133.5 -55v-36h134v-60h-134v-40h134v-59h-134v-72h-121v72h-134v59z"/>
            <glyph glyph-name="brokenbar" unicode="&#xa6;" horiz-adv-x="500"
                   d="M204 699h92v-370h-92v370zM204 199h92v-370h-41h-51v370z"/>
            <glyph glyph-name="section" unicode="&#xa7;" horiz-adv-x="600"
                   d="M532 210q0 -89 -88 -141q59 -48 59 -128q0 -88 -56.5 -127.5t-140.5 -39.5q-104 0 -209 57l38 85q85 -57 171 -57q39 0 68.5 18.5t29.5 59.5q0 21 -6 36.5t-20.5 27.5t-26.5 18.5t-36 18.5l-112 54q-75 36 -105 81.5t-30 106.5q0 91 90 142q-59 45 -59 129t58 125.5
t152 41.5q90 0 181 -49l-37 -83q-76 47 -144 47q-45 0 -78 -18.5t-33 -61.5q0 -21 5.5 -36t21 -27.5t25 -18t35.5 -18.5l112 -55q76 -38 105.5 -83t29.5 -105zM341 322l-124 63q-49 -39 -49 -101q0 -40 20.5 -66t70.5 -50l123 -61q51 36 51 99q0 39 -21.5 66t-70.5 50z"/>
            <glyph glyph-name="dieresis" unicode="&#xa8;" horiz-adv-x="500"
                   d="M92 625v105h104v-105h-50h-54zM304 625v105h105v-105h-105z"/>
            <glyph glyph-name="copyright" unicode="&#xa9;" horiz-adv-x="713"
                   d="M63 353q0 121 86 207t207 86t207 -86t86 -207t-86 -207t-207 -86t-207 86t-86 207zM129 353q0 -94 66.5 -161t160.5 -67t161 66.5t67 161.5t-67 161.5t-161 66.5t-160.5 -67t-66.5 -161zM444 264l-1 -66q-31 -14 -71 -14q-76 0 -123.5 45.5t-47.5 120.5q0 76 48 121.5
t123 45.5q56 0 93 -23l-31 -57q-20 17 -58 17q-45 0 -73.5 -28t-28.5 -76t30.5 -75.5t75.5 -27.5q39 0 64 17z"/>
            <glyph glyph-name="ordfeminine" unicode="&#xaa;" horiz-adv-x="450"
                   d="M398 540v-158h-75v51q-12 -23 -43.5 -39.5t-71.5 -16.5q-76 0 -126 45.5t-50 120.5q0 76 51.5 122.5t132.5 46.5q82 0 132 -47t50 -125zM314 545q0 45 -27 73t-72 28t-72 -28t-27 -73q0 -46 27 -74.5t72 -28.5t72 28.5t27 74.5z"/>
            <glyph glyph-name="guillemotleft" unicode="&#xab;" horiz-adv-x="645"
                   d="M319 393l-177 -128l177 -128v-117l-279 201v88l279 201v-117zM595 393l-176 -128l176 -128v-59v-58l-279 201v88l279 201v-117z"/>
            <glyph glyph-name="logicalnot" unicode="&#xac;" horiz-adv-x="833"
                   d="M696 407v-310h-106v203h-452v107h558z"/>
            <glyph glyph-name="uni00AD" unicode="&#xad;" horiz-adv-x="410"
                   d="M41 334h329v-118h-329v118z"/>
            <glyph glyph-name="registered" unicode="&#xae;" horiz-adv-x="687"
                   d="M235 594h144q43 0 66.5 -26.5t23.5 -62.5q0 -34 -22.5 -56t-52.5 -23q11 -1 20 -6t15.5 -15.5t10.5 -19.5t10 -25.5t10 -24.5q15 -30 20 -35h-69q-5 7 -14 31l-6.5 19.5t-7 19t-7 14.5t-9.5 13t-12.5 7t-17.5 3h-15q-18 0 -27 15v-121h-60v293zM295 545v-62
q0 -16 7.5 -22t29.5 -6h24q25 0 38.5 12t13.5 33q0 27 -13.5 36t-42.5 9h-57zM63 447q0 115 82.5 197.5t198.5 82.5t198 -82.5t82 -197.5t-82 -197.5t-198 -82.5t-198.5 82.5t-82.5 197.5zM128 447q0 -89 63.5 -152.5t152.5 -63.5t152 63.5t63 152.5t-63 152.5t-152 63.5
t-152.5 -63.5t-63.5 -152.5z"/>
            <glyph glyph-name="macron" unicode="&#xaf;" horiz-adv-x="500"
                   d="M100 638v77h300v-77h-300z"/>
            <glyph glyph-name="degree" unicode="&#xb0;" horiz-adv-x="429"
                   d="M28 532q0 77 54.5 131.5t131.5 54.5t131.5 -54.5t54.5 -131.5t-54.5 -131.5t-131.5 -54.5t-131.5 54.5t-54.5 131.5zM106 532q0 -45 31.5 -77t76.5 -32t77 32t32 77t-32 77t-77 32t-76.5 -32t-31.5 -77z"/>
            <glyph glyph-name="plusminus" unicode="&#xb1;" horiz-adv-x="833"
                   d="M690 355h-214v-217h-109v217h-214v106h214v215h109v-215h214v-106zM690 -15h-537v106h537v-106z"/>
            <glyph glyph-name="twosuperior" unicode="&#xb2;" horiz-adv-x="410"
                   d="M351 251h-320q0 66 27 97q6 39 29 68.5t52 47l57 33t47 36t19 47.5q0 55 -78 55q-58 0 -112 -34l-31 71q67 40 152 40q72 0 120.5 -31t48.5 -99q0 -41 -22.5 -72.5t-55.5 -51t-66.5 -37t-59.5 -40.5t-31 -51h229z"/>
            <glyph glyph-name="threesuperior" unicode="&#xb3;" horiz-adv-x="374"
                   d="M191 257h-153q75 29 134 69.5t59 85.5q0 25 -20.5 41.5t-61.5 16.5h-68v66h55q33 0 50 16.5t17 38.5q0 55 -73 55q-43 0 -93 -21l-22 69q59 24 126 24q68 0 113.5 -26t45.5 -85q0 -38 -24 -62t-60 -31q49 0 82.5 -28.5t33.5 -73.5q0 -84 -141 -155z"/>
            <glyph glyph-name="acute" unicode="&#xb4;" horiz-adv-x="500"
                   d="M364 751l-132 -149h-96l89 149h139z"/>
            <glyph glyph-name="mu" unicode="&#xb5;" horiz-adv-x="596"
                   d="M415 225v302h111v-527h-111v53q-15 -21 -44.5 -40t-73.5 -19q-32 0 -57.5 9.5t-36 18.5t-24.5 24v-230h-111v711h111v-302q0 -64 31 -100.5t87 -36.5t87 36.5t31 100.5z"/>
            <glyph glyph-name="paragraph" unicode="&#xb6;" horiz-adv-x="693"
                   d="M637 706v-77h-68v-775h-89v775h-91v-775h-89v420q-103 4 -169 64t-66 155q0 110 66.5 161.5t183.5 51.5h322z"/>
            <glyph glyph-name="periodcentered" unicode="&#xb7;" horiz-adv-x="252"
                   d="M59 270v135h134v-135h-134z"/>
            <glyph glyph-name="cedilla" unicode="&#xb8;" horiz-adv-x="500"
                   d="M202 5h71l-13 -66q19 -2 38 -9t38.5 -30t19.5 -58q0 -38 -22.5 -68t-56 -46.5t-56.5 -24.5t-40 -11l-20 57q100 37 100 85q0 28 -24.5 41.5t-58.5 12.5z"/>
            <glyph glyph-name="onesuperior" unicode="&#xb9;" horiz-adv-x="331"
                   d="M158 253v358l-77 -61l-43 60l117 96h90v-453h-87z"/>
            <glyph glyph-name="ordmasculine" unicode="&#xba;" horiz-adv-x="428"
                   d="M32 545q0 79 51 123t131 44t131.5 -44t51.5 -123t-51.5 -123.5t-131.5 -44.5q-79 0 -130.5 44.5t-51.5 123.5zM117 545q0 -45 27.5 -73.5t69.5 -28.5t69.5 28.5t27.5 73.5q0 46 -27 73.5t-70 27.5t-70 -27.5t-27 -73.5z"/>
            <glyph glyph-name="guillemotright" unicode="&#xbb;" horiz-adv-x="638"
                   d="M219 265l-176 128v117l279 -201v-88l-279 -201v117zM496 265l-176 128v117l279 -201v-88l-279 -201v64v53z"/>
            <glyph glyph-name="onequarter" unicode="&#xbc;" horiz-adv-x="885"
                   d="M281 -12l-70 35l327 694l72 -30zM158 253v358l-77 -61l-43 60l117 96h90v-453h-87zM685 134h-181l-28 69l182 251h113v-249h56l-8 -71h-48v-134h-86v134zM685 381l-127 -176h127v176z"/>
            <glyph glyph-name="onehalf" unicode="&#xbd;" horiz-adv-x="924"
                   d="M281 -12l-70 35l327 694l72 -30zM843 0h-316v31q0 57 24 99t58 65t68 41.5t58 41t24 51.5q0 55 -78 55q-59 0 -112 -34l-31 71q65 40 152 40q72 0 120.5 -31t48.5 -99q0 -41 -22.5 -72.5t-56 -51t-67 -37t-59.5 -40.5t-31 -51h231zM158 253v358l-77 -61l-43 60l117 96h90
v-453h-87z"/>
            <glyph glyph-name="threequarters" unicode="&#xbe;" horiz-adv-x="917"
                   d="M314 -12l-70 35l327 694l71 -30zM718 133h-181l-28 69l182 251h113v-248h56l-8 -72h-48v-133h-86v133zM718 380l-127 -175h127v175zM38 257q75 29 134 69.5t59 85.5q0 25 -20.5 41.5t-61.5 16.5h-68v66h55q33 0 50 16.5t17 38.5q0 55 -73 55q-43 0 -93 -21l-22 69
q59 24 126 24q68 0 113.5 -26t45.5 -85q0 -38 -24 -62t-60 -31q49 0 82.5 -28.5t33.5 -73.5q0 -84 -141 -155h-153z"/>
            <glyph glyph-name="questiondown" unicode="&#xbf;" horiz-adv-x="540"
                   d="M421 348v-156q-25 5 -66 5q-72 0 -123.5 -37t-51.5 -106q0 -65 45.5 -104.5t111.5 -39.5q99 0 173 60l49 -83q-99 -81 -236 -81q-118 0 -194.5 65t-76.5 179q0 105 71.5 166t179.5 67v65h118zM429 407h-134v118h134v-118z"/>
            <glyph glyph-name="Agrave" unicode="&#xc0;" horiz-adv-x="655"
                   d="M648 0h-128l-59 179h-276l-64 -179h-113l256 706h143zM217 276h213l-102 321zM285 773l-134 151h138l92 -151h-96z"/>
            <glyph glyph-name="Aacute" unicode="&#xc1;" horiz-adv-x="655"
                   d="M648 0h-128l-59 179h-276l-64 -179h-113l256 706h143zM217 276h213l-102 321zM521 922l-132 -149h-96l89 149h139z"/>
            <glyph glyph-name="Acircumflex" unicode="&#xc2;" horiz-adv-x="655"
                   d="M648 0h-128l-59 179h-276l-64 -179h-113l256 706h143zM217 276h213l-102 321zM327 863l-81 -90h-90l111 149h121l112 -149h-91z"/>
            <glyph glyph-name="Atilde" unicode="&#xc3;" horiz-adv-x="655"
                   d="M648 0h-128l-59 179h-276l-64 -179h-113l256 706h143zM217 276h213l-102 321zM224 784h-65q2 15 6 31t14.5 40.5t32 40t50.5 15.5q26 0 69.5 -21.5t60.5 -21.5q10 0 18 4.5t12 11.5t6 13.5t3 13t1 7.5h65q-2 -15 -6 -31.5t-14.5 -41t-31 -40.5t-47.5 -16q-28 0 -71 23.5
t-60 23.5q-11 0 -19 -4.5t-12 -12t-6.5 -14t-3.5 -14.5z"/>
            <glyph glyph-name="Adieresis" unicode="&#xc4;" horiz-adv-x="655"
                   d="M648 0h-128l-59 179h-276l-64 -179h-113l256 706h143zM217 276h213l-102 321zM170 796v105h104v-105h-50h-54zM382 796v105h105v-105h-105z"/>
            <glyph glyph-name="Aring" unicode="&#xc5;" horiz-adv-x="655"
                   d="M648 0h-128l-59 179h-276l-64 -179h-113l256 706h143zM217 276h213l-102 321zM197 895q0 55 38.5 93.5t93.5 38.5t94 -38.5t39 -93.5t-38.5 -93.5t-94.5 -38.5t-94 38t-38 94zM262 895q0 -28 19.5 -47.5t47.5 -19.5t47.5 19.5t19.5 47.5t-19.5 47.5t-47.5 19.5
t-47.5 -19.5t-19.5 -47.5z"/>
            <glyph glyph-name="AE" unicode="&#xc6;" horiz-adv-x="936"
                   d="M887 0h-316q-72 0 -108 39t-36 106v34h-235l-70 -179h-114l273 706h630l-18 -100h-348v-205h312l-18 -96h-294v-126q0 -44 17 -61.5t49 -17.5h294zM353 606l-127 -330h199v330h-72z"/>
            <glyph glyph-name="Ccedilla" unicode="&#xc7;" horiz-adv-x="643"
                   d="M51 354q1 168 104.5 266t267.5 98q110 0 196 -46l-49 -94q-63 34 -136 34q-115 0 -182.5 -71.5t-67.5 -186.5q0 -118 71 -189.5t189 -71.5q75 0 147 38l-11 -112q-68 -30 -158 -31l-10 -49q19 -2 38 -9t38.5 -30t19.5 -58q0 -38 -22.5 -68t-56 -46.5t-56.5 -24.5t-40 -11
l-19 57q99 37 99 85q0 28 -24.5 41.5t-58.5 12.5l21 105q-137 21 -219 116.5t-81 244.5z"/>
            <glyph glyph-name="Egrave" unicode="&#xc8;" horiz-adv-x="592"
                   d="M543 0h-306q-76 0 -115.5 43t-39.5 116v547h485l-18 -100h-347v-205h311l-17 -96h-294v-126q0 -44 17 -61.5t49 -17.5h293zM279 765l-134 151h138l92 -151h-96z"/>
            <glyph glyph-name="Eacute" unicode="&#xc9;" horiz-adv-x="592"
                   d="M543 0h-306q-76 0 -115.5 43t-39.5 116v547h485l-18 -100h-347v-205h311l-17 -96h-294v-126q0 -44 17 -61.5t49 -17.5h293zM505 914l-132 -149h-96l89 149h139z"/>
            <glyph glyph-name="Ecircumflex" unicode="&#xca;" horiz-adv-x="592"
                   d="M543 0h-306q-76 0 -115.5 43t-39.5 116v547h485l-18 -100h-347v-205h311l-17 -96h-294v-126q0 -44 17 -61.5t49 -17.5h293zM318 855l-81 -90h-90l111 149h121l112 -149h-91z"/>
            <glyph glyph-name="Edieresis" unicode="&#xcb;" horiz-adv-x="592"
                   d="M543 0h-306q-76 0 -115.5 43t-39.5 116v547h485l-18 -100h-347v-205h311l-17 -96h-294v-126q0 -44 17 -61.5t49 -17.5h293zM162 788v105h104v-105h-50h-54zM374 788v105h105v-105h-105z"/>
            <glyph glyph-name="Igrave" unicode="&#xcc;" horiz-adv-x="287"
                   d="M203 706v-706h-120v706h120zM102 765l-134 151h138l92 -151h-96z"/>
            <glyph glyph-name="Iacute" unicode="&#xcd;" horiz-adv-x="287"
                   d="M203 706v-706h-120v706h120zM328 914l-132 -149h-96l89 149h139z"/>
            <glyph glyph-name="Icircumflex" unicode="&#xce;" horiz-adv-x="287"
                   d="M203 706v-706h-120v706h120zM141 855l-81 -90h-90l111 149h121l112 -149h-91z"/>
            <glyph glyph-name="Idieresis" unicode="&#xcf;" horiz-adv-x="287"
                   d="M203 706v-706h-120v706h120zM-15 788v105h104v-105h-50h-54zM197 788v105h105v-105h-105z"/>
            <glyph glyph-name="Eth" unicode="&#xd0;" horiz-adv-x="814"
                   d="M-3 334v88h81v284l367 1q151 0 236.5 -102.5t85.5 -254.5q0 -162 -110 -261.5t-269 -99.5q-138 0 -224 65t-86 199v81h-81zM198 606v-184h155v-88h-155v-82q0 -73 55.5 -115t134.5 -41q112 0 179.5 73t66.5 182q0 105 -59 180.5t-163 75.5z"/>
            <glyph glyph-name="Ntilde" unicode="&#xd1;" horiz-adv-x="757"
                   d="M83 706h145l337 -542v542h109v-706h-139l-343 548v-548h-109v706zM278 776h-65q2 15 6 31t14.5 40.5t32 40t50.5 15.5q26 0 69.5 -21.5t60.5 -21.5q10 0 18 4.5t12 11.5t6 13.5t3 13t1 7.5h65q-2 -15 -6 -31.5t-14.5 -41t-31 -40.5t-47.5 -16q-28 0 -71 23.5t-60 23.5
q-11 0 -19 -4.5t-12 -12t-6.5 -14t-3.5 -14.5z"/>
            <glyph glyph-name="Ograve" unicode="&#xd2;" horiz-adv-x="866"
                   d="M54 353q1 173 105.5 269t274.5 96t274.5 -96.5t104.5 -268.5t-104.5 -268.5t-274.5 -96.5q-171 0 -276 96.5t-104 268.5zM187 353q0 -114 65.5 -185.5t181.5 -71.5q115 0 180.5 71.5t65.5 185.5t-65.5 185.5t-180.5 71.5q-116 0 -181.5 -71.5t-65.5 -185.5zM393 777
l-134 151h138l92 -151h-96z"/>
            <glyph glyph-name="Oacute" unicode="&#xd3;" horiz-adv-x="866"
                   d="M54 353q1 173 105.5 269t274.5 96t274.5 -96.5t104.5 -268.5t-104.5 -268.5t-274.5 -96.5q-171 0 -276 96.5t-104 268.5zM187 353q0 -114 65.5 -185.5t181.5 -71.5q115 0 180.5 71.5t65.5 185.5t-65.5 185.5t-180.5 71.5q-116 0 -181.5 -71.5t-65.5 -185.5zM619 926
l-132 -149h-96l89 149h139z"/>
            <glyph glyph-name="Ocircumflex" unicode="&#xd4;" horiz-adv-x="866"
                   d="M54 353q1 173 105.5 269t274.5 96t274.5 -96.5t104.5 -268.5t-104.5 -268.5t-274.5 -96.5q-171 0 -276 96.5t-104 268.5zM187 353q0 -114 65.5 -185.5t181.5 -71.5q115 0 180.5 71.5t65.5 185.5t-65.5 185.5t-180.5 71.5q-116 0 -181.5 -71.5t-65.5 -185.5zM432 867
l-81 -90h-90l111 149h121l112 -149h-91z"/>
            <glyph glyph-name="Otilde" unicode="&#xd5;" horiz-adv-x="866"
                   d="M54 353q1 173 105.5 269t274.5 96t274.5 -96.5t104.5 -268.5t-104.5 -268.5t-274.5 -96.5q-171 0 -276 96.5t-104 268.5zM187 353q0 -114 65.5 -185.5t181.5 -71.5q115 0 180.5 71.5t65.5 185.5t-65.5 185.5t-180.5 71.5q-116 0 -181.5 -71.5t-65.5 -185.5zM331 788h-65
q2 15 6 31t14.5 40.5t32 40t50.5 15.5q26 0 69.5 -21.5t60.5 -21.5q10 0 18 4.5t12 11.5t6 13.5t3 13t1 7.5h65q-2 -15 -6 -31.5t-14.5 -41t-31 -40.5t-47.5 -16q-28 0 -71 23.5t-60 23.5q-11 0 -19 -4.5t-12 -12t-6.5 -14t-3.5 -14.5z"/>
            <glyph glyph-name="Odieresis" unicode="&#xd6;" horiz-adv-x="866"
                   d="M54 353q1 173 105.5 269t274.5 96t274.5 -96.5t104.5 -268.5t-104.5 -268.5t-274.5 -96.5q-171 0 -276 96.5t-104 268.5zM187 353q0 -114 65.5 -185.5t181.5 -71.5q115 0 180.5 71.5t65.5 185.5t-65.5 185.5t-180.5 71.5q-116 0 -181.5 -71.5t-65.5 -185.5zM276 800v105
h104v-105h-50h-54zM488 800v105h105v-105h-105z"/>
            <glyph glyph-name="multiply" unicode="&#xd7;" horiz-adv-x="833"
                   d="M695 561l-204 -205l201 -204l-77 -78l-201 205l-201 -205l-75 75l202 204l-202 203l78 76l201 -202l203 205z"/>
            <glyph glyph-name="Oslash" unicode="&#xd8;" horiz-adv-x="860"
                   d="M810 673l-79 -79q79 -95 79 -241q0 -173 -105 -269t-275 -96q-146 0 -243 70l-79 -79l-58 54l79 78q-79 95 -78 242q1 173 105.5 269t273.5 96q145 0 243 -71l80 80zM677 353q0 86 -40 149l-362 -357q60 -49 155 -49q117 0 182 71.5t65 185.5zM184 353q0 -87 39 -150
l361 358q-62 49 -154 49q-116 0 -181 -71.5t-65 -185.5z"/>
            <glyph glyph-name="Ugrave" unicode="&#xd9;" horiz-adv-x="746"
                   d="M78 238v468h120v-453q0 -81 51 -120t128 -39q78 0 128 39t50 120v453h113v-468q0 -123 -82.5 -186.5t-208.5 -63.5q-58 0 -109 13.5t-95 41.5t-69.5 78t-25.5 117zM335 765l-134 151h138l92 -151h-96z"/>
            <glyph glyph-name="Uacute" unicode="&#xda;" horiz-adv-x="746"
                   d="M78 238v468h120v-453q0 -81 51 -120t128 -39q78 0 128 39t50 120v453h113v-468q0 -123 -82.5 -186.5t-208.5 -63.5q-58 0 -109 13.5t-95 41.5t-69.5 78t-25.5 117zM561 914l-132 -149h-96l89 149h139z"/>
            <glyph glyph-name="Ucircumflex" unicode="&#xdb;" horiz-adv-x="746"
                   d="M78 238v468h120v-453q0 -81 51 -120t128 -39q78 0 128 39t50 120v453h113v-468q0 -123 -82.5 -186.5t-208.5 -63.5q-58 0 -109 13.5t-95 41.5t-69.5 78t-25.5 117zM374 855l-81 -90h-90l111 149h121l112 -149h-91z"/>
            <glyph glyph-name="Udieresis" unicode="&#xdc;" horiz-adv-x="746"
                   d="M78 238v468h120v-453q0 -81 51 -120t128 -39q78 0 128 39t50 120v453h113v-468q0 -123 -82.5 -186.5t-208.5 -63.5q-58 0 -109 13.5t-95 41.5t-69.5 78t-25.5 117zM218 788v105h104v-105h-50h-54zM430 788v105h105v-105h-105z"/>
            <glyph glyph-name="Yacute" unicode="&#xdd;" horiz-adv-x="610"
                   d="M57 467v239h116v-222q0 -60 35.5 -90.5t99.5 -30.5t98 30.5t34 89.5v223h111v-245q0 -85 -47.5 -134.5t-134.5 -59.5v-267h-120v266q-93 9 -142.5 59.5t-49.5 141.5zM492 914l-132 -149h-96l89 149h139z"/>
            <glyph glyph-name="Thorn" unicode="&#xde;" horiz-adv-x="697"
                   d="M203 706v-122h249q105 0 160 -63t55 -157q0 -96 -58 -157.5t-170 -61.5l-151 1q-25 0 -43 8.5t-24.5 16t-17.5 22.5v-193h-120v706h120zM419 485h-216v-171q0 -68 83 -68h127q61 0 92.5 32t31.5 87q0 120 -118 120z"/>
            <glyph glyph-name="germandbls" unicode="&#xdf;" horiz-adv-x="653"
                   d="M68 0v493q0 218 243 218q43 0 81 -8.5t72 -26.5t54 -52t20 -80q0 -41 -21.5 -75t-60.5 -47q73 -14 113.5 -69t40.5 -135q0 -108 -62.5 -166.5t-173.5 -58.5q-82 0 -138 30l-2 106q58 -46 128 -46q61 0 95.5 35.5t34.5 100.5q0 67 -42 104.5t-114 37.5h-97v88h79
q43 0 74 21.5t31 63.5q0 39 -27 64.5t-87 25.5q-132 0 -132 -125v-499h-109z"/>
            <glyph glyph-name="agrave" unicode="&#xe0;" horiz-adv-x="683"
                   d="M615 255v-255h-109v84q-71 -92 -199 -92q-115 0 -191 74t-76 194t81 197t206 77q132 0 210 -76t78 -203zM497 262q0 78 -47 126.5t-124 48.5q-76 0 -123 -50.5t-47 -124.5q0 -76 46.5 -125t123.5 -49t124 48t47 126zM290 602l-134 151h138l92 -151h-96z"/>
            <glyph glyph-name="aacute" unicode="&#xe1;" horiz-adv-x="683"
                   d="M615 255v-255h-109v84q-71 -92 -199 -92q-115 0 -191 74t-76 194t81 197t206 77q132 0 210 -76t78 -203zM497 262q0 78 -47 126.5t-124 48.5q-76 0 -123 -50.5t-47 -124.5q0 -76 46.5 -125t123.5 -49t124 48t47 126zM515 751l-132 -149h-96l89 149h139z"/>
            <glyph glyph-name="acircumflex" unicode="&#xe2;" horiz-adv-x="683"
                   d="M615 255v-255h-109v84q-71 -92 -199 -92q-115 0 -191 74t-76 194t81 197t206 77q132 0 210 -76t78 -203zM497 262q0 78 -47 126.5t-124 48.5q-76 0 -123 -50.5t-47 -124.5q0 -76 46.5 -125t123.5 -49t124 48t47 126zM329 692l-81 -90h-90l111 149h121l112 -149h-91z"/>
            <glyph glyph-name="atilde" unicode="&#xe3;" horiz-adv-x="683"
                   d="M615 255v-255h-109v84q-71 -92 -199 -92q-115 0 -191 74t-76 194t81 197t206 77q132 0 210 -76t78 -203zM497 262q0 78 -47 126.5t-124 48.5q-76 0 -123 -50.5t-47 -124.5q0 -76 46.5 -125t123.5 -49t124 48t47 126zM227 613h-65q2 15 6 31t14.5 40.5t32 40t50.5 15.5
q26 0 69.5 -21.5t60.5 -21.5q10 0 18 4.5t12 11.5t6 13.5t3 13t1 7.5h65q-2 -15 -6 -31.5t-14.5 -41t-31 -40.5t-47.5 -16q-28 0 -71 23.5t-60 23.5q-11 0 -19 -4.5t-12 -12t-6.5 -14t-4.5 -14.5z"/>
            <glyph glyph-name="adieresis" unicode="&#xe4;" horiz-adv-x="683"
                   d="M615 255v-255h-109v84q-71 -92 -199 -92q-115 0 -191 74t-76 194t81 197t206 77q132 0 210 -76t78 -203zM497 262q0 78 -47 126.5t-124 48.5q-76 0 -123 -50.5t-47 -124.5q0 -76 46.5 -125t123.5 -49t124 48t47 126zM173 625v105h104v-105h-50h-54zM385 625v105h105v-105
h-105z"/>
            <glyph glyph-name="aring" unicode="&#xe5;" horiz-adv-x="683"
                   d="M615 255v-255h-109v84q-71 -92 -199 -92q-115 0 -191 74t-76 194t81 197t206 77q132 0 210 -76t78 -203zM497 262q0 78 -47 126.5t-124 48.5q-76 0 -123 -50.5t-47 -124.5q0 -76 46.5 -125t123.5 -49t124 48t47 126zM199 724q0 55 38.5 93.5t93.5 38.5t94 -38.5t39 -93.5
t-38.5 -93.5t-94.5 -38.5q-55 0 -93.5 38t-38.5 94zM264 724q0 -28 19 -47.5t48 -19.5t48 19.5t19 47.5t-19 47.5t-48 19.5t-48 -19.5t-19 -47.5z"/>
            <glyph glyph-name="ae" unicode="&#xe6;" horiz-adv-x="1073"
                   d="M921 109l-8 -94q-51 -24 -128 -24q-115 0 -187 70v-61h-92v84q-71 -92 -199 -92q-115 0 -191 74t-76 194t78 197t200 77q161 0 234 -116q34 54 92.5 85t130.5 31q127 0 196 -80.5t67 -214.5h-420q6 -81 59 -120t126 -39q66 0 118 29zM497 262q0 78 -47 126.5t-124 48.5
q-76 0 -123 -50.5t-47 -124.5q0 -76 46.5 -125t123.5 -49t124 48t47 126zM773 449q-60 0 -101 -34.5t-54 -93.5h300q-8 61 -46.5 94.5t-98.5 33.5z"/>
            <glyph glyph-name="ccedilla" unicode="&#xe7;" horiz-adv-x="480"
                   d="M40 263q0 122 75 196.5t197 74.5q81 0 149 -35l-37 -88q-47 29 -99 29q-74 0 -121 -48t-47 -129q0 -79 46 -129t129 -49q58 1 102 28l-8 -99q-49 -23 -118 -23l-9 -46q19 -2 38 -9.5t38.5 -30.5t19.5 -58q0 -38 -22.5 -68t-56 -46.5t-56.5 -24.5t-40 -11l-20 58
q27 10 43.5 17.5t36.5 26t20 40.5q0 28 -24.5 41.5t-58.5 12.5l21 105q-92 20 -145 90.5t-53 174.5z"/>
            <glyph glyph-name="egrave" unicode="&#xe8;" horiz-adv-x="616"
                   d="M40 267q0 117 77 192t197 75q128 0 198 -80.5t69 -214.5h-421q6 -79 59 -119t127 -40q66 0 117 29l-7 -94q-52 -24 -131 -24q-127 0 -206 76t-79 200zM316 449q-61 0 -102 -34.5t-54 -93.5h301q-8 61 -46.5 94.5t-98.5 33.5zM272 602l-134 151h138l92 -151h-96z"/>
            <glyph glyph-name="eacute" unicode="&#xe9;" horiz-adv-x="616"
                   d="M40 267q0 117 77 192t197 75q128 0 198 -80.5t69 -214.5h-421q6 -79 59 -119t127 -40q66 0 117 29l-7 -94q-52 -24 -131 -24q-127 0 -206 76t-79 200zM316 449q-61 0 -102 -34.5t-54 -93.5h301q-8 61 -46.5 94.5t-98.5 33.5zM498 751l-132 -149h-96l89 149h139z"/>
            <glyph glyph-name="ecircumflex" unicode="&#xea;" horiz-adv-x="616"
                   d="M40 267q0 117 77 192t197 75q128 0 198 -80.5t69 -214.5h-421q6 -79 59 -119t127 -40q66 0 117 29l-7 -94q-52 -24 -131 -24q-127 0 -206 76t-79 200zM316 449q-61 0 -102 -34.5t-54 -93.5h301q-8 61 -46.5 94.5t-98.5 33.5zM312 692l-81 -90h-90l111 149h121l112 -149
h-91z"/>
            <glyph glyph-name="edieresis" unicode="&#xeb;" horiz-adv-x="616"
                   d="M40 267q0 117 77 192t197 75q128 0 198 -80.5t69 -214.5h-421q6 -79 59 -119t127 -40q66 0 117 29l-7 -94q-52 -24 -131 -24q-127 0 -206 76t-79 200zM316 449q-61 0 -102 -34.5t-54 -93.5h301q-8 61 -46.5 94.5t-98.5 33.5zM156 625v105h104v-105h-50h-54zM368 625v105
h105v-105h-105z"/>
            <glyph glyph-name="igrave" unicode="&#xec;" horiz-adv-x="248"
                   d="M68 525h112v-525h-112v525zM82 593l-134 151h138l92 -151h-96z"/>
            <glyph glyph-name="iacute" unicode="&#xed;" horiz-adv-x="248"
                   d="M68 525h112v-525h-112v525zM308 742l-132 -149h-96l89 149h139z"/>
            <glyph glyph-name="icircumflex" unicode="&#xee;" horiz-adv-x="248"
                   d="M68 525h112v-525h-112v525zM122 683l-81 -90h-90l111 149h121l112 -149h-91z"/>
            <glyph glyph-name="idieresis" unicode="&#xef;" horiz-adv-x="248"
                   d="M68 525h112v-525h-112v525zM-34 616v105h104v-105h-50h-54zM178 616v105h105v-105h-105z"/>
            <glyph glyph-name="eth" unicode="&#xf0;" horiz-adv-x="654"
                   d="M210 534l60 55q-51 22 -97 29l35 87q79 -18 140 -48l72 65l44 -47l-56 -50q62 -40 105.5 -91t64 -104.5t28.5 -97.5t8 -88q0 -119 -81.5 -186.5t-205.5 -67.5q-125 1 -206 66t-81 176t79 176t195 65q94 0 163 -50q-37 75 -143 136l-80 -72zM157 234q0 -68 48.5 -109
t121.5 -41q74 0 122 41t48 109t-48.5 109.5t-121.5 41.5t-121.5 -41.5t-48.5 -109.5z"/>
            <glyph glyph-name="ntilde" unicode="&#xf1;"
                   d="M304 437q-62 0 -93.5 -35t-31.5 -100v-302h-111v320q0 104 64 158.5t172 54.5t172 -54.5t64 -158.5v-320h-111v302q0 65 -31.5 100t-93.5 35zM200 613h-65q2 15 6 31t14.5 40.5t32 40t50.5 15.5q26 0 69.5 -21.5t60.5 -21.5q10 0 18 4.5t12 11.5t6 13.5t3 13t1 7.5h65
q-2 -15 -6 -31.5t-14.5 -41t-31 -40.5t-47.5 -16q-28 0 -71 23.5t-60 23.5q-11 0 -19 -4.5t-12 -12t-6.5 -14t-3.5 -14.5z"/>
            <glyph glyph-name="ograve" unicode="&#xf2;" horiz-adv-x="655"
                   d="M40 262q0 125 83.5 199t203.5 73q125 -1 205.5 -73.5t81.5 -198.5q0 -126 -80.5 -198.5t-206.5 -72.5q-125 0 -206 72.5t-81 198.5zM157 262q0 -79 47.5 -126.5t122.5 -47.5t123 47.5t47 126.5t-48.5 127t-121.5 48q-71 1 -120.5 -47.5t-49.5 -127.5zM286 602l-134 151
h138l92 -151h-96z"/>
            <glyph glyph-name="oacute" unicode="&#xf3;" horiz-adv-x="655"
                   d="M40 262q0 125 83.5 199t203.5 73q125 -1 205.5 -73.5t81.5 -198.5q0 -126 -80.5 -198.5t-206.5 -72.5q-125 0 -206 72.5t-81 198.5zM157 262q0 -79 47.5 -126.5t122.5 -47.5t123 47.5t47 126.5t-48.5 127t-121.5 48q-71 1 -120.5 -47.5t-49.5 -127.5zM512 751l-132 -149
h-96l89 149h139z"/>
            <glyph glyph-name="ocircumflex" unicode="&#xf4;" horiz-adv-x="655"
                   d="M40 262q0 125 83.5 199t203.5 73q125 -1 205.5 -73.5t81.5 -198.5q0 -126 -80.5 -198.5t-206.5 -72.5q-125 0 -206 72.5t-81 198.5zM157 262q0 -79 47.5 -126.5t122.5 -47.5t123 47.5t47 126.5t-48.5 127t-121.5 48q-71 1 -120.5 -47.5t-49.5 -127.5zM325 692l-81 -90
h-90l111 149h121l112 -149h-91z"/>
            <glyph glyph-name="otilde" unicode="&#xf5;" horiz-adv-x="655"
                   d="M40 262q0 125 83.5 199t203.5 73q125 -1 205.5 -73.5t81.5 -198.5q0 -126 -80.5 -198.5t-206.5 -72.5q-125 0 -206 72.5t-81 198.5zM157 262q0 -79 47.5 -126.5t122.5 -47.5t123 47.5t47 126.5t-48.5 127t-121.5 48q-71 1 -120.5 -47.5t-49.5 -127.5zM224 613h-65
q2 15 6 31t14.5 40.5t32 40t50.5 15.5q26 0 69.5 -21.5t60.5 -21.5q10 0 18 4.5t12 11.5t6 13.5t3 13t1 7.5h65q-2 -15 -6 -31.5t-14.5 -41t-31 -40.5t-47.5 -16q-28 0 -71 23.5t-60 23.5q-11 0 -19 -4.5t-12 -12t-6.5 -14t-3.5 -14.5z"/>
            <glyph glyph-name="odieresis" unicode="&#xf6;" horiz-adv-x="655"
                   d="M40 262q0 125 83.5 199t203.5 73q125 -1 205.5 -73.5t81.5 -198.5q0 -126 -80.5 -198.5t-206.5 -72.5q-125 0 -206 72.5t-81 198.5zM157 262q0 -79 47.5 -126.5t122.5 -47.5t123 47.5t47 126.5t-48.5 127t-121.5 48q-71 1 -120.5 -47.5t-49.5 -127.5zM169 625v105h104
v-105h-50h-54zM381 625v105h105v-105h-105z"/>
            <glyph glyph-name="divide" unicode="&#xf7;" horiz-adv-x="833"
                   d="M696 301h-558v105h558v-105zM360 219h113v-112h-113v112zM360 601h113v-113h-113v55v58z"/>
            <glyph glyph-name="oslash" unicode="&#xf8;" horiz-adv-x="654"
                   d="M40 262q0 125 83.5 199t203.5 73q109 -2 180 -55l62 60l46 -46l-59 -58q57 -69 58 -173q0 -126 -80.5 -198.5t-206.5 -72.5q-106 0 -179 53l-63 -61l-46 47l59 57q-58 71 -58 175zM157 262q0 -54 25 -95l246 237q-42 33 -101 33q-71 1 -120.5 -47.5t-49.5 -127.5z
M497 262q-2 57 -25 94l-246 -237q43 -31 101 -31q75 0 123 47.5t47 126.5z"/>
            <glyph glyph-name="ugrave" unicode="&#xf9;"
                   d="M304 88q62 0 93.5 35t31.5 100v302h111v-320q0 -104 -64 -159t-172 -55t-172 55t-64 159v320h111v-302q0 -65 31.5 -100t93.5 -35zM267 593l-134 151h138l92 -151h-96z"/>
            <glyph glyph-name="uacute" unicode="&#xfa;"
                   d="M304 88q62 0 93.5 35t31.5 100v302h111v-320q0 -104 -64 -159t-172 -55t-172 55t-64 159v320h111v-302q0 -65 31.5 -100t93.5 -35zM492 742l-132 -149h-96l89 149h139z"/>
            <glyph glyph-name="ucircumflex" unicode="&#xfb;"
                   d="M304 88q62 0 93.5 35t31.5 100v302h111v-320q0 -104 -64 -159t-172 -55t-172 55t-64 159v320h111v-302q0 -65 31.5 -100t93.5 -35zM306 683l-81 -90h-90l111 149h121l112 -149h-91z"/>
            <glyph glyph-name="udieresis" unicode="&#xfc;"
                   d="M304 88q62 0 93.5 35t31.5 100v302h111v-320q0 -104 -64 -159t-172 -55t-172 55t-64 159v320h111v-302q0 -65 31.5 -100t93.5 -35zM150 616v105h104v-105h-50h-54zM362 616v105h105v-105h-105z"/>
            <glyph glyph-name="yacute" unicode="&#xfd;"
                   d="M445 -184h-133q5 4 12.5 11.5t27 33t35 52.5t29 68t14.5 82q-52 -72 -155 -72q-98 0 -152.5 52t-54.5 160v322h111v-297q0 -140 117 -140q71 0 102 39.5t31 98.5v299h111v-453q0 -68 -24 -132t-48 -94zM487 742l-132 -149h-96l89 149h139z"/>
            <glyph glyph-name="thorn" unicode="&#xfe;" horiz-adv-x="678"
                   d="M68 -181v887h111v-255q70 83 188 83q117 0 193.5 -76.5t76.5 -196.5q0 -119 -74 -194.5t-189 -75.5q-131 0 -195 87v-259h-111zM180 262q0 -77 47.5 -125.5t124.5 -48.5t123.5 49t46.5 125q0 74 -47 124.5t-123 50.5q-77 0 -124.5 -48.5t-47.5 -126.5z"/>
            <glyph glyph-name="ydieresis" unicode="&#xff;"
                   d="M445 -184h-133q5 4 12.5 11.5t27 33t35 52.5t29 68t14.5 82q-52 -72 -155 -72q-98 0 -152.5 52t-54.5 160v322h111v-297q0 -140 117 -140q71 0 102 39.5t31 98.5v299h111v-453q0 -68 -24 -132t-48 -94zM145 616v105h104v-105h-50h-54zM357 616v105h105v-105h-105z"/>
            <glyph glyph-name="Amacron" unicode="&#x100;" horiz-adv-x="655"
                   d="M648 0h-128l-59 179h-276l-64 -179h-113l256 706h143zM217 276h213l-102 321zM178 809v77h300v-77h-300z"/>
            <glyph glyph-name="amacron" unicode="&#x101;" horiz-adv-x="683"
                   d="M615 255v-255h-109v84q-71 -92 -199 -92q-115 0 -191 74t-76 194t81 197t206 77q132 0 210 -76t78 -203zM497 262q0 78 -47 126.5t-124 48.5q-76 0 -123 -50.5t-47 -124.5q0 -76 46.5 -125t123.5 -49t124 48t47 126zM178 638v77h300v-77h-300z"/>
            <glyph glyph-name="Abreve" unicode="&#x102;" horiz-adv-x="655"
                   d="M648 0h-128l-59 179h-276l-64 -179h-113l256 706h143zM217 276h213l-102 321zM328 853q30 0 48.5 18.5t21.5 51.5h86q-8 -74 -52 -107t-104 -33t-104 33t-52 107h86q3 -33 21.5 -51.5t48.5 -18.5z"/>
            <glyph glyph-name="abreve" unicode="&#x103;" horiz-adv-x="683"
                   d="M615 255v-255h-109v84q-71 -92 -199 -92q-115 0 -191 74t-76 194t81 197t206 77q132 0 210 -76t78 -203zM497 262q0 78 -47 126.5t-124 48.5q-76 0 -123 -50.5t-47 -124.5q0 -76 46.5 -125t123.5 -49t124 48t47 126zM331 682q30 0 48.5 18.5t21.5 51.5h86
q-8 -74 -52 -107t-104 -33t-104 33t-52 107h86q3 -33 21.5 -51.5t48.5 -18.5z"/>
            <glyph glyph-name="Aogonek" unicode="&#x104;" horiz-adv-x="655"
                   d="M557 0h-37l-59 179h-276l-64 -179h-113l256 706h143l241 -706q-48 -24 -73 -55t-25 -60t18 -44t43 -15q34 0 70 13l-7 -71q-38 -12 -90 -12q-45 0 -84 26.5t-39 84.5q0 42 28.5 77t67.5 56zM217 276h213l-102 321z"/>
            <glyph glyph-name="aogonek" unicode="&#x105;" horiz-adv-x="683"
                   d="M531 0h-25v84q-71 -92 -199 -92q-115 0 -191 74t-76 194t81 197t206 77q132 0 210 -76t78 -203v-255q-48 -24 -73 -55t-25 -60t18 -44t43 -15q34 0 70 13l-7 -71q-38 -12 -90 -12q-45 0 -84 26.5t-39 84.5q0 77 103 133zM497 262q0 78 -47 126.5t-124 48.5
q-76 0 -123 -50.5t-47 -124.5q0 -76 46.5 -125t123.5 -49t124 48t47 126z"/>
            <glyph glyph-name="Cacute" unicode="&#x106;" horiz-adv-x="643"
                   d="M51 354q1 168 104.5 266t267.5 98q110 0 196 -46l-49 -94q-63 34 -136 34q-115 0 -182.5 -71.5t-67.5 -186.5q0 -118 71 -189.5t189 -71.5q75 0 147 38l-11 -112q-70 -31 -157 -31q-165 0 -269 98.5t-103 267.5zM600 926l-132 -149h-96l89 149h139z"/>
            <glyph glyph-name="cacute" unicode="&#x107;" horiz-adv-x="480"
                   d="M40 263q0 122 75 196.5t197 74.5q81 0 149 -35l-37 -88q-47 29 -99 29q-74 0 -121 -48t-47 -129q0 -79 46 -129t129 -49q58 1 102 28l-8 -99q-51 -23 -116 -23q-122 0 -196 74.5t-74 197.5zM480 751l-132 -149h-96l89 149h139z"/>
            <glyph glyph-name="Ccircumflex" unicode="&#x108;" horiz-adv-x="643"
                   d="M51 354q1 168 104.5 266t267.5 98q110 0 196 -46l-49 -94q-63 34 -136 34q-115 0 -182.5 -71.5t-67.5 -186.5q0 -118 71 -189.5t189 -71.5q75 0 147 38l-11 -112q-70 -31 -157 -31q-165 0 -269 98.5t-103 267.5zM414 867l-81 -90h-90l111 149h121l112 -149h-91z"/>
            <glyph glyph-name="ccircumflex" unicode="&#x109;" horiz-adv-x="480"
                   d="M40 263q0 122 75 196.5t197 74.5q81 0 149 -35l-37 -88q-47 29 -99 29q-74 0 -121 -48t-47 -129q0 -79 46 -129t129 -49q58 1 102 28l-8 -99q-51 -23 -116 -23q-122 0 -196 74.5t-74 197.5zM294 692l-81 -90h-90l111 149h121l112 -149h-91z"/>
            <glyph glyph-name="Cdotaccent" unicode="&#x10a;" horiz-adv-x="643"
                   d="M51 354q1 168 104.5 266t267.5 98q110 0 196 -46l-49 -94q-63 34 -136 34q-115 0 -182.5 -71.5t-67.5 -186.5q0 -118 71 -189.5t189 -71.5q75 0 147 38l-11 -112q-70 -31 -157 -31q-165 0 -269 98.5t-103 267.5zM365 804v104h104v-104h-104z"/>
            <glyph glyph-name="cdotaccent" unicode="&#x10b;" horiz-adv-x="480"
                   d="M40 263q0 122 75 196.5t197 74.5q81 0 149 -35l-37 -88q-47 29 -99 29q-74 0 -121 -48t-47 -129q0 -79 46 -129t129 -49q58 1 102 28l-8 -99q-51 -23 -116 -23q-122 0 -196 74.5t-74 197.5zM245 629v104h104v-104h-104z"/>
            <glyph glyph-name="Ccaron" unicode="&#x10c;" horiz-adv-x="643"
                   d="M51 354q1 168 104.5 266t267.5 98q110 0 196 -46l-49 -94q-63 34 -136 34q-115 0 -182.5 -71.5t-67.5 -186.5q0 -118 71 -189.5t189 -71.5q75 0 147 38l-11 -112q-70 -31 -157 -31q-165 0 -269 98.5t-103 267.5zM334 926l81 -91l82 91h91l-112 -149h-121l-111 149h90z
"/>
            <glyph glyph-name="ccaron" unicode="&#x10d;" horiz-adv-x="480"
                   d="M40 263q0 122 75 196.5t197 74.5q81 0 149 -35l-37 -88q-47 29 -99 29q-74 0 -121 -48t-47 -129q0 -79 46 -129t129 -49q58 1 102 28l-8 -99q-51 -23 -116 -23q-122 0 -196 74.5t-74 197.5zM214 751l81 -91l82 91h91l-112 -149h-121l-111 149h90z"/>
            <glyph glyph-name="Dcaron" unicode="&#x10e;" horiz-adv-x="814"
                   d="M78 253v453h367q151 0 236.5 -102t85.5 -254q0 -162 -110 -261.5t-269 -99.5q-138 0 -224 65t-86 199zM198 606v-353q0 -73 55.5 -115.5t134.5 -41.5q112 0 179.5 73t66.5 182q0 105 -59 180t-163 75h-214zM297 914l81 -91l82 91h91l-112 -149h-121l-111 149h90z"/>
            <glyph glyph-name="dcaron" unicode="&#x10f;" horiz-adv-x="801"
                   d="M610 706v-426q0 -133 -78 -211t-210 -78q-122 0 -202 77t-80 195q0 122 76 196.5t194 74.5q62 0 111.5 -23t77.5 -61v256h111zM497 263q0 78 -47 126t-124 48t-123.5 -49t-46.5 -125q0 -74 47 -124.5t123 -50.5q77 0 124 48.5t47 126.5zM726 515l-57 50q20 15 27 29.5
t7 41.5v70h88v-70q0 -41 -13.5 -68.5t-51.5 -52.5z"/>
            <glyph glyph-name="Dcroat" unicode="&#x110;" horiz-adv-x="814"
                   d="M-3 334v88h81v284l367 1q151 0 236.5 -102.5t85.5 -254.5q0 -162 -110 -261.5t-269 -99.5q-138 0 -224 65t-86 199v81h-81zM198 606v-184h155v-88h-155v-82q0 -73 55.5 -115t134.5 -41q112 0 179.5 73t66.5 182q0 105 -59 180.5t-163 75.5z"/>
            <glyph glyph-name="dcroat" unicode="&#x111;" horiz-adv-x="683"
                   d="M353 578v69h146v59h111v-59h68v-69h-68v-298q0 -133 -78 -211t-210 -78q-122 0 -202 77t-80 195q0 122 76 196.5t194 74.5q62 0 111.5 -23t77.5 -61v128h-146zM497 263q0 78 -47 126t-124 48t-123.5 -49t-46.5 -125q0 -74 47 -124.5t123 -50.5q77 0 124 48.5t47 126.5z
"/>
            <glyph glyph-name="Emacron" unicode="&#x112;" horiz-adv-x="592"
                   d="M543 0h-306q-76 0 -115.5 43t-39.5 116v547h485l-18 -100h-347v-205h311l-17 -96h-294v-126q0 -44 17 -61.5t49 -17.5h293zM167 801v77h300v-77h-300z"/>
            <glyph glyph-name="emacron" unicode="&#x113;" horiz-adv-x="616"
                   d="M40 267q0 117 77 192t197 75q128 0 198 -80.5t69 -214.5h-421q6 -79 59 -119t127 -40q66 0 117 29l-7 -94q-52 -24 -131 -24q-127 0 -206 76t-79 200zM316 449q-61 0 -102 -34.5t-54 -93.5h301q-8 61 -46.5 94.5t-98.5 33.5zM160 638v77h300v-77h-300z"/>
            <glyph glyph-name="Ebreve" unicode="&#x114;" horiz-adv-x="592"
                   d="M543 0h-306q-76 0 -115.5 43t-39.5 116v547h485l-18 -100h-347v-205h311l-17 -96h-294v-126q0 -44 17 -61.5t49 -17.5h293zM320 845q30 0 48.5 18.5t21.5 51.5h86q-8 -74 -52 -107t-104 -33t-104 33t-52 107h86q3 -33 21.5 -51.5t48.5 -18.5z"/>
            <glyph glyph-name="ebreve" unicode="&#x115;" horiz-adv-x="616"
                   d="M40 267q0 117 77 192t197 75q128 0 198 -80.5t69 -214.5h-421q6 -79 59 -119t127 -40q66 0 117 29l-7 -94q-52 -24 -131 -24q-127 0 -206 76t-79 200zM316 449q-61 0 -102 -34.5t-54 -93.5h301q-8 61 -46.5 94.5t-98.5 33.5zM314 682q30 0 48.5 18.5t21.5 51.5h86
q-8 -74 -52 -107t-104 -33t-104 33t-52 107h86q3 -33 21.5 -51.5t48.5 -18.5z"/>
            <glyph glyph-name="Edotaccent" unicode="&#x116;" horiz-adv-x="592"
                   d="M543 0h-306q-76 0 -115.5 43t-39.5 116v547h485l-18 -100h-347v-205h311l-17 -96h-294v-126q0 -44 17 -61.5t49 -17.5h293zM269 792v104h104v-104h-104z"/>
            <glyph glyph-name="edotaccent" unicode="&#x117;" horiz-adv-x="616"
                   d="M40 267q0 117 77 192t197 75q128 0 198 -80.5t69 -214.5h-421q6 -79 59 -119t127 -40q66 0 117 29l-7 -94q-52 -24 -131 -24q-127 0 -206 76t-79 200zM316 449q-61 0 -102 -34.5t-54 -93.5h301q-8 61 -46.5 94.5t-98.5 33.5zM263 629v104h104v-104h-104z"/>
            <glyph glyph-name="Eogonek" unicode="&#x118;" horiz-adv-x="592"
                   d="M450 0h-213q-76 0 -115.5 43t-39.5 116v547h485l-18 -100h-347v-205h311l-17 -96h-294v-126q0 -44 17 -61.5t49 -17.5h293l-18 -100q-51 -20 -78 -52.5t-27 -62.5q0 -29 18 -44t43 -15q34 0 70 13l-7 -71q-38 -12 -90 -12q-45 0 -84 26.5t-39 84.5q0 80 101 133z"/>
            <glyph glyph-name="eogonek" unicode="&#x119;" horiz-adv-x="616"
                   d="M40 267q0 117 77 192t197 75q128 0 198 -80.5t69 -214.5h-421q6 -79 59 -119t127 -40q66 0 117 29l-7 -94q-38 -16 -68 -49.5t-30 -65.5q0 -29 18 -44.5t43 -15.5q34 0 70 13l-7 -70q-39 -12 -90 -12q-46 0 -84.5 26.5t-38.5 84.5q0 63 59 109h-3q-127 0 -206 76t-79 200
zM316 449q-61 0 -102 -34.5t-54 -93.5h301q-8 61 -46.5 94.5t-98.5 33.5z"/>
            <glyph glyph-name="Ecaron" unicode="&#x11a;" horiz-adv-x="592"
                   d="M543 0h-306q-76 0 -115.5 43t-39.5 116v547h485l-18 -100h-347v-205h311l-17 -96h-294v-126q0 -44 17 -61.5t49 -17.5h293zM238 914l81 -91l82 91h91l-112 -149h-121l-111 149h90z"/>
            <glyph glyph-name="ecaron" unicode="&#x11b;" horiz-adv-x="616"
                   d="M40 267q0 117 77 192t197 75q128 0 198 -80.5t69 -214.5h-421q6 -79 59 -119t127 -40q66 0 117 29l-7 -94q-52 -24 -131 -24q-127 0 -206 76t-79 200zM316 449q-61 0 -102 -34.5t-54 -93.5h301q-8 61 -46.5 94.5t-98.5 33.5zM232 751l81 -91l82 91h91l-112 -149h-121
l-111 149h90z"/>
            <glyph glyph-name="Gcircumflex" unicode="&#x11c;" horiz-adv-x="806"
                   d="M625 75q-34 -42 -93.5 -64.5t-121.5 -22.5q-157 0 -258.5 100t-101.5 261q0 169 104.5 269t275.5 100q166 0 269 -92l-60 -85q-80 75 -203 75q-117 0 -184 -72.5t-67 -191.5q0 -112 66.5 -185t180.5 -73q68 0 126.5 33.5t59.5 97.5v87h-274l14 99h378v-304q0 -70 33 -107
h-125q-18 28 -19 75zM431 867l-81 -90h-90l111 149h121l112 -149h-91z"/>
            <glyph glyph-name="gcircumflex" unicode="&#x11d;" horiz-adv-x="683"
                   d="M323 534q134 0 213 -76t79 -207v-132q0 -97 -21 -160.5t-94 -142.5h-137q65 53 101.5 115t42.5 155q-30 -45 -83.5 -69.5t-116.5 -24.5q-116 0 -191.5 74.5t-75.5 194.5q0 121 82 197t201 76zM497 262q0 78 -47 126.5t-124 48.5q-76 0 -123 -50.5t-47 -124.5
q0 -76 46.5 -125t123.5 -49t124 48t47 126zM328 692l-81 -90h-90l111 149h121l112 -149h-91z"/>
            <glyph glyph-name="Gbreve" unicode="&#x11e;" horiz-adv-x="806"
                   d="M625 75q-34 -42 -93.5 -64.5t-121.5 -22.5q-157 0 -258.5 100t-101.5 261q0 169 104.5 269t275.5 100q166 0 269 -92l-60 -85q-80 75 -203 75q-117 0 -184 -72.5t-67 -191.5q0 -112 66.5 -185t180.5 -73q68 0 126.5 33.5t59.5 97.5v87h-274l14 99h378v-304q0 -70 33 -107
h-125q-18 28 -19 75zM433 857q30 0 48.5 18.5t21.5 51.5h86q-8 -74 -52 -107t-104 -33t-104 33t-52 107h86q3 -33 21.5 -51.5t48.5 -18.5z"/>
            <glyph glyph-name="gbreve" unicode="&#x11f;" horiz-adv-x="683"
                   d="M323 534q134 0 213 -76t79 -207v-132q0 -97 -21 -160.5t-94 -142.5h-137q65 53 101.5 115t42.5 155q-30 -45 -83.5 -69.5t-116.5 -24.5q-116 0 -191.5 74.5t-75.5 194.5q0 121 82 197t201 76zM497 262q0 78 -47 126.5t-124 48.5q-76 0 -123 -50.5t-47 -124.5
q0 -76 46.5 -125t123.5 -49t124 48t47 126zM330 682q30 0 48.5 18.5t21.5 51.5h86q-8 -74 -52 -107t-104 -33t-104 33t-52 107h86q3 -33 21.5 -51.5t48.5 -18.5z"/>
            <glyph glyph-name="Gdotaccent" unicode="&#x120;" horiz-adv-x="806"
                   d="M625 75q-34 -42 -93.5 -64.5t-121.5 -22.5q-157 0 -258.5 100t-101.5 261q0 169 104.5 269t275.5 100q166 0 269 -92l-60 -85q-80 75 -203 75q-117 0 -184 -72.5t-67 -191.5q0 -112 66.5 -185t180.5 -73q68 0 126.5 33.5t59.5 97.5v87h-274l14 99h378v-304q0 -70 33 -107
h-125q-18 28 -19 75zM382 804v104h104v-104h-104z"/>
            <glyph glyph-name="gdotaccent" unicode="&#x121;" horiz-adv-x="683"
                   d="M323 534q134 0 213 -76t79 -207v-132q0 -97 -21 -160.5t-94 -142.5h-137q65 53 101.5 115t42.5 155q-30 -45 -83.5 -69.5t-116.5 -24.5q-116 0 -191.5 74.5t-75.5 194.5q0 121 82 197t201 76zM497 262q0 78 -47 126.5t-124 48.5q-76 0 -123 -50.5t-47 -124.5
q0 -76 46.5 -125t123.5 -49t124 48t47 126zM279 626v104h104v-104h-104z"/>
            <glyph glyph-name="Gcommaaccent" unicode="&#x122;" horiz-adv-x="806"
                   d="M625 75q-34 -42 -93.5 -64.5t-121.5 -22.5q-157 0 -258.5 100t-101.5 261q0 169 104.5 269t275.5 100q166 0 269 -92l-60 -85q-80 75 -203 75q-117 0 -184 -72.5t-67 -191.5q0 -112 66.5 -185t180.5 -73q68 0 126.5 33.5t59.5 97.5v87h-274l14 99h378v-304q0 -70 33 -107
h-125q-18 28 -19 75zM399 -255l-57 51q20 14 27 28.5t7 41.5v70h88v-70q0 -41 -13.5 -68.5t-51.5 -52.5z"/>
            <glyph glyph-name="gcommaaccent" unicode="&#x123;" horiz-adv-x="683"
                   d="M323 534q134 0 213 -76t79 -207v-132q0 -97 -21 -160.5t-94 -142.5h-137q65 53 101.5 115t42.5 155q-30 -45 -83.5 -69.5t-116.5 -24.5q-116 0 -191.5 74.5t-75.5 194.5q0 121 82 197t201 76zM497 262q0 78 -47 126.5t-124 48.5q-76 0 -123 -50.5t-47 -124.5
q0 -76 46.5 -125t123.5 -49t124 48t47 126zM352 810l57 -51q-20 -14 -27 -28.5t-7 -41.5v-70h-88v70q0 41 13.5 68.5t51.5 52.5z"/>
            <glyph glyph-name="Hcircumflex" unicode="&#x124;" horiz-adv-x="740"
                   d="M83 0v706h121v-300h333v300h120v-706h-120v307h-334v-307h-120zM368 855l-81 -90h-90l111 149h121l112 -149h-91z"/>
            <glyph glyph-name="hcircumflex" unicode="&#x125;"
                   d="M68 0v706h111v-239q51 67 153 67q100 0 154 -54.5t54 -159.5v-320h-111v306q0 135 -118 135q-59 0 -95.5 -33.5t-36.5 -96.5v-311h-111zM122 857l-81 -90h-90l111 149h121l112 -149h-91z"/>
            <glyph glyph-name="Hbar" unicode="&#x126;" horiz-adv-x="740"
                   d="M15 488v89h68v129h121v-129h333v129h120v-129h68v-89h-68v-488h-120v297h-334v-297h-120v488h-68zM204 396h333v92h-333v-92z"/>
            <glyph glyph-name="hbar" unicode="&#x127;"
                   d="M68 706h111v-59h150v-69h-150v-111q51 67 153 67q100 0 154 -54.5t54 -159.5v-320h-111v306q0 135 -118 135q-59 0 -95.5 -33.5t-36.5 -96.5v-311h-111v578h-63v69h63v59z"/>
            <glyph glyph-name="Itilde" unicode="&#x128;" horiz-adv-x="287"
                   d="M203 706v-706h-120v706h120zM40 776h-65q2 15 6 31t14.5 40.5t32 40t50.5 15.5q26 0 69.5 -21.5t60.5 -21.5q10 0 18 4.5t12 11.5t6 13.5t3 13t1 7.5h65q-2 -15 -6 -31.5t-14.5 -41t-31 -40.5t-47.5 -16q-28 0 -71 23.5t-60 23.5q-11 0 -19 -4.5t-12 -12t-6.5 -14
t-3.5 -14.5z"/>
            <glyph glyph-name="itilde" unicode="&#x129;" horiz-adv-x="248"
                   d="M68 525h112v-525h-112v525zM20 604h-65q2 15 6 31t14.5 40.5t32 40t50.5 15.5q26 0 69.5 -21.5t60.5 -21.5q10 0 18 4.5t12 11.5t6 13.5t3 13t1 7.5h65q-2 -15 -6 -31.5t-14.5 -41t-31 -40.5t-47.5 -16q-28 0 -71 23.5t-60 23.5q-11 0 -19 -4.5t-12 -12t-6.5 -14
t-3.5 -13.5z"/>
            <glyph glyph-name="Imacron" unicode="&#x12a;" horiz-adv-x="287"
                   d="M203 706v-706h-120v706h120zM-10 801v77h300v-77h-300z"/>
            <glyph glyph-name="imacron" unicode="&#x12b;" horiz-adv-x="248"
                   d="M68 525h112v-525h-112v525zM-30 629v77h300v-77h-300z"/>
            <glyph glyph-name="Ibreve" unicode="&#x12c;" horiz-adv-x="287"
                   d="M203 706v-706h-120v706h120zM143 845q30 0 48.5 18.5t21.5 51.5h86q-8 -74 -52 -107t-104 -33t-104 33t-52 107h86q3 -33 21.5 -51.5t48.5 -18.5z"/>
            <glyph glyph-name="ibreve" unicode="&#x12d;" horiz-adv-x="248"
                   d="M68 525h112v-525h-112v525zM124 673q30 0 48.5 18.5t21.5 51.5h86q-8 -74 -52 -107t-104 -33t-104 33t-52 107h86q3 -33 21.5 -51.5t48.5 -18.5z"/>
            <glyph glyph-name="Iogonek" unicode="&#x12e;" horiz-adv-x="287"
                   d="M119 0h-36v706h120v-706q-79 -57 -79 -115q0 -29 17 -44t41 -15q30 0 66 13l-7 -71q-38 -12 -82 -12q-28 0 -54.5 9t-48 35.5t-21.5 66.5q0 73 84 133z"/>
            <glyph glyph-name="iogonek" unicode="&#x12f;" horiz-adv-x="248"
                   d="M96 0h-28v525h112v-525q-79 -56 -79 -115q0 -29 16.5 -44t40.5 -15q32 0 66 13l-7 -71q-36 -12 -82 -12t-84.5 26.5t-38.5 84.5q0 73 84 133zM68 706h112v-96h-112v96z"/>
            <glyph glyph-name="Idotaccent" unicode="&#x130;" horiz-adv-x="287"
                   d="M203 706v-706h-120v706h120zM92 792v104h104v-104h-104z"/>
            <glyph glyph-name="dotlessi" unicode="&#x131;" horiz-adv-x="248"
                   d="M68 525h112v-525h-112v525z"/>
            <glyph glyph-name="IJ" unicode="&#x132;" horiz-adv-x="580"
                   d="M203 706v-706h-120v706h120zM384 706h120v-340q0 -184 -97 -366h-131q36 63 54.5 101.5t36 112t17.5 158.5v334z"/>
            <glyph glyph-name="ij" unicode="&#x133;" horiz-adv-x="497"
                   d="M68 525h112v-525h-112v525zM68 706h112v-96h-112v96zM318 525h112v-329q0 -68 -10.5 -132t-26 -107t-30.5 -76.5t-25 -48.5l-11 -16h-123q5 6 12.5 18t27 50t34.5 79.5t27.5 104t12.5 125.5v332zM318 706h112v-96h-112v96z"/>
            <glyph glyph-name="Jcircumflex" unicode="&#x134;" horiz-adv-x="292"
                   d="M97 706h120v-340q0 -184 -97 -366h-131q36 63 54.5 101.5t36 112t17.5 158.5v334zM156 855l-81 -90h-90l111 149h121l112 -149h-91z"/>
            <glyph glyph-name="jcircumflex" unicode="&#x135;" horiz-adv-x="250"
                   d="M70 525h112v-329q0 -68 -10.5 -132t-26 -107t-30.5 -76.5t-25 -48.5l-11 -16h-123q5 6 12.5 18t27 50t34.5 79.5t27.5 104t12.5 125.5v332zM124 683l-81 -90h-90l111 149h121l112 -149h-91z"/>
            <glyph glyph-name="Kcommaaccent" unicode="&#x136;" horiz-adv-x="660"
                   d="M82 706h120v-304h27l246 304h133l-262 -315h30q65 0 98 -28.5t62 -102.5l44 -109q15 -36 34.5 -72t33 -56t17.5 -23h-142q-9 9 -27 43t-31 68l-37 93q-23 62 -36 75q-20 22 -77 22h-113v-301h-120v706zM333 -251l-57 51q20 14 27 28.5t7 41.5v70h88v-70
q0 -41 -13.5 -68.5t-51.5 -52.5z"/>
            <glyph glyph-name="kcommaaccent" unicode="&#x137;" horiz-adv-x="520"
                   d="M68 706h112v-399h19l175 218h124l-184 -222h16q48 0 69.5 -20t39.5 -70l28 -88q31 -87 58 -125h-125q-19 42 -33 83l-27 83q-12 35 -25.5 48.5t-44.5 13.5h-90v-228h-112v706zM264 -251l-57 51q20 14 27 28.5t7 41.5v70h88v-70q0 -41 -13.5 -68.5t-51.5 -52.5z"/>
            <glyph glyph-name="kgreenlandic" unicode="&#x138;" horiz-adv-x="520"
                   d="M68 525h112v-218h19l175 218h124l-184 -222h16q48 0 69.5 -20t39.5 -70l28 -88q31 -87 58 -125h-125q-19 42 -33 83l-27 83q-12 35 -25.5 48.5t-44.5 13.5h-91v-228h-111v525z"/>
            <glyph glyph-name="Lacute" unicode="&#x139;" horiz-adv-x="567"
                   d="M539 0h-295q-76 0 -119 46t-43 120v540h120v-519q0 -44 20.5 -64.5t52.5 -20.5h282zM325 914l-132 -149h-96l89 149h139z"/>
            <glyph glyph-name="lacute" unicode="&#x13a;" horiz-adv-x="248"
                   d="M68 706h112v-706h-112v706zM309 915l-132 -149h-96l89 149h139z"/>
            <glyph glyph-name="Lcommaaccent" unicode="&#x13b;" horiz-adv-x="567"
                   d="M539 0h-295q-76 0 -119 46t-43 120v540h120v-519q0 -44 20.5 -64.5t52.5 -20.5h282zM283 -251l-57 51q20 14 27 28.5t7 41.5v70h88v-70q0 -41 -13.5 -68.5t-51.5 -52.5z"/>
            <glyph glyph-name="lcommaaccent" unicode="&#x13c;" horiz-adv-x="248"
                   d="M68 706h112v-706h-112v706zM114 -251l-57 51q20 14 27 28.5t7 41.5v70h88v-70q0 -41 -13.5 -68.5t-51.5 -52.5z"/>
            <glyph glyph-name="Lcaron" unicode="&#x13d;" horiz-adv-x="567"
                   d="M539 0h-295q-76 0 -119 46t-43 120v540h120v-519q0 -44 20.5 -64.5t52.5 -20.5h282zM415 515l-57 50q20 15 27 29.5t7 41.5v70h88v-70q0 -41 -13.5 -68.5t-51.5 -52.5z"/>
            <glyph glyph-name="lcaron" unicode="&#x13e;" horiz-adv-x="371"
                   d="M68 706h112v-706h-112v706zM296 515l-57 50q20 15 27 29.5t7 41.5v70h88v-70q0 -41 -13.5 -68.5t-51.5 -52.5z"/>
            <glyph glyph-name="Ldot" unicode="&#x13f;" horiz-adv-x="567"
                   d="M539 0h-295q-76 0 -119 46t-43 120v540h120v-519q0 -44 20.5 -64.5t52.5 -20.5h282zM358 280v135h134v-135h-134z"/>
            <glyph glyph-name="ldotaccent" unicode="&#x140;" horiz-adv-x="392"
                   d="M68 706h112v-706h-112v706zM253 270v135h134v-135h-134z"/>
            <glyph glyph-name="Lslash" unicode="&#x141;" horiz-adv-x="567"
                   d="M2 244v89l80 31v342h120v-295l124 50v-89l-124 -50v-135q0 -44 20.5 -64.5t52.5 -20.5h282l-18 -102h-295q-76 0 -119 46t-43 120v109z"/>
            <glyph glyph-name="lslash" unicode="&#x142;" horiz-adv-x="248"
                   d="M68 706h112v-301l66 26v-86l-66 -27v-318h-112v274l-66 -26v87l66 25v346z"/>
            <glyph glyph-name="Nacute" unicode="&#x143;" horiz-adv-x="757"
                   d="M83 706h145l337 -542v542h109v-706h-139l-343 548v-548h-109v706zM566 914l-132 -149h-96l89 149h139z"/>
            <glyph glyph-name="nacute" unicode="&#x144;"
                   d="M304 437q-62 0 -93.5 -35t-31.5 -100v-302h-111v320q0 104 64 158.5t172 54.5t172 -54.5t64 -158.5v-320h-111v302q0 65 -31.5 100t-93.5 35zM488 751l-132 -149h-96l89 149h139z"/>
            <glyph glyph-name="Ncommaaccent" unicode="&#x145;" horiz-adv-x="757"
                   d="M83 706h145l337 -542v542h109v-706h-139l-343 548v-548h-109v706zM368 -251l-57 51q20 14 27 28.5t7 41.5v70h88v-70q0 -41 -13.5 -68.5t-51.5 -52.5z"/>
            <glyph glyph-name="ncommaaccent" unicode="&#x146;"
                   d="M304 437q-62 0 -93.5 -35t-31.5 -100v-302h-111v320q0 104 64 158.5t172 54.5t172 -54.5t64 -158.5v-320h-111v302q0 65 -31.5 100t-93.5 35zM285 -251l-57 51q20 14 27 28.5t7 41.5v70h88v-70q0 -41 -13.5 -68.5t-51.5 -52.5z"/>
            <glyph glyph-name="Ncaron" unicode="&#x147;" horiz-adv-x="757"
                   d="M83 706h145l337 -542v542h109v-706h-139l-343 548v-548h-109v706zM299 914l81 -91l82 91h91l-112 -149h-121l-111 149h90z"/>
            <glyph glyph-name="ncaron" unicode="&#x148;"
                   d="M304 437q-62 0 -93.5 -35t-31.5 -100v-302h-111v320q0 104 64 158.5t172 54.5t172 -54.5t64 -158.5v-320h-111v302q0 65 -31.5 100t-93.5 35zM221 751l81 -91l82 91h91l-112 -149h-121l-111 149h90z"/>
            <glyph glyph-name="napostrophe" unicode="&#x149;" horiz-adv-x="700"
                   d="M396 437q-62 0 -93.5 -35t-31.5 -100v-302h-111v320q0 104 64 158.5t172 54.5t172 -54.5t64 -158.5v-320h-111v302q0 65 -31.5 100t-93.5 35zM57 515l-57 50q20 15 27 29.5t7 41.5v70h88v-70q0 -41 -13.5 -68.5t-51.5 -52.5z"/>
            <glyph glyph-name="Eng" unicode="&#x14a;" horiz-adv-x="757"
                   d="M565 706h109v-620q0 -104 -25 -182.5t-73 -153.5h-125q30 46 45 71.5t31.5 68t24.5 87.5l-360 571v-548h-109v706h145l337 -542v542z"/>
            <glyph glyph-name="eng" unicode="&#x14b;"
                   d="M429 304q0 64 -31.5 98.5t-93.5 34.5t-93.5 -35t-31.5 -100v-302h-111v320q0 104 64 158.5t172 54.5t172 -54.5t64 -158.5v-168q0 -218 -102 -346h-122q22 22 44 57t45.5 113t23.5 168v160z"/>
            <glyph glyph-name="Omacron" unicode="&#x14c;" horiz-adv-x="866"
                   d="M54 353q1 173 105.5 269t274.5 96t274.5 -96.5t104.5 -268.5t-104.5 -268.5t-274.5 -96.5q-171 0 -276 96.5t-104 268.5zM187 353q0 -114 65.5 -185.5t181.5 -71.5q115 0 180.5 71.5t65.5 185.5t-65.5 185.5t-180.5 71.5q-116 0 -181.5 -71.5t-65.5 -185.5zM281 813v77
h300v-77h-300z"/>
            <glyph glyph-name="omacron" unicode="&#x14d;" horiz-adv-x="655"
                   d="M40 262q0 125 83.5 199t203.5 73q125 -1 205.5 -73.5t81.5 -198.5q0 -126 -80.5 -198.5t-206.5 -72.5q-125 0 -206 72.5t-81 198.5zM157 262q0 -79 47.5 -126.5t122.5 -47.5t123 47.5t47 126.5t-48.5 127t-121.5 48q-71 1 -120.5 -47.5t-49.5 -127.5zM174 638v77h300v-77
h-300z"/>
            <glyph glyph-name="Obreve" unicode="&#x14e;" horiz-adv-x="866"
                   d="M54 353q1 173 105.5 269t274.5 96t274.5 -96.5t104.5 -268.5t-104.5 -268.5t-274.5 -96.5q-171 0 -276 96.5t-104 268.5zM187 353q0 -114 65.5 -185.5t181.5 -71.5q115 0 180.5 71.5t65.5 185.5t-65.5 185.5t-180.5 71.5q-116 0 -181.5 -71.5t-65.5 -185.5zM434 857
q30 0 48.5 18.5t21.5 51.5h86q-8 -74 -52 -107t-104 -33t-104 33t-52 107h86q3 -33 21.5 -51.5t48.5 -18.5z"/>
            <glyph glyph-name="obreve" unicode="&#x14f;" horiz-adv-x="655"
                   d="M40 262q0 125 83.5 199t203.5 73q125 -1 205.5 -73.5t81.5 -198.5q0 -126 -80.5 -198.5t-206.5 -72.5q-125 0 -206 72.5t-81 198.5zM157 262q0 -79 47.5 -126.5t122.5 -47.5t123 47.5t47 126.5t-48.5 127t-121.5 48q-71 1 -120.5 -47.5t-49.5 -127.5zM327 682
q30 0 48.5 18.5t21.5 51.5h86q-8 -74 -52 -107t-104 -33t-104 33t-52 107h86q3 -33 21.5 -51.5t48.5 -18.5z"/>
            <glyph glyph-name="Ohungarumlaut" unicode="&#x150;" horiz-adv-x="866"
                   d="M54 353q1 173 105.5 269t274.5 96t274.5 -96.5t104.5 -268.5t-104.5 -268.5t-274.5 -96.5q-171 0 -276 96.5t-104 268.5zM187 353q0 -114 65.5 -185.5t181.5 -71.5q115 0 180.5 71.5t65.5 185.5t-65.5 185.5t-180.5 71.5q-116 0 -181.5 -71.5t-65.5 -185.5zM484 926
l-96 -149h-87l64 149h119zM673 926l-126 -149h-46h-47l94 149h125z"/>
            <glyph glyph-name="ohungarumlaut" unicode="&#x151;" horiz-adv-x="655"
                   d="M40 262q0 125 83.5 199t203.5 73q125 -1 205.5 -73.5t81.5 -198.5q0 -126 -80.5 -198.5t-206.5 -72.5q-125 0 -206 72.5t-81 198.5zM157 262q0 -79 47.5 -126.5t122.5 -47.5t123 47.5t47 126.5t-48.5 127t-121.5 48q-71 1 -120.5 -47.5t-49.5 -127.5zM377 751l-96 -149
h-87l64 149h119zM566 751l-126 -149h-46h-47l94 149h125z"/>
            <glyph glyph-name="OE" unicode="&#x152;" horiz-adv-x="1199"
                   d="M1150 0h-312q-111 0 -133 97q-99 -109 -275 -109q-171 0 -275.5 96.5t-103.5 268.5q1 173 105 269t274 96q162 0 258 -96v84h486l-18 -100h-355v-205h319l-17 -96h-302v-126q0 -44 17.5 -61.5t49.5 -17.5h300zM184 353q0 -114 65.5 -185.5t180.5 -71.5q116 0 181.5 71.5
t65.5 185.5t-65.5 185.5t-181.5 71.5q-115 0 -180.5 -71.5t-65.5 -185.5z"/>
            <glyph glyph-name="oe" unicode="&#x153;" horiz-adv-x="1073"
                   d="M921 109l-8 -94q-53 -24 -131 -24q-73 0 -131.5 28.5t-94.5 78.5q-74 -107 -229 -107q-125 0 -206 72.5t-81 198.5q0 125 83.5 199t203.5 73q152 -2 227 -108q35 51 91 79.5t126 28.5q129 0 199 -80.5t68 -214.5h-421q7 -79 59.5 -119t126.5 -40q66 0 118 29zM157 262
q0 -79 47.5 -126.5t122.5 -47.5t123 47.5t47 126.5t-48.5 127t-121.5 48q-71 1 -120.5 -47.5t-49.5 -127.5zM773 449q-60 0 -101 -34.5t-54 -93.5h300q-8 61 -46.5 94.5t-98.5 33.5z"/>
            <glyph glyph-name="Racute" unicode="&#x154;" horiz-adv-x="725"
                   d="M83 706h372q108 0 164.5 -63t56.5 -150q0 -85 -52.5 -142.5t-126.5 -59.5q26 -5 46.5 -17t33 -24.5t24.5 -34t18 -36.5l16 -41.5t16 -40.5q31 -68 54 -97h-142q-19 19 -40 74q-5 12 -13.5 37.5t-13 37t-13.5 31.5t-16.5 29t-20 22t-26 19t-32 10.5t-41.5 4.5h-63
q-15 0 -27.5 2.5t-19 4.5t-13 8.5t-8.5 9t-7 11.5t-6 11v-312h-120v706zM203 607v-177q0 -68 83 -68h136q60 0 92 33t32 88q0 124 -128 124h-215zM532 914l-132 -149h-96l89 149h139z"/>
            <glyph glyph-name="racute" unicode="&#x155;" horiz-adv-x="365"
                   d="M364 519l-24 -95q-36 12 -60 12q-57 0 -79 -33t-22 -101v-302h-111v322q0 212 209 212q27 0 87 -15zM423 751l-132 -149h-96l89 149h139z"/>
            <glyph glyph-name="Rcommaaccent" unicode="&#x156;" horiz-adv-x="725"
                   d="M83 706h372q108 0 164.5 -63t56.5 -150q0 -85 -52.5 -142.5t-126.5 -59.5q26 -5 46.5 -17t33 -24.5t24.5 -34t18 -36.5l16 -41.5t16 -40.5q31 -68 54 -97h-142q-19 19 -40 74q-5 12 -13.5 37.5t-13 37t-13.5 31.5t-16.5 29t-20 22t-26 19t-32 10.5t-41.5 4.5h-63
q-15 0 -27.5 2.5t-19 4.5t-13 8.5t-8.5 9t-7 11.5t-6 11v-312h-120v706zM203 607v-177q0 -68 83 -68h136q60 0 92 33t32 88q0 124 -128 124h-215zM358 -251l-57 51q20 14 27 28.5t7 41.5v70h88v-70q0 -41 -13.5 -68.5t-51.5 -52.5z"/>
            <glyph glyph-name="rcommaaccent" unicode="&#x157;" horiz-adv-x="365"
                   d="M364 519l-24 -95q-36 12 -60 12q-57 0 -79 -33t-22 -101v-302h-111v322q0 212 209 212q27 0 87 -15zM104 -251l-57 51q20 14 27 28.5t7 41.5v70h88v-70q0 -41 -13.5 -68.5t-51.5 -52.5z"/>
            <glyph glyph-name="Rcaron" unicode="&#x158;" horiz-adv-x="725"
                   d="M83 706h372q108 0 164.5 -63t56.5 -150q0 -85 -52.5 -142.5t-126.5 -59.5q26 -5 46.5 -17t33 -24.5t24.5 -34t18 -36.5l16 -41.5t16 -40.5q31 -68 54 -97h-142q-19 19 -40 74q-5 12 -13.5 37.5t-13 37t-13.5 31.5t-16.5 29t-20 22t-26 19t-32 10.5t-41.5 4.5h-63
q-15 0 -27.5 2.5t-19 4.5t-13 8.5t-8.5 9t-7 11.5t-6 11v-312h-120v706zM203 607v-177q0 -68 83 -68h136q60 0 92 33t32 88q0 124 -128 124h-215zM265 914l81 -91l82 91h91l-112 -149h-121l-111 149h90z"/>
            <glyph glyph-name="rcaron" unicode="&#x159;" horiz-adv-x="365"
                   d="M364 519l-24 -95q-36 12 -60 12q-57 0 -79 -33t-22 -101v-302h-111v322q0 212 209 212q27 0 87 -15zM157 751l81 -91l82 91h91l-112 -149h-121l-111 149h90z"/>
            <glyph glyph-name="Sacute" unicode="&#x15a;" horiz-adv-x="586"
                   d="M518 668l-42 -99q-76 50 -173 50q-127 0 -127 -81q0 -44 64 -78q8 -4 50 -23l82 -39q85 -40 125.5 -86.5t40.5 -122.5q0 -98 -72.5 -149.5t-183.5 -51.5q-126 0 -238 53l44 101q99 -54 193 -54q126 0 126 99q0 42 -30 69.5t-86 53.5l-83 39q-80 37 -121 79t-41 108
q0 90 72 136t179 46q115 0 221 -50zM487 926l-132 -149h-96l89 149h139z"/>
            <glyph glyph-name="sacute" unicode="&#x15b;" horiz-adv-x="453"
                   d="M33 31l36 90q78 -42 148 -42q83 0 83 64q0 29 -22 47t-69 40l-43 20q-31 14 -51 25.5t-40.5 29t-30.5 40t-10 51.5q0 70 54 104t137 34q94 0 178 -40l-38 -88q-64 41 -134 41q-82 0 -82 -50q0 -6 1.5 -11t5 -9.5l6.5 -8.5t9.5 -8l11 -7t13 -7t13 -6.5t14.5 -7t15 -6.5
l43 -20q67 -32 101 -67t34 -95q0 -75 -56 -114t-141 -39q-97 0 -186 40zM416 751l-132 -149h-96l89 149h139z"/>
            <glyph glyph-name="Scircumflex" unicode="&#x15c;" horiz-adv-x="586"
                   d="M518 668l-42 -99q-76 50 -173 50q-127 0 -127 -81q0 -44 64 -78q8 -4 50 -23l82 -39q85 -40 125.5 -86.5t40.5 -122.5q0 -98 -72.5 -149.5t-183.5 -51.5q-126 0 -238 53l44 101q99 -54 193 -54q126 0 126 99q0 42 -30 69.5t-86 53.5l-83 39q-80 37 -121 79t-41 108
q0 90 72 136t179 46q115 0 221 -50zM300 867l-81 -90h-90l111 149h121l112 -149h-91z"/>
            <glyph glyph-name="scircumflex" unicode="&#x15d;" horiz-adv-x="453"
                   d="M33 31l36 90q78 -42 148 -42q83 0 83 64q0 29 -22 47t-69 40l-43 20q-31 14 -51 25.5t-40.5 29t-30.5 40t-10 51.5q0 70 54 104t137 34q94 0 178 -40l-38 -88q-64 41 -134 41q-82 0 -82 -50q0 -6 1.5 -11t5 -9.5l6.5 -8.5t9.5 -8l11 -7t13 -7t13 -6.5t14.5 -7t15 -6.5
l43 -20q67 -32 101 -67t34 -95q0 -75 -56 -114t-141 -39q-97 0 -186 40zM230 692l-81 -90h-90l111 149h121l112 -149h-91z"/>
            <glyph glyph-name="Scedilla" unicode="&#x15e;" horiz-adv-x="586"
                   d="M44 41l44 101q99 -54 193 -54q126 0 126 99q0 42 -30 69.5t-86 53.5l-83 39q-80 37 -121 79t-41 108q0 90 72 136t179 46q115 0 221 -50l-42 -99q-76 50 -173 50q-127 0 -127 -81q0 -44 64 -78q8 -4 50 -23l82 -39q85 -40 125.5 -86.5t40.5 -122.5q0 -92 -64 -143
t-166 -57l-10 -50q13 -1 27.5 -6t31.5 -15t27.5 -29.5t10.5 -46.5q0 -38 -22.5 -68t-56.5 -46.5t-56.5 -24.5t-39.5 -11l-20 57q100 37 100 85q0 28 -24.5 41.5t-58.5 12.5l20 102q-103 8 -193 51z"/>
            <glyph glyph-name="scedilla" unicode="&#x15f;" horiz-adv-x="453"
                   d="M33 31l36 90q78 -42 148 -42q83 0 83 64q0 29 -22 47t-69 40l-43 20q-31 14 -51 25.5t-40.5 29t-30.5 40t-10 51.5q0 70 54 104t137 34q94 0 178 -40l-38 -88q-64 41 -134 41q-82 0 -82 -50q0 -6 1.5 -11t5 -9.5l6.5 -8.5t9.5 -8l11 -7t13 -7t13 -6.5t14.5 -7t15 -6.5
l43 -20q67 -32 101 -67t34 -95q0 -69 -48.5 -107.5t-124.5 -43.5l-9 -47q19 -2 38 -9t38.5 -30t19.5 -58q0 -38 -22 -68t-57 -47t-55.5 -24.5t-40.5 -11.5l-19 58q99 37 99 85q0 28 -24.5 41t-58.5 13l20 99q-72 6 -139 37z"/>
            <glyph glyph-name="Scaron" unicode="&#x160;" horiz-adv-x="586"
                   d="M518 668l-42 -99q-76 50 -173 50q-127 0 -127 -81q0 -44 64 -78q8 -4 50 -23l82 -39q85 -40 125.5 -86.5t40.5 -122.5q0 -98 -72.5 -149.5t-183.5 -51.5q-126 0 -238 53l44 101q99 -54 193 -54q126 0 126 99q0 42 -30 69.5t-86 53.5l-83 39q-80 37 -121 79t-41 108
q0 90 72 136t179 46q115 0 221 -50zM220 926l81 -91l82 91h91l-112 -149h-121l-111 149h90z"/>
            <glyph glyph-name="scaron" unicode="&#x161;" horiz-adv-x="453"
                   d="M33 31l36 90q78 -42 148 -42q83 0 83 64q0 29 -22 47t-69 40l-43 20q-31 14 -51 25.5t-40.5 29t-30.5 40t-10 51.5q0 70 54 104t137 34q94 0 178 -40l-38 -88q-64 41 -134 41q-82 0 -82 -50q0 -6 1.5 -11t5 -9.5l6.5 -8.5t9.5 -8l11 -7t13 -7t13 -6.5t14.5 -7t15 -6.5
l43 -20q67 -32 101 -67t34 -95q0 -75 -56 -114t-141 -39q-97 0 -186 40zM150 751l81 -91l82 91h91l-112 -149h-121l-111 149h90z"/>
            <glyph glyph-name="Tcommaaccent" unicode="&#x162;" horiz-adv-x="593"
                   d="M236 0v604h-227v102h575l-14 -102h-214v-604h-120zM278 -251l-57 51q20 14 27 28.5t7 41.5v70h88v-70q0 -41 -13.5 -68.5t-51.5 -52.5z"/>
            <glyph glyph-name="tcommaaccent" unicode="&#x163;" horiz-adv-x="293"
                   d="M60 268v393l112 44v-185h107l-16 -88h-91v-166q0 -21 2 -41.5t7.5 -40l10 -35t13 -33.5l14 -29t16 -27.5t14 -22.5t14 -21t11.5 -16h-124q-1 1 -12.5 19t-16.5 27l-16.5 30t-17.5 39t-13 43t-10.5 52.5t-3.5 57.5zM158 -251l-57 51q20 14 27 28.5t7 41.5v70h88v-70
q0 -41 -13.5 -68.5t-51.5 -52.5z"/>
            <glyph glyph-name="Tcaron" unicode="&#x164;" horiz-adv-x="593"
                   d="M236 0v604h-227v102h575l-14 -102h-214v-604h-120zM216 909l81 -91l82 91h91l-112 -149h-121l-111 149h90z"/>
            <glyph glyph-name="tcaron" unicode="&#x165;" horiz-adv-x="367"
                   d="M60 268v393l112 44v-185h107l-16 -88h-91v-166q0 -21 2 -41.5t7.5 -40l10 -35t13 -33.5l14 -29t16 -27.5t14 -22.5t14 -21t11.5 -16h-124q-1 1 -12.5 19t-16.5 27l-16.5 30t-17.5 39t-13 43t-10.5 52.5t-3.5 57.5zM292 573l-57 50q20 15 27 29.5t7 41.5v70h88v-70
q0 -41 -13.5 -68.5t-51.5 -52.5z"/>
            <glyph glyph-name="Tbar" unicode="&#x166;" horiz-adv-x="593"
                   d="M144 363v76h92v165h-227v102h575l-14 -102h-214v-165h93v-76h-93v-363h-120v363h-92z"/>
            <glyph glyph-name="tbar" unicode="&#x167;" horiz-adv-x="293"
                   d="M13 270v70h47v321l112 44v-185h107l-16 -88h-91v-92h94v-70h-94v-29q0 -22 3.5 -43.5t8 -38.5t13.5 -36.5l15 -32t17 -29t16.5 -24l16 -21.5t12.5 -16h-124q-49 66 -67 114q-23 61 -23 126v30h-47z"/>
            <glyph glyph-name="Utilde" unicode="&#x168;" horiz-adv-x="746"
                   d="M78 238v468h120v-453q0 -81 51 -120t128 -39q78 0 128 39t50 120v453h113v-468q0 -123 -82.5 -186.5t-208.5 -63.5q-58 0 -109 13.5t-95 41.5t-69.5 78t-25.5 117zM273 776h-65q2 15 6 31t14.5 40.5t32 40t50.5 15.5q26 0 69.5 -21.5t60.5 -21.5q10 0 18 4.5t12 11.5
t6 13.5t3 13t1 7.5h65q-2 -15 -6 -31.5t-14.5 -41t-31 -40.5t-47.5 -16q-28 0 -71 23.5t-60 23.5q-11 0 -19 -4.5t-12 -12t-6.5 -14t-3.5 -14.5z"/>
            <glyph glyph-name="utilde" unicode="&#x169;"
                   d="M304 88q62 0 93.5 35t31.5 100v302h111v-320q0 -104 -64 -159t-172 -55t-172 55t-64 159v320h111v-302q0 -65 31.5 -100t93.5 -35zM204 604h-65q2 15 6 31t14.5 40.5t32 40t50.5 15.5q26 0 69.5 -21.5t60.5 -21.5q10 0 18 4.5t12 11.5t6 13.5t3 13t1 7.5h65
q-2 -15 -6 -31.5t-14.5 -41t-31 -40.5t-47.5 -16q-28 0 -71 23.5t-60 23.5q-11 0 -19 -4.5t-12 -12t-6.5 -14t-3.5 -13.5z"/>
            <glyph glyph-name="Umacron" unicode="&#x16a;" horiz-adv-x="746"
                   d="M78 238v468h120v-453q0 -81 51 -120t128 -39q78 0 128 39t50 120v453h113v-468q0 -123 -82.5 -186.5t-208.5 -63.5q-58 0 -109 13.5t-95 41.5t-69.5 78t-25.5 117zM223 801v77h300v-77h-300z"/>
            <glyph glyph-name="umacron" unicode="&#x16b;"
                   d="M304 88q62 0 93.5 35t31.5 100v302h111v-320q0 -104 -64 -159t-172 -55t-172 55t-64 159v320h111v-302q0 -65 31.5 -100t93.5 -35zM155 629v77h300v-77h-300z"/>
            <glyph glyph-name="Ubreve" unicode="&#x16c;" horiz-adv-x="746"
                   d="M78 238v468h120v-453q0 -81 51 -120t128 -39q78 0 128 39t50 120v453h113v-468q0 -123 -82.5 -186.5t-208.5 -63.5q-58 0 -109 13.5t-95 41.5t-69.5 78t-25.5 117zM376 845q30 0 48.5 18.5t21.5 51.5h86q-8 -74 -52 -107t-104 -33t-104 33t-52 107h86q3 -33 21.5 -51.5
t48.5 -18.5z"/>
            <glyph glyph-name="ubreve" unicode="&#x16d;"
                   d="M304 88q62 0 93.5 35t31.5 100v302h111v-320q0 -104 -64 -159t-172 -55t-172 55t-64 159v320h111v-302q0 -65 31.5 -100t93.5 -35zM308 673q30 0 48.5 18.5t21.5 51.5h86q-8 -74 -52 -107t-104 -33t-104 33t-52 107h86q3 -33 21.5 -51.5t48.5 -18.5z"/>
            <glyph glyph-name="Uring" unicode="&#x16e;" horiz-adv-x="746"
                   d="M78 238v468h120v-453q0 -81 51 -120t128 -39q78 0 128 39t50 120v453h113v-468q0 -123 -82.5 -186.5t-208.5 -63.5q-58 0 -109 13.5t-95 41.5t-69.5 78t-25.5 117zM244 887q0 55 38.5 93.5t93.5 38.5t94 -38.5t39 -93.5t-38.5 -93.5t-94.5 -38.5t-94 38t-38 94zM309 887
q0 -28 19.5 -47.5t47.5 -19.5t47.5 19.5t19.5 47.5t-19.5 47.5t-47.5 19.5t-47.5 -19.5t-19.5 -47.5z"/>
            <glyph glyph-name="uring" unicode="&#x16f;"
                   d="M304 88q62 0 93.5 35t31.5 100v302h111v-320q0 -104 -64 -159t-172 -55t-172 55t-64 159v320h111v-302q0 -65 31.5 -100t93.5 -35zM176 715q0 55 38.5 93.5t93.5 38.5t94 -38.5t39 -93.5t-38.5 -93.5t-94.5 -38.5t-94 38.5t-38 93.5zM241 715q0 -29 19.5 -48t47.5 -19
t47.5 19t19.5 48t-19.5 48t-47.5 19t-47.5 -19t-19.5 -48z"/>
            <glyph glyph-name="Uhungarumlaut" unicode="&#x170;" horiz-adv-x="746"
                   d="M78 238v468h120v-453q0 -81 51 -120t128 -39q78 0 128 39t50 120v453h113v-468q0 -123 -82.5 -186.5t-208.5 -63.5q-58 0 -109 13.5t-95 41.5t-69.5 78t-25.5 117zM426 914l-96 -149h-87l64 149h119zM615 914l-126 -149h-46h-47l94 149h125z"/>
            <glyph glyph-name="uhungarumlaut" unicode="&#x171;"
                   d="M304 88q62 0 93.5 35t31.5 100v302h111v-320q0 -104 -64 -159t-172 -55t-172 55t-64 159v320h111v-302q0 -65 31.5 -100t93.5 -35zM357 742l-96 -149h-87l64 149h119zM546 742l-126 -149h-46h-47l94 149h125z"/>
            <glyph glyph-name="Uogonek" unicode="&#x172;" horiz-adv-x="746"
                   d="M78 238v468h120v-453q0 -81 51 -120t128 -39q78 0 128 39t50 120v453h113v-468q0 -109 -66 -171.5t-172 -74.5q-78 -47 -78 -104q0 -29 18 -44.5t43 -15.5q34 0 70 13l-7 -71q-40 -11 -90 -11q-46 0 -84.5 26t-38.5 85q0 69 75 120q-112 9 -186 69.5t-74 178.5z"/>
            <glyph glyph-name="uogonek" unicode="&#x173;"
                   d="M304 88q62 0 93.5 35t31.5 100v302h111v-320q0 -94 -52 -148t-142 -63q-64 -45 -64 -95q0 -29 18 -44.5t43 -15.5q34 0 70 13l-7 -71q-42 -11 -90 -11q-46 0 -84.5 26t-38.5 85q0 65 65 113q-89 11 -139.5 64.5t-50.5 146.5v320h111v-302q0 -65 31.5 -100t93.5 -35z"/>
            <glyph glyph-name="Wcircumflex" unicode="&#x174;" horiz-adv-x="996"
                   d="M18 706h128l155 -543l145 543h116l149 -543l147 543h115l-208 -706h-121l-144 525l-146 -525h-119zM491 855l-81 -90h-90l111 149h121l112 -149h-91z"/>
            <glyph glyph-name="wcircumflex" unicode="&#x175;" horiz-adv-x="919"
                   d="M462 97h-3q-21 -52 -70.5 -79t-111.5 -27q-97 0 -153 53.5t-56 152.5v328h111v-307q0 -62 28 -96t84 -34q114 0 114 130v307h109v-307q0 -130 115 -130q56 0 84 34.5t28 95.5v307h111v-328q0 -99 -56 -152.5t-154 -53.5q-61 0 -110 27t-70 79zM459 683l-81 -90h-90
l111 149h121l112 -149h-91z"/>
            <glyph glyph-name="Ycircumflex" unicode="&#x176;" horiz-adv-x="610"
                   d="M57 467v239h116v-222q0 -60 35.5 -90.5t99.5 -30.5t98 30.5t34 89.5v223h111v-245q0 -85 -47.5 -134.5t-134.5 -59.5v-267h-120v266q-93 9 -142.5 59.5t-49.5 141.5zM305 855l-81 -90h-90l111 149h121l112 -149h-91z"/>
            <glyph glyph-name="ycircumflex" unicode="&#x177;"
                   d="M445 -184h-133q5 4 12.5 11.5t27 33t35 52.5t29 68t14.5 82q-52 -72 -155 -72q-98 0 -152.5 52t-54.5 160v322h111v-297q0 -140 117 -140q71 0 102 39.5t31 98.5v299h111v-453q0 -68 -24 -132t-48 -94zM301 683l-81 -90h-90l111 149h121l112 -149h-91z"/>
            <glyph glyph-name="Ydieresis" unicode="&#x178;" horiz-adv-x="610"
                   d="M57 467v239h116v-222q0 -60 35.5 -90.5t99.5 -30.5t98 30.5t34 89.5v223h111v-245q0 -85 -47.5 -134.5t-134.5 -59.5v-267h-120v266q-93 9 -142.5 59.5t-49.5 141.5zM149 788v105h104v-105h-50h-54zM361 788v105h105v-105h-105z"/>
            <glyph glyph-name="Zacute" unicode="&#x179;" horiz-adv-x="622"
                   d="M568 0h-543q0 125 45.5 208t166.5 182l34 27.5t36.5 30l31 27t33.5 31.5l26 29t26 34.5t18 34.5h-383v102h539q-3 -115 -63.5 -196t-186.5 -175q-79 -61 -123.5 -112t-55.5 -120h399v-103zM512 914l-132 -149h-96l89 149h139z"/>
            <glyph glyph-name="zacute" unicode="&#x17a;" horiz-adv-x="478"
                   d="M311 437h-279v88h414q0 -85 -37.5 -143.5t-114.5 -119.5q-63 -50 -97.5 -90t-42.5 -84h276v-88h-416q1 56 14 101t39.5 82.5t53.5 63.5t70 61q52 41 80 69.5t40 59.5zM430 742l-132 -149h-96l89 149h139z"/>
            <glyph glyph-name="Zdotaccent" unicode="&#x17b;" horiz-adv-x="622"
                   d="M568 0h-543q0 125 45.5 208t166.5 182l34 27.5t36.5 30l31 27t33.5 31.5l26 29t26 34.5t18 34.5h-383v102h539q-3 -115 -63.5 -196t-186.5 -175q-79 -61 -123.5 -112t-55.5 -120h399v-103zM277 792v104h104v-104h-104z"/>
            <glyph glyph-name="zdotaccent" unicode="&#x17c;" horiz-adv-x="478"
                   d="M311 437h-279v88h414q0 -85 -37.5 -143.5t-114.5 -119.5q-63 -50 -97.5 -90t-42.5 -84h276v-88h-416q1 56 14 101t39.5 82.5t53.5 63.5t70 61q52 41 80 69.5t40 59.5zM195 620v104h104v-104h-104z"/>
            <glyph glyph-name="Zcaron" unicode="&#x17d;" horiz-adv-x="622"
                   d="M568 0h-543q0 125 45.5 208t166.5 182l34 27.5t36.5 30l31 27t33.5 31.5l26 29t26 34.5t18 34.5h-383v102h539q-3 -115 -63.5 -196t-186.5 -175q-79 -61 -123.5 -112t-55.5 -120h399v-103zM246 914l81 -91l82 91h91l-112 -149h-121l-111 149h90z"/>
            <glyph glyph-name="zcaron" unicode="&#x17e;" horiz-adv-x="478"
                   d="M311 437h-279v88h414q0 -85 -37.5 -143.5t-114.5 -119.5q-63 -50 -97.5 -90t-42.5 -84h276v-88h-416q1 56 14 101t39.5 82.5t53.5 63.5t70 61q52 41 80 69.5t40 59.5zM164 742l81 -91l82 91h91l-112 -149h-121l-111 149h90z"/>
            <glyph glyph-name="florin" unicode="&#x192;" horiz-adv-x="544"
                   d="M118 0l110 389h-92l21 78h93l38 133q19 69 57.5 93.5t98.5 24.5q59 0 100 -26l-34 -89q-22 15 -54 15q-28 0 -43.5 -12.5t-24.5 -47.5l-27 -91h96l-19 -78h-99l-127 -443q-33 -118 -161 -118q-28 0 -54 7t-38 14l-12 7l33 89q23 -17 57 -17q30 0 49.5 14.5t31.5 57.5z
"/>
            <glyph glyph-name="AEacute" unicode="&#x1fc;" horiz-adv-x="936"
                   d="M887 0h-316q-72 0 -108 39t-36 106v34h-235l-70 -179h-114l273 706h630l-18 -100h-348v-205h312l-18 -96h-294v-126q0 -44 17 -61.5t49 -17.5h294zM353 606l-127 -330h199v330h-72zM764 915l-132 -149h-96l89 149h139z"/>
            <glyph glyph-name="aeacute" unicode="&#x1fd;" horiz-adv-x="1073"
                   d="M921 109l-8 -94q-51 -24 -128 -24q-115 0 -187 70v-61h-92v84q-71 -92 -199 -92q-115 0 -191 74t-76 194t78 197t200 77q161 0 234 -116q34 54 92.5 85t130.5 31q127 0 196 -80.5t67 -214.5h-420q6 -81 59 -120t126 -39q66 0 118 29zM497 262q0 78 -47 126.5t-124 48.5
q-76 0 -123 -50.5t-47 -124.5q0 -76 46.5 -125t123.5 -49t124 48t47 126zM773 449q-60 0 -101 -34.5t-54 -93.5h300q-8 61 -46.5 94.5t-98.5 33.5zM736 751l-132 -149h-96l89 149h139z"/>
            <glyph glyph-name="Oslashacute" unicode="&#x1fe;" horiz-adv-x="860"
                   d="M810 673l-79 -79q79 -95 79 -241q0 -173 -105 -269t-275 -96q-146 0 -243 70l-79 -79l-58 54l79 78q-79 95 -78 242q1 173 105.5 269t273.5 96q145 0 243 -71l80 80zM677 353q0 86 -40 149l-362 -357q60 -49 155 -49q117 0 182 71.5t65 185.5zM184 353q0 -87 39 -150
l361 358q-62 49 -154 49q-116 0 -181 -71.5t-65 -185.5zM615 926l-132 -149h-96l89 149h139z"/>
            <glyph glyph-name="oslashacute" unicode="&#x1ff;" horiz-adv-x="654"
                   d="M40 262q0 125 83.5 199t203.5 73q109 -2 180 -55l62 60l46 -46l-59 -58q57 -69 58 -173q0 -126 -80.5 -198.5t-206.5 -72.5q-106 0 -179 53l-63 -61l-46 47l59 57q-58 71 -58 175zM157 262q0 -54 25 -95l246 237q-42 33 -101 33q-71 1 -120.5 -47.5t-49.5 -127.5z
M497 262q-2 57 -25 94l-246 -237q43 -31 101 -31q75 0 123 47.5t47 126.5zM512 751l-132 -149h-96l89 149h139z"/>
            <glyph glyph-name="dotlessj" unicode="&#x237;" horiz-adv-x="250"
                   d="M70 525h112v-329q0 -68 -10.5 -132t-26 -107t-30.5 -76.5t-25 -48.5l-11 -16h-123q5 6 12.5 18t27 50t34.5 79.5t27.5 104t12.5 125.5v332z"/>
            <glyph glyph-name="circumflex" unicode="&#x2c6;" horiz-adv-x="500"
                   d="M249 692l-81 -90h-90l111 149h121l112 -149h-91z"/>
            <glyph glyph-name="caron" unicode="&#x2c7;" horiz-adv-x="500"
                   d="M168 751l81 -91l82 91h91l-112 -149h-121l-111 149h90z"/>
            <glyph glyph-name="breve" unicode="&#x2d8;" horiz-adv-x="500"
                   d="M250 682q30 0 48.5 18.5t21.5 51.5h86q-8 -74 -52 -107t-104 -33t-104 33t-52 107h86q3 -33 21.5 -51.5t48.5 -18.5z"/>
            <glyph glyph-name="dotaccent" unicode="&#x2d9;" horiz-adv-x="500"
                   d="M198 629v104h104v-104h-104z"/>
            <glyph glyph-name="ring" unicode="&#x2da;" horiz-adv-x="500"
                   d="M118 724q0 55 38.5 93.5t93.5 38.5t94 -38.5t39 -93.5t-38.5 -93.5t-94.5 -38.5t-94 38t-38 94zM183 724q0 -28 19.5 -47.5t47.5 -19.5t47.5 19.5t19.5 47.5t-19.5 47.5t-47.5 19.5t-47.5 -19.5t-19.5 -47.5z"/>
            <glyph glyph-name="ogonek" unicode="&#x2db;" horiz-adv-x="500"
                   d="M237 0h92q-48 -24 -73 -55t-25 -60t18 -44t43 -15q34 0 70 13l-7 -71q-39 -12 -90 -12q-46 0 -84.5 26.5t-38.5 84.5q0 42 28.5 77t66.5 56z"/>
            <glyph glyph-name="tilde" unicode="&#x2dc;" horiz-adv-x="500"
                   d="M146 613h-65q2 15 6 31t14.5 40.5t32 40t50.5 15.5q26 0 69.5 -21.5t60.5 -21.5q10 0 18 4.5t12 11.5t6 13.5t3 13t1 7.5h65q-2 -15 -6 -31.5t-14.5 -41t-31 -40.5t-47.5 -16q-28 0 -71 23.5t-60 23.5q-11 0 -19 -4.5t-12 -12t-6.5 -14t-3.5 -14.5z"/>
            <glyph glyph-name="hungarumlaut" unicode="&#x2dd;" horiz-adv-x="500"
                   d="M300 751l-96 -149h-87l64 149h119zM489 751l-126 -149h-46h-47l94 149h125z"/>
            <glyph glyph-name="uni0312" unicode="&#x312;" horiz-adv-x="500"
                   d="M271 813l57 -51q-20 -14 -27 -28.5t-7 -41.5v-70h-88v70q0 41 13.5 68.5t51.5 52.5z"/>
            <glyph glyph-name="uni0315" unicode="&#x315;" horiz-adv-x="122"
                   d="M57 573l-57 50q20 15 27 29.5t7 41.5v70h88v-70q0 -41 -13.5 -68.5t-51.5 -52.5z"/>
            <glyph glyph-name="uni0326" unicode="&#x326;" horiz-adv-x="500"
                   d="M229 -248l-57 51q20 14 27 28.5t7 41.5v70h88v-70q0 -41 -13.5 -68.5t-51.5 -52.5z"/>
            <glyph glyph-name="Wgrave" unicode="&#x1e80;" horiz-adv-x="996"
                   d="M18 706h128l155 -543l145 543h116l149 -543l147 543h115l-208 -706h-121l-144 525l-146 -525h-119zM452 765l-134 151h138l92 -151h-96z"/>
            <glyph glyph-name="wgrave" unicode="&#x1e81;" horiz-adv-x="919"
                   d="M462 97h-3q-21 -52 -70.5 -79t-111.5 -27q-97 0 -153 53.5t-56 152.5v328h111v-307q0 -62 28 -96t84 -34q114 0 114 130v307h109v-307q0 -130 115 -130q56 0 84 34.5t28 95.5v307h111v-328q0 -99 -56 -152.5t-154 -53.5q-61 0 -110 27t-70 79zM420 593l-134 151h138
l92 -151h-96z"/>
            <glyph glyph-name="Wacute" unicode="&#x1e82;" horiz-adv-x="996"
                   d="M18 706h128l155 -543l145 543h116l149 -543l147 543h115l-208 -706h-121l-144 525l-146 -525h-119zM678 914l-132 -149h-96l89 149h139z"/>
            <glyph glyph-name="wacute" unicode="&#x1e83;" horiz-adv-x="919"
                   d="M462 97h-3q-21 -52 -70.5 -79t-111.5 -27q-97 0 -153 53.5t-56 152.5v328h111v-307q0 -62 28 -96t84 -34q114 0 114 130v307h109v-307q0 -130 115 -130q56 0 84 34.5t28 95.5v307h111v-328q0 -99 -56 -152.5t-154 -53.5q-61 0 -110 27t-70 79zM645 742l-132 -149h-96
l89 149h139z"/>
            <glyph glyph-name="Wdieresis" unicode="&#x1e84;" horiz-adv-x="996"
                   d="M18 706h128l155 -543l145 543h116l149 -543l147 543h115l-208 -706h-121l-144 525l-146 -525h-119zM335 788v105h104v-105h-50h-54zM547 788v105h105v-105h-105z"/>
            <glyph glyph-name="wdieresis" unicode="&#x1e85;" horiz-adv-x="919"
                   d="M462 97h-3q-21 -52 -70.5 -79t-111.5 -27q-97 0 -153 53.5t-56 152.5v328h111v-307q0 -62 28 -96t84 -34q114 0 114 130v307h109v-307q0 -130 115 -130q56 0 84 34.5t28 95.5v307h111v-328q0 -99 -56 -152.5t-154 -53.5q-61 0 -110 27t-70 79zM303 616v105h104v-105h-50
h-54zM515 616v105h105v-105h-105z"/>
            <glyph glyph-name="Ygrave" unicode="&#x1ef2;" horiz-adv-x="610"
                   d="M57 467v239h116v-222q0 -60 35.5 -90.5t99.5 -30.5t98 30.5t34 89.5v223h111v-245q0 -85 -47.5 -134.5t-134.5 -59.5v-267h-120v266q-93 9 -142.5 59.5t-49.5 141.5zM266 765l-134 151h138l92 -151h-96z"/>
            <glyph glyph-name="ygrave" unicode="&#x1ef3;"
                   d="M445 -184h-133q5 4 12.5 11.5t27 33t35 52.5t29 68t14.5 82q-52 -72 -155 -72q-98 0 -152.5 52t-54.5 160v322h111v-297q0 -140 117 -140q71 0 102 39.5t31 98.5v299h111v-453q0 -68 -24 -132t-48 -94zM262 593l-134 151h138l92 -151h-96z"/>
            <glyph glyph-name="endash" unicode="&#x2013;" horiz-adv-x="500"
                   d="M0 325h500v-99h-500v99z"/>
            <glyph glyph-name="emdash" unicode="&#x2014;" horiz-adv-x="1000"
                   d="M0 325h1000v-99h-1000v99z"/>
            <glyph glyph-name="quoteleft" unicode="&#x2018;" horiz-adv-x="237"
                   d="M209 496l-72 -59q-51 45 -67.5 78.5t-16.5 87.5v103h121v-119q0 -52 35 -91z"/>
            <glyph glyph-name="quoteright" unicode="&#x2019;" horiz-adv-x="237"
                   d="M100 437l-73 59q35 38 35 91v119h122v-103q0 -54 -16.5 -87.5t-67.5 -78.5z"/>
            <glyph glyph-name="quotesinglbase" unicode="&#x201a;" horiz-adv-x="237"
                   d="M98 -136l-73 60q35 38 35 91v118h121v-102q0 -54 -16 -88t-67 -79z"/>
            <glyph glyph-name="quotedblleft" unicode="&#x201c;" horiz-adv-x="438"
                   d="M209 496l-72 -59q-51 45 -67.5 78.5t-16.5 87.5v103h121v-119q0 -52 35 -91zM411 496l-73 -59q-51 44 -67 78t-16 88v103h64h57v-119q0 -52 35 -91z"/>
            <glyph glyph-name="quotedblright" unicode="&#x201d;" horiz-adv-x="438"
                   d="M302 437l-73 59q35 39 35 91v119h65h56v-103q0 -54 -16 -88t-67 -78zM100 437l-73 59q35 38 35 91v119h122v-103q0 -54 -16.5 -87.5t-67.5 -78.5z"/>
            <glyph glyph-name="quotedblbase" unicode="&#x201e;" horiz-adv-x="438"
                   d="M302 -136l-73 60q35 38 35 91v118h60h61v-102q0 -54 -16 -88t-67 -79zM100 -136l-73 60q35 36 35 91v118h122v-102q0 -54 -16.5 -88t-67.5 -79z"/>
            <glyph glyph-name="dagger" unicode="&#x2020;" horiz-adv-x="600"
                   d="M80 399v90h171v217h98v-217h171v-90h-171v-550h-98v550h-171z"/>
            <glyph glyph-name="daggerdbl" unicode="&#x2021;" horiz-adv-x="755"
                   d="M80 415v90h171v201h98v-201h171v-90h-171v-275h171v-90h-171v-201h-98v201h-171v90h171v275h-171z"/>
            <glyph glyph-name="bullet" unicode="&#x2022;" horiz-adv-x="425"
                   d="M74 353q0 57 40.5 97.5t97.5 40.5q58 0 98 -40.5t40 -97.5q0 -58 -40 -98t-98 -40q-57 0 -97.5 40t-40.5 98z"/>
            <glyph glyph-name="ellipsis" unicode="&#x2026;" horiz-adv-x="755"
                   d="M59 135h134v-135h-134v135zM311 135h66h68v-135h-134v135zM561 135h135v-135h-135v135z"/>
            <glyph glyph-name="perthousand" unicode="&#x2030;" horiz-adv-x="1338"
                   d="M46 528q0 86 52 137.5t131 51.5q80 0 132.5 -51.5t52.5 -137.5q0 -87 -52.5 -138.5t-132.5 -51.5q-79 0 -131.5 52t-51.5 138zM135 528q0 -53 23 -87.5t71 -34.5q49 0 72.5 34.5t23.5 87.5q0 52 -23.5 86t-72.5 34q-48 0 -71 -34t-23 -86zM330 -12l-70 35l327 694l72 -30
zM502 173q0 87 52 138.5t131 51.5q80 0 132.5 -51.5t52.5 -138.5t-52.5 -138.5t-132.5 -51.5q-79 0 -131.5 52t-51.5 138zM591 173q0 -53 23 -87.5t71 -34.5q49 0 72.5 34.5t23.5 87.5q0 52 -23.5 86.5t-72.5 34.5q-48 0 -71 -34.5t-23 -86.5zM924 173q1 87 53 138.5
t131 51.5q80 0 132.5 -51.5t52.5 -138.5t-52.5 -138.5t-132.5 -51.5q-79 0 -131.5 52t-52.5 138zM1013 173q0 -53 23 -87.5t72 -34.5t72.5 34.5t23.5 87.5q0 52 -23.5 86.5t-72.5 34.5q-48 0 -71.5 -34.5t-23.5 -86.5z"/>
            <glyph glyph-name="guilsinglleft" unicode="&#x2039;" horiz-adv-x="362"
                   d="M319 393l-177 -128l177 -128v-117l-279 201v88l279 201v-117z"/>
            <glyph glyph-name="guilsinglright" unicode="&#x203a;" horiz-adv-x="362"
                   d="M219 265l-176 128v117l279 -201v-88l-279 -201v117z"/>
            <glyph glyph-name="fraction" unicode="&#x2044;" horiz-adv-x="133"
                   d="M-63 -12l-70 35l327 694l72 -30z"/>
            <glyph glyph-name="Euro" unicode="&#x20ac;" horiz-adv-x="672"
                   d="M35 380l11 68h62q26 127 116.5 198.5t219.5 71.5q103 0 184 -46l-46 -94q-59 34 -126 34q-82 0 -138 -44.5t-78 -119.5h290l-12 -68h-294q-1 -7 -1 -25q0 -19 1 -27h287l-11 -68h-260q24 -77 83 -122.5t142 -45.5q67 0 137 38l-11 -112q-71 -30 -146 -30q-131 0 -222 72
t-116 200h-77l11 68h57v27v25h-63z"/>
            <glyph glyph-name="trademark" unicode="&#x2122;" horiz-adv-x="830"
                   d="M680 340l1 295l-98 -282h-54l-91 282l1 -295h-73v366h122l73 -238l81 238h115v-366h-77zM129 642h-112v64h303l-9 -64h-105v-301h-77v301z"/>
            <glyph glyph-name="minus" unicode="&#x2212;" horiz-adv-x="833"
                   d="M696 301h-558v105h558v-105z"/>
            <glyph glyph-name="approxequal" unicode="&#x2248;" horiz-adv-x="833"
                   d="M542 488q37 0 62 9t65 38l43 -88q-86 -62 -171 -62q-43 0 -123 30t-126 30q-36 0 -62 -9.5t-67 -39.5l-42 87q89 65 174 65q45 0 127.5 -30t119.5 -30zM542 265q37 0 62 9t65 38l43 -88q-87 -63 -171 -63q-43 0 -123 30t-126 30q-36 0 -62.5 -9t-66.5 -39l-22 45l-20 41
q90 66 174 66q45 0 127.5 -30t119.5 -30z"/>
            <glyph glyph-name="notequal" unicode="&#x2260;" horiz-adv-x="833"
                   d="M696 180h-295l-67 -189l-83 27l57 162h-170v106h207l48 135h-255v106h292l68 193l84 -27l-59 -166h173v-106h-210l-47 -135h257v-106z"/>
            <glyph glyph-name="lessequal" unicode="&#x2264;" horiz-adv-x="833"
                   d="M651 126l-475 210v102l475 205v-114l-352 -141l352 -147v-115zM670 -15h-504v106h504v-106z"/>
            <glyph glyph-name="greaterequal" unicode="&#x2265;" horiz-adv-x="833"
                   d="M661 336l-475 -210v115l352 147l-352 141v114l475 -205v-102zM670 -15h-504v106h504v-106z"/>
            <glyph glyph-name="zero.altab" horiz-adv-x="721"
                   d="M50 349q0 168 88 266.5t222 98.5t222.5 -98.5t88.5 -266.5t-88 -266.5t-223 -98.5q-134 0 -222 99t-88 266zM180 349q0 -115 47.5 -187t132.5 -72t133 72t48 187q0 114 -48 186.5t-133 72.5t-132.5 -72t-47.5 -187z"/>
            <glyph glyph-name="one.altab" horiz-adv-x="721"
                   d="M180 0l11 104h153v479q-54 -49 -147 -100l-56 88q48 26 98 60t76 55l26 20h121v-602h160l-11 -104h-431z"/>
            <glyph glyph-name="two.altab" horiz-adv-x="721"
                   d="M601 0h-501q0 132 47.5 206t169.5 150l39.5 24.5t40 25.5t32 23.5t29.5 27t16.5 27t7.5 31.5q0 51 -41 76t-98 25q-110 0 -191 -50l-41 91q102 61 237 61q54 0 99 -10.5t83.5 -32.5t60.5 -62.5t22 -95.5q0 -68 -34.5 -113t-101.5 -80q-17 -10 -65 -34t-69 -37.5
t-52 -37.5t-45.5 -51t-17.5 -60h380z"/>
            <glyph glyph-name="three.altab" horiz-adv-x="721"
                   d="M491 204q0 58 -41.5 89t-118.5 31h-132v92h118q62 0 96.5 28.5t34.5 72.5q0 52 -44.5 75.5t-102.5 24.5q-84 1 -174 -30l-33 90q99 38 218 38q48 0 91.5 -9.5t83 -29.5t63.5 -57t24 -87q0 -52 -32.5 -93.5t-83.5 -52.5q69 -10 117 -57t48 -128q0 -72 -44.5 -122
t-108.5 -70.5t-141 -20.5q-136 0 -247 38l33 94q119 -35 205 -34q70 1 120.5 29t50.5 89z"/>
            <glyph glyph-name="four.altab" horiz-adv-x="721"
                   d="M415 211h-308l-44 95l310 399h159v-396h109l-6 -98h-103v-211h-117v211zM179 309h236v299z"/>
            <glyph glyph-name="five.altab" horiz-adv-x="721"
                   d="M630 252q0 -124 -83 -194t-202 -70q-54 0 -103.5 9t-77 18.5t-74.5 27.5l31 100q40 -19 60.5 -28t61.5 -18.5t83 -8.5q75 1 123 44t48 124q0 65 -38.5 97t-95.5 32q-48 0 -84 -20.5t-50 -42.5h-106l17 384h431l5 -101h-340l-7 -190q69 62 169 63q106 0 169 -61t63 -165z
"/>
            <glyph glyph-name="six.altab" horiz-adv-x="721"
                   d="M79 299q0 118 69 226t191 181h197q-148 -71 -238.5 -169t-98.5 -209q21 67 78 105.5t128 38.5q111 0 180.5 -65.5t69.5 -172.5q0 -112 -77.5 -179t-195.5 -67q-140 0 -221.5 85.5t-81.5 225.5zM234 233q0 -67 39.5 -105.5t106.5 -38.5q68 0 108 39t40 105q0 64 -39.5 102
t-103.5 38q-67 0 -109 -38t-42 -102z"/>
            <glyph glyph-name="seven.altab" horiz-adv-x="721"
                   d="M491 602h-362l6 104h507q-99 -327 -302 -706h-143q86 134 166 301.5t128 300.5z"/>
            <glyph glyph-name="eight.altab" horiz-adv-x="721"
                   d="M73 207q0 70 43 119.5t114 60.5q-52 13 -85.5 56t-33.5 97q0 62 38.5 104t92.5 58t119 16q49 0 91.5 -9t79 -28.5t58 -55.5t21.5 -85q0 -54 -34 -96.5t-87 -56.5q71 -13 114.5 -62t43.5 -118q0 -74 -42 -124.5t-105 -72.5t-141 -22q-121 0 -204 55.5t-83 163.5zM203 216
q0 -61 45.5 -95.5t111.5 -34.5q67 0 112.5 34.5t45.5 95.5t-46.5 94t-111.5 33q-66 0 -111.5 -32t-45.5 -95zM236 528q0 -53 37 -78t88 -25q56 0 91 24.5t35 78.5q0 52 -36 76.5t-90 24.5t-89.5 -24.5t-35.5 -76.5z"/>
            <glyph glyph-name="nine.altab" horiz-adv-x="721"
                   d="M204 0q150 80 233 178t83 191q0 33 -5 52q-12 -81 -71 -128.5t-136 -47.5q-110 0 -177.5 64t-67.5 172q0 109 77 173t194 64q138 0 224 -87.5t86 -227.5q0 -226 -250 -403h-190zM478 481q0 64 -40.5 100t-99.5 36q-65 0 -105.5 -36.5t-40.5 -99.5q0 -64 39.5 -101
t104.5 -37q59 0 100.5 39.5t41.5 98.5z"/>
            <glyph glyph-name="B.alt" horiz-adv-x="697"
                   d="M82 706h314q35 0 61 -4.5t54 -17t43.5 -40t15.5 -68.5q0 -40 -19 -71t-55 -43q63 -19 105 -76t42 -144q0 -118 -79.5 -186t-199.5 -68q-126 0 -204 67.5t-78 182.5v468zM202 244q0 -67 46.5 -109.5t111.5 -42.5t110 42.5t45 109.5q0 68 -44.5 110.5t-110.5 42.5
q-65 0 -111.5 -43t-46.5 -110zM200 612v-202q55 73 155 73q44 1 66.5 14.5t22.5 50.5q0 26 -17.5 45t-56.5 19h-170z"/>
            <glyph glyph-name="S.alt" horiz-adv-x="564"
                   d="M383 0h-220q46 11 94 35.5t85.5 65.5t37.5 84q0 45 -28 69t-88 50l-68 30q-158 69 -158 192q0 92 78 142t181 50q117 0 210 -49l-45 -95q-73 45 -158 45q-52 0 -92.5 -21.5t-40.5 -67.5q0 -37 26.5 -59t84.5 -46l68 -29q80 -35 121.5 -83.5t41.5 -119.5q0 -53 -36.5 -107
t-93.5 -86z"/>
            <glyph glyph-name="a.alt" horiz-adv-x="562"
                   d="M92 510q72 24 147 24q132 0 205 -72.5t73 -198.5q0 -121 -65 -198t-189 -77q-106 0 -167 59t-61 138q0 86 59 136t145 50q36 0 65.5 -10.5t48 -27.5t30.5 -32.5t20 -31t10 -17.5h3q-2 107 -57 156t-136 49q-73 0 -131 -31v84zM268 289q-51 0 -84 -28.5t-33 -79.5
q0 -52 34 -81t83 -29q45 0 78.5 30.5t33.5 79.5q0 48 -33.5 78t-78.5 30z"/>
            <glyph glyph-name="g.alt" horiz-adv-x="578"
                   d="M291 594l78 -3l-18 -66q91 -14 138 -70t47 -128q0 -83 -65 -142t-181 -59q-43 0 -79 9q-35 -19 -35 -41q0 -23 37.5 -31t91 -9.5t106.5 -8t90.5 -34.5t37.5 -80q0 -48 -29 -77t-58 -34l-29 -5l-66 44q16 1 25 2.5t21.5 5.5t19 13.5t6.5 23.5q0 25 -35.5 35t-86.5 12
t-102 8t-86.5 30.5t-35.5 71.5q0 58 71 91q-57 26 -87 72t-30 104q0 88 66 143.5t176 58.5zM288 209q70 0 102.5 36t32.5 84q0 39 -24.5 70.5t-68.5 41.5l-15 -58h-60l10 62q-51 -6 -80 -40t-29 -76q0 -49 34.5 -84.5t97.5 -35.5z"/>
            <glyph glyph-name="s.alt" horiz-adv-x="365"
                   d="M242 0h-158q38 17 74.5 50t37.5 69q0 33 -33 70l-61 70q-65 75 -65 131q0 69 54 106.5t130 37.5q56 0 111 -21l-31 -90q-31 18 -70 18q-32 0 -54 -14t-22 -43q0 -12 9 -28.5t15.5 -24.5t23.5 -27l58 -67q29 -32 41.5 -57t12.5 -59q0 -33 -20.5 -66.5t-52.5 -54.5z"/>
            <glyph glyph-name="germandbls.alt" horiz-adv-x="671"
                   d="M68 0v486q0 111 65.5 168t181.5 57q227 0 227 -156q0 -79 -78 -103q75 -15 121 -74.5t46 -140.5q0 -113 -68.5 -178.5t-182.5 -65.5q-87 0 -145 31v113q62 -54 133 -54q63 0 104.5 43.5t41.5 109.5q0 67 -46.5 109.5t-115.5 42.5q-72 0 -118 -50v91q33 33 98 45
q50 8 71.5 21.5t21.5 48.5q0 80 -111 80q-135 0 -135 -146v-478h-111z"/>
            <glyph glyph-name="Sacute.alt" horiz-adv-x="564"
                   d="M383 0h-220q46 11 94 35.5t85.5 65.5t37.5 84q0 45 -28 69t-88 50l-68 30q-158 69 -158 192q0 92 78 142t181 50q117 0 210 -49l-45 -95q-73 45 -158 45q-52 0 -92.5 -21.5t-40.5 -67.5q0 -37 26.5 -59t84.5 -46l68 -29q80 -35 121.5 -83.5t41.5 -119.5q0 -53 -36.5 -107
t-93.5 -86zM486 926l-132 -149h-96l89 149h139z"/>
            <glyph glyph-name="Scircumflex.alt" horiz-adv-x="564"
                   d="M383 0h-220q46 11 94 35.5t85.5 65.5t37.5 84q0 45 -28 69t-88 50l-68 30q-158 69 -158 192q0 92 78 142t181 50q117 0 210 -49l-45 -95q-73 45 -158 45q-52 0 -92.5 -21.5t-40.5 -67.5q0 -37 26.5 -59t84.5 -46l68 -29q80 -35 121.5 -83.5t41.5 -119.5q0 -53 -36.5 -107
t-93.5 -86zM300 867l-81 -90h-90l111 149h121l112 -149h-91z"/>
            <glyph glyph-name="Scedilla.alt" horiz-adv-x="564"
                   d="M383 0h-94l-12 -61q19 -2 38 -9t38.5 -30t19.5 -58q0 -38 -22.5 -68t-56 -46.5t-56.5 -24.5t-40 -11l-20 57q100 37 100 85q0 28 -24.5 41.5t-58.5 12.5q3 16 23 112h-55q46 11 94 35.5t85.5 65.5t37.5 84q0 45 -28 69t-88 50l-68 30q-158 69 -158 192q0 92 78 142
t181 50q117 0 210 -49l-45 -95q-73 45 -158 45q-52 0 -92.5 -21.5t-40.5 -67.5q0 -37 26.5 -59t84.5 -46l68 -29q80 -35 121.5 -83.5t41.5 -119.5q0 -53 -36.5 -107t-93.5 -86z"/>
            <glyph glyph-name="Scaron.alt" horiz-adv-x="564"
                   d="M383 0h-220q46 11 94 35.5t85.5 65.5t37.5 84q0 45 -28 69t-88 50l-68 30q-158 69 -158 192q0 92 78 142t181 50q117 0 210 -49l-45 -95q-73 45 -158 45q-52 0 -92.5 -21.5t-40.5 -67.5q0 -37 26.5 -59t84.5 -46l68 -29q80 -35 121.5 -83.5t41.5 -119.5q0 -53 -36.5 -107
t-93.5 -86zM220 926l81 -91l82 91h91l-112 -149h-121l-111 149h90z"/>
            <glyph glyph-name="agrave.alt" horiz-adv-x="562"
                   d="M92 510q72 24 147 24q132 0 205 -72.5t73 -198.5q0 -121 -65 -198t-189 -77q-106 0 -167 59t-61 138q0 86 59 136t145 50q36 0 65.5 -10.5t48 -27.5t30.5 -32.5t20 -31t10 -17.5h3q-2 107 -57 156t-136 49q-73 0 -131 -31v84zM268 289q-51 0 -84 -28.5t-33 -79.5
q0 -52 34 -81t83 -29q45 0 78.5 30.5t33.5 79.5q0 48 -33.5 78t-78.5 30zM218 602l-134 151h138l92 -151h-96z"/>
            <glyph glyph-name="aacute.alt" horiz-adv-x="562"
                   d="M92 510q72 24 147 24q132 0 205 -72.5t73 -198.5q0 -121 -65 -198t-189 -77q-106 0 -167 59t-61 138q0 86 59 136t145 50q36 0 65.5 -10.5t48 -27.5t30.5 -32.5t20 -31t10 -17.5h3q-2 107 -57 156t-136 49q-73 0 -131 -31v84zM268 289q-51 0 -84 -28.5t-33 -79.5
q0 -52 34 -81t83 -29q45 0 78.5 30.5t33.5 79.5q0 48 -33.5 78t-78.5 30zM444 751l-132 -149h-96l89 149h139z"/>
            <glyph glyph-name="acircumflex.alt" horiz-adv-x="562"
                   d="M92 510q72 24 147 24q132 0 205 -72.5t73 -198.5q0 -121 -65 -198t-189 -77q-106 0 -167 59t-61 138q0 86 59 136t145 50q36 0 65.5 -10.5t48 -27.5t30.5 -32.5t20 -31t10 -17.5h3q-2 107 -57 156t-136 49q-73 0 -131 -31v84zM268 289q-51 0 -84 -28.5t-33 -79.5
q0 -52 34 -81t83 -29q45 0 78.5 30.5t33.5 79.5q0 48 -33.5 78t-78.5 30zM258 692l-81 -90h-90l111 149h121l112 -149h-91z"/>
            <glyph glyph-name="atilde.alt" horiz-adv-x="562"
                   d="M92 510q72 24 147 24q132 0 205 -72.5t73 -198.5q0 -121 -65 -198t-189 -77q-106 0 -167 59t-61 138q0 86 59 136t145 50q36 0 65.5 -10.5t48 -27.5t30.5 -32.5t20 -31t10 -17.5h3q-2 107 -57 156t-136 49q-73 0 -131 -31v84zM268 289q-51 0 -84 -28.5t-33 -79.5
q0 -52 34 -81t83 -29q45 0 78.5 30.5t33.5 79.5q0 48 -33.5 78t-78.5 30zM156 613h-65q2 15 6 31t14.5 40.5t32 40t50.5 15.5q26 0 69.5 -21.5t60.5 -21.5q10 0 18 4.5t12 11.5t6 13.5t3 13t1 7.5h65q-2 -15 -6 -31.5t-14.5 -41t-31 -40.5t-47.5 -16q-28 0 -71 23.5
t-60 23.5q-11 0 -19 -4.5t-12 -12t-6.5 -14t-3.5 -14.5z"/>
            <glyph glyph-name="adieresis.alt" horiz-adv-x="562"
                   d="M92 510q72 24 147 24q132 0 205 -72.5t73 -198.5q0 -121 -65 -198t-189 -77q-106 0 -167 59t-61 138q0 86 59 136t145 50q36 0 65.5 -10.5t48 -27.5t30.5 -32.5t20 -31t10 -17.5h3q-2 107 -57 156t-136 49q-73 0 -131 -31v84zM268 289q-51 0 -84 -28.5t-33 -79.5
q0 -52 34 -81t83 -29q45 0 78.5 30.5t33.5 79.5q0 48 -33.5 78t-78.5 30zM102 625v105h104v-105h-50h-54zM314 625v105h105v-105h-105z"/>
            <glyph glyph-name="aring.alt" horiz-adv-x="562"
                   d="M92 510q72 24 147 24q132 0 205 -72.5t73 -198.5q0 -121 -65 -198t-189 -77q-106 0 -167 59t-61 138q0 86 59 136t145 50q36 0 65.5 -10.5t48 -27.5t30.5 -32.5t20 -31t10 -17.5h3q-2 107 -57 156t-136 49q-73 0 -131 -31v84zM268 289q-51 0 -84 -28.5t-33 -79.5
q0 -52 34 -81t83 -29q45 0 78.5 30.5t33.5 79.5q0 48 -33.5 78t-78.5 30zM128 724q0 55 38.5 93.5t93.5 38.5t94 -38.5t39 -93.5t-38.5 -93.5t-94.5 -38.5t-94 38t-38 94zM193 724q0 -28 19.5 -47.5t47.5 -19.5t47.5 19.5t19.5 47.5t-19.5 47.5t-47.5 19.5t-47.5 -19.5
t-19.5 -47.5z"/>
            <glyph glyph-name="amacron.alt" horiz-adv-x="562"
                   d="M92 510q72 24 147 24q132 0 205 -72.5t73 -198.5q0 -121 -65 -198t-189 -77q-106 0 -167 59t-61 138q0 86 59 136t145 50q36 0 65.5 -10.5t48 -27.5t30.5 -32.5t20 -31t10 -17.5h3q-2 107 -57 156t-136 49q-73 0 -131 -31v84zM268 289q-51 0 -84 -28.5t-33 -79.5
q0 -52 34 -81t83 -29q45 0 78.5 30.5t33.5 79.5q0 48 -33.5 78t-78.5 30zM106 638v77h300v-77h-300z"/>
            <glyph glyph-name="abreve.alt" horiz-adv-x="562"
                   d="M92 510q72 24 147 24q132 0 205 -72.5t73 -198.5q0 -121 -65 -198t-189 -77q-106 0 -167 59t-61 138q0 86 59 136t145 50q36 0 65.5 -10.5t48 -27.5t30.5 -32.5t20 -31t10 -17.5h3q-2 107 -57 156t-136 49q-73 0 -131 -31v84zM268 289q-51 0 -84 -28.5t-33 -79.5
q0 -52 34 -81t83 -29q45 0 78.5 30.5t33.5 79.5q0 48 -33.5 78t-78.5 30zM260 682q30 0 48.5 18.5t21.5 51.5h86q-8 -74 -52 -107t-104 -33t-104 33t-52 107h86q3 -33 21.5 -51.5t48.5 -18.5z"/>
            <glyph glyph-name="aogonek.alt" horiz-adv-x="562"
                   d="M92 510q72 24 147 24q132 0 205 -72.5t73 -198.5q0 -167 -121 -242q-31 -19 -48.5 -32.5t-33.5 -36t-16 -46.5q0 -29 18 -44.5t43 -15.5q34 0 70 13l-7 -70q-39 -12 -90 -12q-46 0 -84.5 26.5t-38.5 84.5q0 55 50 100q-105 1 -164.5 60t-59.5 137q0 86 59 136t145 50
q36 0 65.5 -10.5t48 -27.5t30.5 -32.5t20 -31t10 -17.5h3q-2 107 -57 156t-136 49q-73 0 -131 -31v84zM268 289q-51 0 -84 -28.5t-33 -79.5q0 -52 34 -81t83 -29q45 0 78.5 30.5t33.5 79.5q0 48 -33.5 78t-78.5 30z"/>
            <glyph glyph-name="gcircumflex.alt" horiz-adv-x="536"
                   d="M291 594l78 -3l-18 -66q91 -14 138 -70t47 -128q0 -83 -65 -142t-181 -59q-43 0 -79 9q-35 -19 -35 -41q0 -23 37.5 -31t91 -9.5t106.5 -8t90.5 -34.5t37.5 -80q0 -48 -29 -77t-58 -34l-29 -5l-66 44q16 1 25 2.5t21.5 5.5t19 13.5t6.5 23.5q0 25 -35.5 35t-86.5 12
t-102 8t-86.5 30.5t-35.5 71.5q0 58 71 91q-57 26 -87 72t-30 104q0 88 66 143.5t176 58.5zM288 209q70 0 102.5 36t32.5 84q0 39 -24.5 70.5t-68.5 41.5l-15 -58h-60l10 62q-51 -6 -80 -40t-29 -76q0 -49 34.5 -84.5t97.5 -35.5zM271 735l-81 -90h-90l111 149h121l112 -149
h-91z"/>
            <glyph glyph-name="gbreve.alt" horiz-adv-x="536"
                   d="M291 594l78 -3l-18 -66q91 -14 138 -70t47 -128q0 -83 -65 -142t-181 -59q-43 0 -79 9q-35 -19 -35 -41q0 -23 37.5 -31t91 -9.5t106.5 -8t90.5 -34.5t37.5 -80q0 -48 -29 -77t-58 -34l-29 -5l-66 44q16 1 25 2.5t21.5 5.5t19 13.5t6.5 23.5q0 25 -35.5 35t-86.5 12
t-102 8t-86.5 30.5t-35.5 71.5q0 58 71 91q-57 26 -87 72t-30 104q0 88 66 143.5t176 58.5zM288 209q70 0 102.5 36t32.5 84q0 39 -24.5 70.5t-68.5 41.5l-15 -58h-60l10 62q-51 -6 -80 -40t-29 -76q0 -49 34.5 -84.5t97.5 -35.5zM273 725q30 0 48.5 18.5t21.5 51.5h86
q-8 -74 -52 -107t-104 -33t-104 33t-52 107h86q3 -33 21.5 -51.5t48.5 -18.5z"/>
            <glyph glyph-name="gdotaccent.alt" horiz-adv-x="536"
                   d="M291 594l78 -3l-18 -66q91 -14 138 -70t47 -128q0 -83 -65 -142t-181 -59q-43 0 -79 9q-35 -19 -35 -41q0 -23 37.5 -31t91 -9.5t106.5 -8t90.5 -34.5t37.5 -80q0 -48 -29 -77t-58 -34l-29 -5l-66 44q16 1 25 2.5t21.5 5.5t19 13.5t6.5 23.5q0 25 -35.5 35t-86.5 12
t-102 8t-86.5 30.5t-35.5 71.5q0 58 71 91q-57 26 -87 72t-30 104q0 88 66 143.5t176 58.5zM288 209q70 0 102.5 36t32.5 84q0 39 -24.5 70.5t-68.5 41.5l-15 -58h-60l10 62q-51 -6 -80 -40t-29 -76q0 -49 34.5 -84.5t97.5 -35.5zM222 672v104h104v-104h-104z"/>
            <glyph glyph-name="gcommaaccent.alt" horiz-adv-x="536"
                   d="M291 594l78 -3l-18 -66q91 -14 138 -70t47 -128q0 -83 -65 -142t-181 -59q-43 0 -79 9q-35 -19 -35 -41q0 -23 37.5 -31t91 -9.5t106.5 -8t90.5 -34.5t37.5 -80q0 -48 -29 -77t-58 -34l-29 -5l-66 44q16 1 25 2.5t21.5 5.5t19 13.5t6.5 23.5q0 25 -35.5 35t-86.5 12
t-102 8t-86.5 30.5t-35.5 71.5q0 58 71 91q-57 26 -87 72t-30 104q0 88 66 143.5t176 58.5zM288 209q70 0 102.5 36t32.5 84q0 39 -24.5 70.5t-68.5 41.5l-15 -58h-60l10 62q-51 -6 -80 -40t-29 -76q0 -49 34.5 -84.5t97.5 -35.5zM295 856l57 -51q-20 -14 -27 -28.5
t-7 -41.5v-70h-88v70q0 41 13.5 68.5t51.5 52.5z"/>
            <glyph glyph-name="sacute.alt" horiz-adv-x="365"
                   d="M242 0h-158q38 17 74.5 50t37.5 69q0 33 -33 70l-61 70q-65 75 -65 131q0 69 54 106.5t130 37.5q56 0 111 -21l-31 -90q-31 18 -70 18q-32 0 -54 -14t-22 -43q0 -12 9 -28.5t15.5 -24.5t23.5 -27l58 -67q29 -32 41.5 -57t12.5 -59q0 -33 -20.5 -66.5t-52.5 -54.5z
M388 751l-132 -149h-96l89 149h139z"/>
            <glyph glyph-name="scircumflex.alt" horiz-adv-x="365"
                   d="M242 0h-158q38 17 74.5 50t37.5 69q0 33 -33 70l-61 70q-65 75 -65 131q0 69 54 106.5t130 37.5q56 0 111 -21l-31 -90q-31 18 -70 18q-32 0 -54 -14t-22 -43q0 -12 9 -28.5t15.5 -24.5t23.5 -27l58 -67q29 -32 41.5 -57t12.5 -59q0 -33 -20.5 -66.5t-52.5 -54.5z
M201 692l-81 -90h-90l111 149h121l112 -149h-91z"/>
            <glyph glyph-name="scedilla.alt" horiz-adv-x="365"
                   d="M242 0h-48l-12 -61q19 -2 38 -9t38.5 -30t19.5 -58q0 -38 -22.5 -68t-56 -46.5t-56.5 -24.5t-40 -11l-19 57q99 37 99 85q0 28 -24.5 41.5t-58.5 12.5q3 16 23 112h-39q38 17 74.5 50t37.5 69q0 33 -33 70l-61 70q-65 75 -65 131q0 69 54 106.5t130 37.5q56 0 111 -21
l-31 -90q-31 18 -70 18q-32 0 -54 -14t-22 -43q0 -12 9 -28.5t15.5 -24.5t23.5 -27l58 -67q29 -32 41.5 -57t12.5 -59q0 -33 -20.5 -66.5t-52.5 -54.5z"/>
            <glyph glyph-name="scaron.alt" horiz-adv-x="333"
                   d="M242 0h-158q38 17 74.5 50t37.5 69q0 33 -33 70l-61 70q-65 75 -65 131q0 69 54 106.5t130 37.5q56 0 111 -21l-31 -90q-31 18 -70 18q-32 0 -54 -14t-22 -43q0 -12 9 -28.5t15.5 -24.5t23.5 -27l58 -67q29 -32 41.5 -57t12.5 -59q0 -33 -20.5 -66.5t-52.5 -54.5zM98 751
l81 -91l82 91h91l-112 -149h-121l-111 149h90z"/>
            </font>
</defs>
</svg>
